YoungSerif-Regular.ufo
<glyph name="exclam" format="1">
  <advance width="374.414"/>
  <unicode hex="0021"/>
  <outline>
    <contour>
      <point x="99.48" y="716.49" type="line" smooth="yes"/>
      <point x="87.089" y="704.099"/>
      <point x="80.512" y="691.247"/>
      <point x="80.512" y="678.376" type="curve" smooth="yes"/>
      <point x="80.512" y="626.153"/>
      <point x="117.481" y="487.582"/>
      <point x="128.12" y="350.27" type="curve" smooth="yes"/>
      <point x="132.76" y="290.35"/>
      <point x="132.96" y="281.63"/>
      <point x="133.13" y="273.26" type="curve" smooth="yes"/>
      <point x="133.29" y="265.12"/>
      <point x="138.16" y="260.88"/>
      <point x="146.3" y="260.88" type="curve" smooth="yes"/>
      <point x="208.82" y="260.88" type="line" smooth="yes"/>
      <point x="216.96" y="260.88"/>
      <point x="221.83" y="265.12"/>
      <point x="221.99" y="273.26" type="curve" smooth="yes"/>
      <point x="222.16" y="281.64"/>
      <point x="222.34" y="290.37"/>
      <point x="227" y="350.29" type="curve" smooth="yes"/>
      <point x="237.518" y="485.648"/>
      <point x="274.422" y="626.314"/>
      <point x="274.422" y="678.533" type="curve" smooth="yes"/>
      <point x="274.422" y="691.351"/>
      <point x="267.791" y="704.149"/>
      <point x="255.46" y="716.49" type="curve" smooth="yes"/>
      <point x="216.36" y="755.59" type="line" smooth="yes"/>
      <point x="203.72" y="768.23"/>
      <point x="190.59" y="774.55"/>
      <point x="177.47" y="774.55" type="curve" smooth="yes"/>
      <point x="164.34" y="774.55"/>
      <point x="151.22" y="768.23"/>
      <point x="138.58" y="755.59" type="curve" smooth="yes"/>
    </contour>
    <contour>
      <point x="99.48" y="116.88" type="line" smooth="yes"/>
      <point x="86.84" y="104.24"/>
      <point x="80.52" y="91.1125"/>
      <point x="80.52" y="77.9863" type="curve" smooth="yes"/>
      <point x="80.52" y="64.86"/>
      <point x="86.84" y="51.735"/>
      <point x="99.48" y="39.1" type="curve" smooth="yes"/>
      <point x="138.58" y="1.74332e-05" type="line" smooth="yes"/>
      <point x="151.22" y="-12.5"/>
      <point x="164.345" y="-18.75"/>
      <point x="177.47" y="-18.75" type="curve" smooth="yes"/>
      <point x="190.595" y="-18.75"/>
      <point x="203.72" y="-12.5"/>
      <point x="216.36" y="1.74332e-05" type="curve" smooth="yes"/>
      <point x="255.46" y="39.1" type="line" smooth="yes"/>
      <point x="268.095" y="51.735"/>
      <point x="274.412" y="64.86"/>
      <point x="274.412" y="77.9863" type="curve" smooth="yes"/>
      <point x="274.412" y="91.1125"/>
      <point x="268.095" y="104.24"/>
      <point x="255.46" y="116.88" type="curve" smooth="yes"/>
      <point x="216.36" y="155.97" type="line" smooth="yes"/>
      <point x="203.685" y="168.645"/>
      <point x="190.522" y="174.965"/>
      <point x="177.36" y="174.965" type="curve" smooth="yes"/>
      <point x="164.272" y="174.965"/>
      <point x="151.185" y="168.715"/>
      <point x="138.58" y="156.25" type="curve" smooth="yes"/>
    </contour>
  </outline>
</glyph>
<glyph name="dollar" format="1">
  <advance width="722.709"/>
  <unicode hex="0024"/>
  <outline>
    <contour>
      <point x="431.62" y="650.013" type="line"/>
      <point x="481.952" y="628.116"/>
      <point x="536.937" y="586.842"/>
      <point x="589.65" y="521.11" type="curve" smooth="yes"/>
      <point x="595.319" y="514.05"/>
      <point x="600.784" y="510.158"/>
      <point x="607.327" y="510.158" type="curve" smooth="yes"/>
      <point x="610.711" y="510.158"/>
      <point x="614.382" y="511.199"/>
      <point x="618.52" y="513.38" type="curve" smooth="yes"/>
      <point x="652.56" y="531.31" type="line" smooth="yes"/>
      <point x="660.793" y="535.65"/>
      <point x="663.852" y="540.282"/>
      <point x="663.852" y="546.175" type="curve" smooth="yes"/>
      <point x="663.852" y="550.167"/>
      <point x="662.448" y="554.738"/>
      <point x="660.3" y="560.19" type="curve" smooth="yes"/>
      <point x="589.74" y="739.23" type="line" smooth="yes"/>
      <point x="585.28" y="750.55"/>
      <point x="577.59" y="755.8"/>
      <point x="565.42" y="755.82" type="curve" smooth="yes"/>
      <point x="528.72" y="755.82" type="line" smooth="yes"/>
      <point x="516.691" y="755.905"/>
      <point x="510.913" y="750.536"/>
      <point x="510.913" y="741.097" type="curve" smooth="yes"/>
      <point x="510.913" y="738.303"/>
      <point x="511.42" y="735.152"/>
      <point x="512.42" y="731.68" type="curve" smooth="yes"/>
      <point x="516.819" y="716.429"/>
      <point x="518.115" y="702.091"/>
      <point x="510.484" y="702.091" type="curve" smooth="yes"/>
      <point x="508.834" y="702.091"/>
      <point x="506.765" y="702.762"/>
      <point x="504.22" y="704.24" type="curve" smooth="yes"/>
      <point x="491.263" y="711.766"/>
      <point x="464.677" y="724.131"/>
      <point x="431.62" y="734.111" type="curve"/>
      <point x="431.62" y="818.83" type="line" smooth="yes"/>
      <point x="431.62" y="828.58"/>
      <point x="426.37" y="833.83"/>
      <point x="416.62" y="833.83" type="curve" smooth="yes"/>
      <point x="348.8" y="833.83" type="line" smooth="yes"/>
      <point x="339.05" y="833.83"/>
      <point x="333.8" y="828.58"/>
      <point x="333.8" y="818.83" type="curve" smooth="yes"/>
      <point x="333.8" y="749.999" type="line"/>
      <point x="178.43" y="749.999"/>
      <point x="80.0101" y="680.679"/>
      <point x="80.0101" y="568.659" type="curve" smooth="yes"/>
      <point x="80.0101" y="492.088"/>
      <point x="113.772" y="397.404"/>
      <point x="333.8" y="329.124" type="curve"/>
      <point x="333.8" y="84.9776" type="line"/>
      <point x="250.346" y="110.541"/>
      <point x="170.806" y="173.016"/>
      <point x="103.75" y="275.479" type="curve"/>
      <point x="99.3286" y="283.069"/>
      <point x="93.617" y="286.929"/>
      <point x="86.9701" y="286.929" type="curve" smooth="yes"/>
      <point x="83.2141" y="286.929"/>
      <point x="79.1594" y="285.696"/>
      <point x="74.8701" y="283.209" type="curve" smooth="yes"/>
      <point x="31.2801" y="257.949" type="line" smooth="yes"/>
      <point x="23.7003" y="253.559"/>
      <point x="20" y="247.952"/>
      <point x="20" y="241.32" type="curve" smooth="yes"/>
      <point x="20" y="237.558"/>
      <point x="21.1909" y="233.466"/>
      <point x="23.5401" y="229.079" type="curve" smooth="yes"/>
      <point x="144.93" y="2.0186" type="line" smooth="yes"/>
      <point x="150.47" y="-8.0014"/>
      <point x="158.15" y="-12.0014"/>
      <point x="169.9" y="-12.0014" type="curve" smooth="yes"/>
      <point x="220.4" y="-12.0014" type="line"/>
      <point x="231.615" y="-12.7153"/>
      <point x="236.348" y="-8.84243"/>
      <point x="236.348" y="-0.746644" type="curve" smooth="yes"/>
      <point x="236.348" y="2.49795"/>
      <point x="235.588" y="6.42084"/>
      <point x="234.18" y="10.9986" type="curve" smooth="yes"/>
      <point x="230.168" y="23.7688"/>
      <point x="232.543" y="32.0581"/>
      <point x="241.412" y="32.0581" type="curve" smooth="yes"/>
      <point x="244.614" y="32.0581"/>
      <point x="248.661" y="30.978"/>
      <point x="253.56" y="28.6386" type="curve" smooth="yes"/>
      <point x="278.49" y="16.4803"/>
      <point x="305.572" y="7.1826"/>
      <point x="333.8" y="0.996698" type="curve"/>
      <point x="333.8" y="-72.1213" type="line" smooth="yes"/>
      <point x="333.8" y="-82.1213"/>
      <point x="339.05" y="-87.1213"/>
      <point x="348.8" y="-87.1213" type="curve" smooth="yes"/>
      <point x="416.62" y="-87.1213" type="line" smooth="yes"/>
      <point x="426.37" y="-87.1213"/>
      <point x="431.62" y="-82.1213"/>
      <point x="431.62" y="-72.1213" type="curve" smooth="yes"/>
      <point x="431.62" y="-7.7851" type="line"/>
      <point x="606.502" y="-2.7886"/>
      <point x="707.71" y="92.5969"/>
      <point x="707.71" y="220.639" type="curve" smooth="yes"/>
      <point x="707.71" y="359.366"/>
      <point x="572.699" y="413.783"/>
      <point x="431.62" y="456.283" type="curve"/>
    </contour>
    <contour>
      <point x="333.8" y="487.819" type="line"/>
      <point x="281.198" y="509.135"/>
      <point x="238.66" y="538.667"/>
      <point x="238.66" y="583.519" type="curve" smooth="yes"/>
      <point x="238.66" y="648.409"/>
      <point x="287.071" y="666.815"/>
      <point x="333.8" y="669.309" type="curve"/>
    </contour>
    <contour>
      <point x="431.62" y="300.951" type="line"/>
      <point x="502.893" y="278.957"/>
      <point x="558.44" y="250.688"/>
      <point x="558.44" y="176.029" type="curve" smooth="yes"/>
      <point x="558.44" y="118.232"/>
      <point x="512.971" y="74.6429"/>
      <point x="431.62" y="71.734" type="curve"/>
    </contour>
  </outline>
</glyph>
<glyph name="ampersand" format="1">
  <advance width="813.337"/>
  <unicode hex="0026"/>
  <outline>
    <contour>
      <point x="500.11" y="500.12" type="line" smooth="yes"/>
      <point x="490.36" y="500.12"/>
      <point x="485.11" y="494.87"/>
      <point x="485.11" y="485.12" type="curve" smooth="yes"/>
      <point x="485.11" y="455" type="line" smooth="yes"/>
      <point x="485.11" y="445.25"/>
      <point x="490.36" y="440"/>
      <point x="500.11" y="440" type="curve" smooth="yes"/>
      <point x="516.173" y="440" type="line"/>
      <point x="549.853" y="438.17"/>
      <point x="574.54" y="415.504"/>
      <point x="574.54" y="381.55" type="curve" smooth="yes"/>
      <point x="574.54" y="354.895"/>
      <point x="555.542" y="292.213"/>
      <point x="519.083" y="230.167" type="curve"/>
      <point x="273.76" y="513.33" type="line" smooth="yes"/>
      <point x="243.455" y="548.312"/>
      <point x="227.37" y="586.799"/>
      <point x="227.37" y="620.067" type="curve" smooth="yes"/>
      <point x="227.37" y="668.111"/>
      <point x="260.915" y="705.27"/>
      <point x="333.62" y="705.27" type="curve" smooth="yes"/>
      <point x="384.49" y="705.27"/>
      <point x="398.81" y="675.41"/>
      <point x="398.81" y="643.24" type="curve" smooth="yes"/>
      <point x="398.81" y="621.95"/>
      <point x="395.08" y="606.61"/>
      <point x="377.61" y="584.36" type="curve" smooth="yes"/>
      <point x="375.172" y="581.257"/>
      <point x="374.044" y="577.536"/>
      <point x="374.044" y="574.122" type="curve" smooth="yes"/>
      <point x="374.044" y="568.604"/>
      <point x="376.992" y="563.89"/>
      <point x="382.12" y="563.89" type="curve"/>
      <point x="384.58" y="564.18" type="line"/>
      <point x="489.46" y="588.79" type="line" smooth="yes"/>
      <point x="504.3" y="592.27"/>
      <point x="510.17" y="597.11"/>
      <point x="514.54" y="607.85" type="curve" smooth="yes"/>
      <point x="521.36" y="624.62"/>
      <point x="525" y="641"/>
      <point x="525" y="656.46" type="curve" smooth="yes"/>
      <point x="525" y="714.25"/>
      <point x="454.78" y="763.76"/>
      <point x="335.49" y="763.76" type="curve" smooth="yes"/>
      <point x="183.408" y="763.76"/>
      <point x="107.331" y="673.766"/>
      <point x="107.331" y="578.022" type="curve" smooth="yes"/>
      <point x="107.331" y="532.953"/>
      <point x="124.188" y="486.61"/>
      <point x="157.91" y="447.78" type="curve" smooth="yes"/>
      <point x="214.358" y="382.779" type="line"/>
      <point x="105.744" y="356.324"/>
      <point x="20" y="298.803"/>
      <point x="20" y="186.45" type="curve" smooth="yes"/>
      <point x="20" y="36.41"/>
      <point x="157.29" y="-15"/>
      <point x="279.67" y="-15" type="curve" smooth="yes"/>
      <point x="365.493" y="-15"/>
      <point x="432.455" y="16.3952"/>
      <point x="487.82" y="68.9614" type="curve"/>
      <point x="545.723" y="11.785"/>
      <point x="617.881" y="-9.31883e-07"/>
      <point x="704.73" y="-9.31883e-07" type="curve" smooth="yes"/>
      <point x="726.19" y="-9.31883e-07"/>
      <point x="746.52" y="2.02"/>
      <point x="765.63" y="5.07" type="curve" smooth="yes"/>
      <point x="774.38" y="6.47"/>
      <point x="779.1" y="10.86"/>
      <point x="779.1" y="18.93" type="curve"/>
      <point x="778.96" y="21.46" type="line"/>
      <point x="775.75" y="51.41" type="line" smooth="yes"/>
      <point x="774.82" y="59.95"/>
      <point x="770.42" y="65.04"/>
      <point x="762.8" y="65.04" type="curve" smooth="yes"/>
      <point x="757.93" y="65.04"/>
      <point x="741.58" y="62.55"/>
      <point x="733.9" y="62.55" type="curve" smooth="yes"/>
      <point x="675.3" y="62.55"/>
      <point x="646.77" y="82.78"/>
      <point x="612.77" y="122.03" type="curve" smooth="yes"/>
      <point x="569.264" y="172.246" type="line"/>
      <point x="600.82" y="223.318"/>
      <point x="628.6" y="282.101"/>
      <point x="655.13" y="345.04" type="curve" smooth="yes"/>
      <point x="675.847" y="394.205"/>
      <point x="719.085" y="437.442"/>
      <point x="771.486" y="440" type="curve"/>
      <point x="778.34" y="440" type="line" smooth="yes"/>
      <point x="788.09" y="440"/>
      <point x="793.34" y="445.25"/>
      <point x="793.34" y="455" type="curve" smooth="yes"/>
      <point x="793.34" y="485.12" type="line" smooth="yes"/>
      <point x="793.34" y="494.87"/>
      <point x="788.09" y="500.12"/>
      <point x="778.34" y="500.12" type="curve" smooth="yes"/>
    </contour>
    <contour>
      <point x="435.776" y="127.81" type="line"/>
      <point x="396.736" y="94.5473"/>
      <point x="349.851" y="71.93"/>
      <point x="295.62" y="71.93" type="curve" smooth="yes"/>
      <point x="229.68" y="71.93"/>
      <point x="164.82" y="105.62"/>
      <point x="164.82" y="192.59" type="curve" smooth="yes"/>
      <point x="164.82" y="261.316"/>
      <point x="212.974" y="303.722"/>
      <point x="263.517" y="326.171" type="curve"/>
    </contour>
  </outline>
</glyph>
<glyph name="quotesingle" format="1">
  <advance width="214.946"/>
  <unicode hex="0027"/>
  <outline>
    <contour>
      <point x="58.58" y="779.85" type="line" smooth="yes"/>
      <point x="49.3199" y="779.85"/>
      <point x="44.2378" y="775.086"/>
      <point x="44.2378" y="766.569" type="curve" smooth="yes"/>
      <point x="44.2378" y="765.778"/>
      <point x="44.2816" y="764.955"/>
      <point x="44.37" y="764.1" type="curve" smooth="yes"/>
      <point x="67.87" y="536.59" type="line" smooth="yes"/>
      <point x="68.83" y="527.23"/>
      <point x="74.17" y="522.41"/>
      <point x="83.59" y="522.41" type="curve" smooth="yes"/>
      <point x="128.11" y="522.41" type="line" smooth="yes"/>
      <point x="137.53" y="522.41"/>
      <point x="142.87" y="527.23"/>
      <point x="143.84" y="536.59" type="curve" smooth="yes"/>
      <point x="167.33" y="764.1" type="line" smooth="yes"/>
      <point x="168.37" y="774.16"/>
      <point x="163.24" y="779.85"/>
      <point x="153.12" y="779.85" type="curve" smooth="yes"/>
    </contour>
  </outline>
</glyph>
<glyph name="parenleft" format="1">
  <advance width="479.834"/>
  <unicode hex="0028"/>
  <outline>
    <contour>
      <point x="363.56" y="-109" type="line" smooth="yes"/>
      <point x="360.261" y="-114.066"/>
      <point x="356.256" y="-116.726"/>
      <point x="351.662" y="-116.726" type="curve" smooth="yes"/>
      <point x="349.001" y="-116.726"/>
      <point x="346.143" y="-115.834"/>
      <point x="343.11" y="-114" type="curve"/>
      <point x="183.28" y="-31"/>
      <point x="80.07" y="154.86"/>
      <point x="80" y="331.63" type="curve"/>
      <point x="80" y="508.37"/>
      <point x="181.44" y="696.23"/>
      <point x="341.67" y="779.81" type="curve" smooth="yes"/>
      <point x="344.546" y="781.323"/>
      <point x="347.265" y="782.066"/>
      <point x="349.807" y="782.066" type="curve" smooth="yes"/>
      <point x="354.573" y="782.066"/>
      <point x="358.715" y="779.451"/>
      <point x="362.1" y="774.39" type="curve" smooth="yes"/>
      <point x="380.62" y="746.72" type="line" smooth="yes"/>
      <point x="382.779" y="743.496"/>
      <point x="383.832" y="740.458"/>
      <point x="383.832" y="737.594" type="curve" smooth="yes"/>
      <point x="383.832" y="733.361"/>
      <point x="381.532" y="729.505"/>
      <point x="377.1" y="725.98" type="curve" smooth="yes"/>
      <point x="289.86" y="657.08"/>
      <point x="207.77" y="481.9"/>
      <point x="207.77" y="331.64" type="curve" smooth="yes"/>
      <point x="207.83" y="181.4"/>
      <point x="290.15" y="6.00002"/>
      <point x="377.09" y="-63" type="curve" smooth="yes"/>
      <point x="381.514" y="-66.5725"/>
      <point x="383.807" y="-70.4996"/>
      <point x="383.807" y="-74.5701" type="curve" smooth="yes"/>
      <point x="383.807" y="-77.3359"/>
      <point x="382.749" y="-80.168"/>
      <point x="380.58" y="-83" type="curve"/>
    </contour>
  </outline>
</glyph>
<glyph name="parenright" format="1">
  <advance width="480.142"/>
  <unicode hex="0029"/>
  <outline>
    <contour>
      <point x="116.59" y="-109" type="line" smooth="yes"/>
      <point x="119.883" y="-114.066"/>
      <point x="123.886" y="-116.726"/>
      <point x="128.479" y="-116.726" type="curve" smooth="yes"/>
      <point x="131.139" y="-116.726"/>
      <point x="133.997" y="-115.834"/>
      <point x="137.03" y="-114" type="curve"/>
      <point x="296.86" y="-31"/>
      <point x="400.08" y="154.86"/>
      <point x="400.14" y="331.63" type="curve" smooth="yes"/>
      <point x="400.14" y="508.37"/>
      <point x="298.7" y="696.23"/>
      <point x="138.48" y="779.81" type="curve" smooth="yes"/>
      <point x="135.6" y="781.323"/>
      <point x="132.879" y="782.066"/>
      <point x="130.336" y="782.066" type="curve" smooth="yes"/>
      <point x="125.567" y="782.066"/>
      <point x="121.425" y="779.451"/>
      <point x="118.04" y="774.39" type="curve" smooth="yes"/>
      <point x="99.52" y="746.72" type="line" smooth="yes"/>
      <point x="97.361" y="743.496"/>
      <point x="96.3078" y="740.458"/>
      <point x="96.3078" y="737.594" type="curve" smooth="yes"/>
      <point x="96.3078" y="733.361"/>
      <point x="98.6084" y="729.505"/>
      <point x="103.04" y="725.98" type="curve" smooth="yes"/>
      <point x="190.28" y="657.08"/>
      <point x="272.37" y="481.9"/>
      <point x="272.37" y="331.64" type="curve" smooth="yes"/>
      <point x="272.31" y="181.4"/>
      <point x="189.99" y="6.00002"/>
      <point x="103.05" y="-63" type="curve" smooth="yes"/>
      <point x="98.6301" y="-66.574"/>
      <point x="96.3356" y="-70.5029"/>
      <point x="96.3356" y="-74.5752" type="curve" smooth="yes"/>
      <point x="96.3356" y="-77.3394"/>
      <point x="97.3928" y="-80.1697"/>
      <point x="99.56" y="-83" type="curve"/>
    </contour>
  </outline>
</glyph>
<glyph name="asterisk" format="1">
  <advance width="600"/>
  <unicode hex="002A"/>
  <outline>
    <contour>
      <point x="435.83" y="499.57" type="line"/>
      <point x="403.806" y="510.036"/>
      <point x="380.02" y="517.872"/>
      <point x="360.595" y="525.315" type="curve"/>
      <point x="380.018" y="532.759"/>
      <point x="403.8" y="540.594"/>
      <point x="435.82" y="551.06" type="curve"/>
      <point x="526.44" y="586" type="line" smooth="yes"/>
      <point x="532.107" y="588.179"/>
      <point x="534.737" y="592.313"/>
      <point x="534.737" y="597.162" type="curve" smooth="yes"/>
      <point x="534.737" y="600.101"/>
      <point x="533.771" y="603.302"/>
      <point x="531.93" y="606.49" type="curve" smooth="yes"/>
      <point x="488.61" y="681.53" type="line" smooth="yes"/>
      <point x="485.472" y="686.957"/>
      <point x="481.031" y="690.205"/>
      <point x="476.246" y="690.205" type="curve" smooth="yes"/>
      <point x="473.589" y="690.205"/>
      <point x="470.826" y="689.205"/>
      <point x="468.12" y="687.02" type="curve" smooth="yes"/>
      <point x="392.55" y="626.01" type="line"/>
      <point x="367.476" y="603.511"/>
      <point x="348.799" y="586.832"/>
      <point x="332.641" y="573.732" type="curve"/>
      <point x="335.906" y="594.277"/>
      <point x="341.013" y="618.793"/>
      <point x="347.96" y="651.76" type="curve"/>
      <point x="363.01" y="747.7" type="line" smooth="yes"/>
      <point x="364.52" y="757.33"/>
      <point x="357.76" y="762.7"/>
      <point x="348.01" y="762.7" type="curve" smooth="yes"/>
      <point x="261.36" y="762.7" type="line" smooth="yes"/>
      <point x="252.528" y="762.7"/>
      <point x="246.149" y="758.293"/>
      <point x="246.149" y="750.305" type="curve" smooth="yes"/>
      <point x="246.149" y="749.475"/>
      <point x="246.218" y="748.606"/>
      <point x="246.36" y="747.7" type="curve" smooth="yes"/>
      <point x="261.41" y="651.76" type="line"/>
      <point x="268.357" y="618.793"/>
      <point x="273.464" y="594.277"/>
      <point x="276.73" y="573.732" type="curve"/>
      <point x="260.571" y="586.832"/>
      <point x="241.894" y="603.512"/>
      <point x="216.82" y="626.01" type="curve"/>
      <point x="141.24" y="687.02" type="line" smooth="yes"/>
      <point x="138.535" y="689.208"/>
      <point x="135.773" y="690.21"/>
      <point x="133.118" y="690.21" type="curve" smooth="yes"/>
      <point x="128.335" y="690.21"/>
      <point x="123.898" y="686.958"/>
      <point x="120.76" y="681.53" type="curve" smooth="yes"/>
      <point x="77.4401" y="606.49" type="line" smooth="yes"/>
      <point x="75.5972" y="603.299"/>
      <point x="74.6299" y="600.096"/>
      <point x="74.6299" y="597.157" type="curve" smooth="yes"/>
      <point x="74.6299" y="592.313"/>
      <point x="77.2567" y="588.185"/>
      <point x="82.9201" y="586" type="curve" smooth="yes"/>
      <point x="173.55" y="551.06" type="line"/>
      <point x="205.571" y="540.594"/>
      <point x="229.354" y="532.758"/>
      <point x="248.777" y="525.315" type="curve"/>
      <point x="229.354" y="517.871"/>
      <point x="205.57" y="510.036"/>
      <point x="173.55" y="499.57" type="curve"/>
      <point x="82.92" y="464.62" type="line" smooth="yes"/>
      <point x="77.2566" y="462.442"/>
      <point x="74.6298" y="458.312"/>
      <point x="74.6298" y="453.468" type="curve" smooth="yes"/>
      <point x="74.6298" y="450.529"/>
      <point x="75.5971" y="447.327"/>
      <point x="77.44" y="444.14" type="curve" smooth="yes"/>
      <point x="120.76" y="369.1" type="line" smooth="yes"/>
      <point x="123.898" y="363.666"/>
      <point x="128.336" y="360.415"/>
      <point x="133.119" y="360.415" type="curve" smooth="yes"/>
      <point x="135.774" y="360.415"/>
      <point x="138.535" y="361.416"/>
      <point x="141.24" y="363.6" type="curve" smooth="yes"/>
      <point x="216.82" y="424.62" type="line"/>
      <point x="241.895" y="447.117"/>
      <point x="260.572" y="463.795"/>
      <point x="276.73" y="476.895" type="curve"/>
      <point x="273.464" y="456.351"/>
      <point x="268.358" y="431.835"/>
      <point x="261.41" y="398.87" type="curve"/>
      <point x="246.36" y="302.91" type="line" smooth="yes"/>
      <point x="244.85" y="293.28"/>
      <point x="251.61" y="287.92"/>
      <point x="261.36" y="287.92" type="curve" smooth="yes"/>
      <point x="348.01" y="287.92" type="line" smooth="yes"/>
      <point x="356.842" y="287.92"/>
      <point x="363.221" y="292.318"/>
      <point x="363.221" y="300.305" type="curve" smooth="yes"/>
      <point x="363.221" y="301.135"/>
      <point x="363.152" y="302.004"/>
      <point x="363.01" y="302.91" type="curve" smooth="yes"/>
      <point x="347.96" y="398.87" type="line"/>
      <point x="341.012" y="431.835"/>
      <point x="335.906" y="456.351"/>
      <point x="332.64" y="476.895" type="curve"/>
      <point x="348.798" y="463.795"/>
      <point x="367.475" y="447.117"/>
      <point x="392.55" y="424.62" type="curve"/>
      <point x="468.12" y="363.61" type="line" smooth="yes"/>
      <point x="470.827" y="361.421"/>
      <point x="473.592" y="360.418"/>
      <point x="476.25" y="360.418" type="curve" smooth="yes"/>
      <point x="481.034" y="360.418"/>
      <point x="485.473" y="363.668"/>
      <point x="488.61" y="369.1" type="curve" smooth="yes"/>
      <point x="531.93" y="444.14" type="line" smooth="yes"/>
      <point x="533.771" y="447.325"/>
      <point x="534.737" y="450.523"/>
      <point x="534.737" y="453.461" type="curve" smooth="yes"/>
      <point x="534.737" y="458.308"/>
      <point x="532.107" y="462.444"/>
      <point x="526.44" y="464.63" type="curve" smooth="yes"/>
    </contour>
  </outline>
</glyph>
<glyph name="plus" format="1">
  <advance width="600"/>
  <unicode hex="002B"/>
  <outline>
    <contour>
      <point x="358.32" y="322.34" type="line"/>
      <point x="358.32" y="511.42" type="line" smooth="yes"/>
      <point x="358.32" y="521.17"/>
      <point x="353.07" y="526.42"/>
      <point x="343.32" y="526.42" type="curve" smooth="yes"/>
      <point x="256.68" y="526.42" type="line" smooth="yes"/>
      <point x="246.93" y="526.42"/>
      <point x="241.68" y="521.17"/>
      <point x="241.68" y="511.42" type="curve" smooth="yes"/>
      <point x="241.68" y="322.34" type="line"/>
      <point x="52.61" y="322.34" type="line" smooth="yes"/>
      <point x="42.86" y="322.34"/>
      <point x="37.61" y="317.09"/>
      <point x="37.61" y="307.34" type="curve" smooth="yes"/>
      <point x="37.61" y="220.7" type="line" smooth="yes"/>
      <point x="37.61" y="210.95"/>
      <point x="42.86" y="205.7"/>
      <point x="52.61" y="205.7" type="curve" smooth="yes"/>
      <point x="241.68" y="205.7" type="line"/>
      <point x="241.68" y="16.63" type="line" smooth="yes"/>
      <point x="241.68" y="6.88"/>
      <point x="246.93" y="1.63"/>
      <point x="256.68" y="1.63" type="curve" smooth="yes"/>
      <point x="343.32" y="1.63" type="line" smooth="yes"/>
      <point x="353.07" y="1.63"/>
      <point x="358.32" y="6.88"/>
      <point x="358.32" y="16.63" type="curve" smooth="yes"/>
      <point x="358.32" y="205.7" type="line"/>
      <point x="547.39" y="205.7" type="line" smooth="yes"/>
      <point x="557.14" y="205.7"/>
      <point x="562.39" y="210.95"/>
      <point x="562.39" y="220.7" type="curve" smooth="yes"/>
      <point x="562.39" y="307.34" type="line" smooth="yes"/>
      <point x="562.39" y="317.09"/>
      <point x="557.14" y="322.34"/>
      <point x="547.39" y="322.34" type="curve" smooth="yes"/>
    </contour>
  </outline>
</glyph>
<glyph name="hyphen" format="1">
  <advance width="521.335"/>
  <unicode hex="002D"/>
  <outline>
    <contour>
      <point x="22.61" y="220.7" type="line" smooth="yes"/>
      <point x="22.61" y="210.95"/>
      <point x="27.86" y="205.7"/>
      <point x="37.61" y="205.7" type="curve" smooth="yes"/>
      <point x="482.39" y="205.7" type="line" smooth="yes"/>
      <point x="492.14" y="205.7"/>
      <point x="497.39" y="210.95"/>
      <point x="497.39" y="220.7" type="curve" smooth="yes"/>
      <point x="497.39" y="307.34" type="line" smooth="yes"/>
      <point x="497.39" y="317.09"/>
      <point x="492.14" y="322.34"/>
      <point x="482.39" y="322.34" type="curve" smooth="yes"/>
      <point x="37.61" y="322.34" type="line" smooth="yes"/>
      <point x="27.86" y="322.34"/>
      <point x="22.61" y="317.09"/>
      <point x="22.61" y="307.34" type="curve" smooth="yes"/>
    </contour>
  </outline>
</glyph>
<glyph name="zero" format="1">
  <advance width="600"/>
  <unicode hex="0030"/>
  <outline>
    <contour>
      <point x="149.73" y="550.19"/>
      <point x="26.91" y="422.79"/>
      <point x="26.33" y="266.21" type="curve" smooth="yes"/>
      <point x="26.33" y="109.37"/>
      <point x="149.66" y="-18"/>
      <point x="301.95" y="-18" type="curve" smooth="yes"/>
      <point x="454.18" y="-18"/>
      <point x="577.58" y="109.37"/>
      <point x="577.58" y="266.21" type="curve" smooth="yes"/>
      <point x="577.58" y="423.05"/>
      <point x="454.18" y="550.19"/>
      <point x="301.95" y="550.19" type="curve" smooth="yes"/>
    </contour>
    <contour>
      <point x="393.47" y="474.17"/>
      <point x="436.35" y="369.65"/>
      <point x="436.35" y="268.19" type="curve" smooth="yes"/>
      <point x="436.35" y="166.72"/>
      <point x="396.38" y="52.35"/>
      <point x="304.26" y="52.35" type="curve" smooth="yes"/>
      <point x="212.09" y="52.19"/>
      <point x="166.25" y="162.25"/>
      <point x="166.25" y="263.71" type="curve" smooth="yes"/>
      <point x="166.25" y="365.18"/>
      <point x="209.24" y="474.17"/>
      <point x="301.35" y="474.17" type="curve" smooth="yes"/>
    </contour>
  </outline>
</glyph>
<glyph name="two" format="1">
  <advance width="531.344"/>
  <unicode hex="0032"/>
  <outline>
    <contour>
      <point x="482.21" y="156.83" type="line" smooth="yes"/>
      <point x="479.168" y="158.595"/>
      <point x="476.292" y="159.469"/>
      <point x="473.628" y="159.469" type="curve" smooth="yes"/>
      <point x="468.911" y="159.469"/>
      <point x="464.858" y="156.728"/>
      <point x="461.72" y="151.34" type="curve" smooth="yes"/>
      <point x="458.6" y="145.97" type="line" smooth="yes"/>
      <point x="423.35" y="85.43"/>
      <point x="303.18" y="87.17"/>
      <point x="234.33" y="85.27" type="curve" smooth="yes"/>
      <point x="140.95" y="82.69" type="line"/>
      <point x="231.957" y="201.343"/>
      <point x="452.803" y="245.512"/>
      <point x="452.803" y="398.559" type="curve" smooth="yes"/>
      <point x="452.803" y="497.934"/>
      <point x="378.569" y="545.78"/>
      <point x="242.9" y="545.78" type="curve" smooth="yes"/>
      <point x="119.502" y="545.78"/>
      <point x="36.4799" y="477.334"/>
      <point x="36.4799" y="405.675" type="curve" smooth="yes"/>
      <point x="36.4799" y="393.729"/>
      <point x="38.7874" y="381.693"/>
      <point x="43.6" y="369.87" type="curve" smooth="yes"/>
      <point x="47.97" y="359.13"/>
      <point x="53.81" y="354.16"/>
      <point x="68.68" y="350.81" type="curve" smooth="yes"/>
      <point x="173.57" y="327.21" type="line" smooth="yes"/>
      <point x="180.301" y="325.689"/>
      <point x="183.388" y="330.264"/>
      <point x="183.388" y="336.379" type="curve" smooth="yes"/>
      <point x="183.388" y="339.829"/>
      <point x="182.405" y="343.769"/>
      <point x="180.54" y="347.38" type="curve" smooth="yes"/>
      <point x="165.147" y="377.16"/>
      <point x="158.836" y="401.231"/>
      <point x="158.836" y="420.47" type="curve" smooth="yes"/>
      <point x="158.836" y="470.636"/>
      <point x="201.746" y="487.95"/>
      <point x="238.45" y="487.95" type="curve" smooth="yes"/>
      <point x="282.25" y="487.95"/>
      <point x="308.77" y="458.13"/>
      <point x="308.77" y="399.62" type="curve" smooth="yes"/>
      <point x="308.77" y="277.85"/>
      <point x="93.38" y="199.97"/>
      <point x="23.46" y="58.76" type="curve" smooth="yes"/>
      <point x="21.95" y="55.71"/>
      <point x="20" y="50.2"/>
      <point x="20" y="45.57" type="curve" smooth="yes"/>
      <point x="20" y="15.03" type="line" smooth="yes"/>
      <point x="20" y="5.28"/>
      <point x="25.25" y="0.0299965"/>
      <point x="35" y="0.0299965" type="curve" smooth="yes"/>
      <point x="399.79" y="0.0299965" type="line" smooth="yes"/>
      <point x="407.01" y="0.0299965"/>
      <point x="412.75" y="-3.49455e-06"/>
      <point x="418.39" y="-5" type="curve" smooth="yes"/>
      <point x="423.8" y="-10" type="line"/>
      <point x="426.515" y="-12.1753"/>
      <point x="429.326" y="-13.1676"/>
      <point x="432.033" y="-13.1676" type="curve" smooth="yes"/>
      <point x="436.793" y="-13.1676"/>
      <point x="441.237" y="-10.0997"/>
      <point x="444.29" y="-5" type="curve" smooth="yes"/>
      <point x="518.64" y="118.41" type="line" smooth="yes"/>
      <point x="520.456" y="121.422"/>
      <point x="521.345" y="124.29"/>
      <point x="521.345" y="126.955" type="curve" smooth="yes"/>
      <point x="521.345" y="131.687"/>
      <point x="518.543" y="135.778"/>
      <point x="513.15" y="138.9" type="curve" smooth="yes"/>
    </contour>
  </outline>
</glyph>
<glyph name="five" format="1">
  <advance width="551.963"/>
  <unicode hex="0035"/>
  <outline>
    <contour>
      <point x="198.24" y="460.26" type="line"/>
      <point x="411.3" y="460.26" type="line" smooth="yes"/>
      <point x="418.52" y="460.26"/>
      <point x="424.26" y="460.23"/>
      <point x="429.9" y="455.23" type="curve" smooth="yes"/>
      <point x="435.31" y="450.23" type="line"/>
      <point x="438.024" y="448.056"/>
      <point x="440.828" y="447.065"/>
      <point x="443.53" y="447.065" type="curve" smooth="yes"/>
      <point x="448.287" y="447.065"/>
      <point x="452.726" y="450.135"/>
      <point x="455.8" y="455.23" type="curve" smooth="yes"/>
      <point x="519.26" y="560.56" type="line" smooth="yes"/>
      <point x="521.076" y="563.576"/>
      <point x="521.965" y="566.445"/>
      <point x="521.965" y="569.11" type="curve" smooth="yes"/>
      <point x="521.965" y="573.841"/>
      <point x="519.163" y="577.928"/>
      <point x="513.77" y="581.05" type="curve" smooth="yes"/>
      <point x="482.83" y="598.98" type="line" smooth="yes"/>
      <point x="479.788" y="600.745"/>
      <point x="476.912" y="601.619"/>
      <point x="474.248" y="601.619" type="curve" smooth="yes"/>
      <point x="469.531" y="601.619"/>
      <point x="465.478" y="598.878"/>
      <point x="462.34" y="593.49" type="curve" smooth="yes"/>
      <point x="459.22" y="588.12" type="line" smooth="yes"/>
      <point x="436.26" y="548.7"/>
      <point x="314.7" y="546.27"/>
      <point x="265.84" y="545.5" type="curve" smooth="yes"/>
      <point x="118.54" y="543.19" type="line" smooth="yes"/>
      <point x="109.45" y="543.04"/>
      <point x="104.12" y="538.52"/>
      <point x="102.41" y="529.59" type="curve" smooth="yes"/>
      <point x="47.9" y="245.34" type="line" smooth="yes"/>
      <point x="46.0812" y="235.85"/>
      <point x="50.0411" y="230.338"/>
      <point x="57.9228" y="230.338" type="curve" smooth="yes"/>
      <point x="59.4013" y="230.338"/>
      <point x="61.0178" y="230.532"/>
      <point x="62.76" y="230.93" type="curve" smooth="yes"/>
      <point x="85.3268" y="236.068"/>
      <point x="116.212" y="240.872"/>
      <point x="148.814" y="240.872" type="curve" smooth="yes"/>
      <point x="230.226" y="240.872"/>
      <point x="322.34" y="210.915"/>
      <point x="322.34" y="81.4" type="curve" smooth="yes"/>
      <point x="322.34" y="-63.94"/>
      <point x="230.517" y="-121.077"/>
      <point x="117.272" y="-121.077" type="curve" smooth="yes"/>
      <point x="89.1747" y="-121.077"/>
      <point x="59.759" y="-117.56"/>
      <point x="30.1" y="-111" type="curve" smooth="yes"/>
      <point x="20.5691" y="-109.186"/>
      <point x="15.002" y="-114.774"/>
      <point x="15.002" y="-123.288" type="curve" smooth="yes"/>
      <point x="15.002" y="-124.163"/>
      <point x="15.0608" y="-125.068"/>
      <point x="15.18" y="-126" type="curve" smooth="yes"/>
      <point x="20.37" y="-169" type="line" smooth="yes"/>
      <point x="21.49" y="-178"/>
      <point x="26.96" y="-182"/>
      <point x="36.28" y="-183" type="curve" smooth="yes"/>
      <point x="67.446" y="-186.921"/>
      <point x="98.413" y="-188.923"/>
      <point x="128.665" y="-188.923" type="curve" smooth="yes"/>
      <point x="322.134" y="-188.923"/>
      <point x="486.36" y="-107.063"/>
      <point x="486.36" y="78" type="curve" smooth="yes"/>
      <point x="486.36" y="227.763"/>
      <point x="366.95" y="307.143"/>
      <point x="221.786" y="307.143" type="curve" smooth="yes"/>
      <point x="202.917" y="307.143"/>
      <point x="183.613" y="305.802"/>
      <point x="164.08" y="303.1" type="curve"/>
    </contour>
  </outline>
</glyph>
<glyph name="less" format="1">
  <advance width="600"/>
  <unicode hex="003C"/>
  <outline>
    <contour>
      <point x="31.37" y="276.9" type="line" smooth="yes"/>
      <point x="25.76" y="279.73"/>
      <point x="22.955" y="283.432"/>
      <point x="22.955" y="287.135" type="curve" smooth="yes"/>
      <point x="22.955" y="290.837"/>
      <point x="25.76" y="294.54"/>
      <point x="31.37" y="297.37" type="curve" smooth="yes"/>
      <point x="562.07" y="565.3" type="line" smooth="yes"/>
      <point x="564.984" y="566.77"/>
      <point x="567.657" y="567.476"/>
      <point x="569.996" y="567.476" type="curve" smooth="yes"/>
      <point x="576.029" y="567.476"/>
      <point x="579.84" y="562.779"/>
      <point x="579.84" y="554.37" type="curve" smooth="yes"/>
      <point x="579.84" y="485.63" type="line" smooth="yes"/>
      <point x="579.84" y="477.22"/>
      <point x="576.47" y="471.75"/>
      <point x="568.97" y="467.96" type="curve" smooth="yes"/>
      <point x="210.79" y="287.13" type="line"/>
      <point x="568.97" y="106.31" type="line" smooth="yes"/>
      <point x="576.47" y="102.52"/>
      <point x="579.84" y="97.05"/>
      <point x="579.84" y="88.64" type="curve" smooth="yes"/>
      <point x="579.84" y="19.9" type="line" smooth="yes"/>
      <point x="579.84" y="11.4856"/>
      <point x="576.031" y="6.79242"/>
      <point x="570.001" y="6.79242" type="curve" smooth="yes"/>
      <point x="567.661" y="6.79242"/>
      <point x="564.986" y="7.49934"/>
      <point x="562.07" y="8.97" type="curve" smooth="yes"/>
    </contour>
  </outline>
</glyph>
<glyph name="C" format="1">
  <advance width="748.062"/>
  <unicode hex="0043"/>
  <outline>
    <contour>
      <point x="694.64" y="255.98" type="line"/>
      <point x="690.173" y="258.558"/>
      <point x="685.906" y="259.856"/>
      <point x="681.987" y="259.856" type="curve" smooth="yes"/>
      <point x="674.809" y="259.856"/>
      <point x="668.796" y="255.5"/>
      <point x="664.85" y="246.67" type="curve" smooth="yes"/>
      <point x="632.69" y="174.66"/>
      <point x="571.37" y="83.91"/>
      <point x="422.72" y="83.91" type="curve" smooth="yes"/>
      <point x="273.97" y="83.91"/>
      <point x="205.84" y="216.77"/>
      <point x="205.84" y="410.58" type="curve" smooth="yes"/>
      <point x="205.84" y="522.6"/>
      <point x="253.33" y="682.58"/>
      <point x="395.6" y="682.58" type="curve" smooth="yes"/>
      <point x="509.969" y="682.58"/>
      <point x="542.862" y="593.145"/>
      <point x="542.862" y="522.318" type="curve" smooth="yes"/>
      <point x="542.862" y="516.168"/>
      <point x="542.614" y="510.159"/>
      <point x="542.15" y="504.36" type="curve"/>
      <point x="540.39" y="489.12" type="line"/>
      <point x="539.39" y="482.82"/>
      <point x="543.81" y="478.81"/>
      <point x="551.92" y="478.81" type="curve" smooth="yes"/>
      <point x="555.46" y="478.81"/>
      <point x="559.71" y="479.58"/>
      <point x="564.51" y="481.25" type="curve" smooth="yes"/>
      <point x="692.57" y="525.94" type="line"/>
      <point x="703.77" y="528.92"/>
      <point x="709.92" y="535.62"/>
      <point x="709.92" y="545.56" type="curve"/>
      <point x="709.18" y="551.86" type="line"/>
      <point x="676.59" y="699.48"/>
      <point x="536.5" y="761.22"/>
      <point x="403.53" y="761.22" type="curve" smooth="yes"/>
      <point x="116.22" y="761.22"/>
      <point x="35.28" y="533.5"/>
      <point x="35.28" y="367.02" type="curve" smooth="yes"/>
      <point x="35.28" y="151.79"/>
      <point x="166.67" y="-10"/>
      <point x="407.34" y="-10" type="curve" smooth="yes"/>
      <point x="600.27" y="-10"/>
      <point x="698.95" y="115.36"/>
      <point x="741.56" y="219.36" type="curve" smooth="yes"/>
      <point x="746.65" y="231.79"/>
      <point x="739.12" y="235.43"/>
      <point x="730.03" y="239.63" type="curve" smooth="yes"/>
    </contour>
    <contour>
      <point x="384" y="750" type="move" name="top"/>
    </contour>
    <contour>
      <point x="384" y="0" type="move" name="bottom"/>
    </contour>
  </outline>
</glyph>
<glyph name="F" format="1">
  <advance width="694.218"/>
  <unicode hex="0046"/>
  <outline>
    <contour>
      <point x="591.78" y="755.43" type="line" smooth="yes"/>
      <point x="588.682" y="760.53"/>
      <point x="584.097" y="763.598"/>
      <point x="579.177" y="763.598" type="curve" smooth="yes"/>
      <point x="576.379" y="763.598"/>
      <point x="573.472" y="762.605"/>
      <point x="570.67" y="760.43" type="curve"/>
      <point x="565.1" y="755.43" type="line" smooth="yes"/>
      <point x="559.29" y="750.03"/>
      <point x="553.37" y="750"/>
      <point x="545.94" y="750" type="curve" smooth="yes"/>
      <point x="45" y="750" type="line" smooth="yes"/>
      <point x="35.25" y="750"/>
      <point x="30" y="744.51"/>
      <point x="30" y="734.76" type="curve" smooth="yes"/>
      <point x="30" y="704.76" type="line" smooth="yes"/>
      <point x="30" y="695.01"/>
      <point x="35.25" y="689.76"/>
      <point x="45" y="689.76" type="curve" smooth="yes"/>
      <point x="46" y="689.76" type="line" smooth="yes"/>
      <point x="100.89" y="689.76"/>
      <point x="118.55" y="649.03"/>
      <point x="118.55" y="594.68" type="curve" smooth="yes"/>
      <point x="118.55" y="155.08" type="line" smooth="yes"/>
      <point x="118.55" y="102.439"/>
      <point x="101.983" y="62.5745"/>
      <point x="51.0671" y="60.12" type="curve"/>
      <point x="45.09" y="60.12" type="line" smooth="yes"/>
      <point x="35.34" y="60.12"/>
      <point x="30.09" y="54.87"/>
      <point x="30.09" y="45.12" type="curve" smooth="yes"/>
      <point x="30.09" y="15" type="line" smooth="yes"/>
      <point x="30.09" y="5.25"/>
      <point x="35.34" y="1.36442e-06"/>
      <point x="45.09" y="1.36442e-06" type="curve" smooth="yes"/>
      <point x="352.56" y="1.36442e-06" type="line" smooth="yes"/>
      <point x="362.31" y="1.36442e-06"/>
      <point x="367.56" y="5.25"/>
      <point x="367.56" y="15" type="curve" smooth="yes"/>
      <point x="367.56" y="45.12" type="line" smooth="yes"/>
      <point x="367.56" y="54.87"/>
      <point x="362.31" y="60.12"/>
      <point x="352.56" y="60.12" type="curve" smooth="yes"/>
      <point x="345.833" y="60.12" type="line"/>
      <point x="294.917" y="62.5745"/>
      <point x="278.35" y="102.439"/>
      <point x="278.35" y="155.08" type="curve" smooth="yes"/>
      <point x="278.35" y="354.53" type="line"/>
      <point x="365.87" y="354.53" type="line" smooth="yes"/>
      <point x="418.444" y="354.53"/>
      <point x="458.273" y="338.005"/>
      <point x="460.82" y="287.234" type="curve"/>
      <point x="460.82" y="281.06" type="line" smooth="yes"/>
      <point x="460.82" y="271.31"/>
      <point x="466.07" y="266.06"/>
      <point x="475.82" y="266.06" type="curve" smooth="yes"/>
      <point x="505.95" y="266.06" type="line" smooth="yes"/>
      <point x="515.7" y="266.06"/>
      <point x="520.95" y="271.31"/>
      <point x="520.95" y="281.06" type="curve" smooth="yes"/>
      <point x="520.95" y="508.54" type="line" smooth="yes"/>
      <point x="520.95" y="518.29"/>
      <point x="515.7" y="523.54"/>
      <point x="505.95" y="523.54" type="curve" smooth="yes"/>
      <point x="475.82" y="523.54" type="line" smooth="yes"/>
      <point x="466.07" y="523.54"/>
      <point x="460.82" y="518.29"/>
      <point x="460.82" y="508.54" type="curve" smooth="yes"/>
      <point x="460.82" y="501.616" type="line"/>
      <point x="458.273" y="450.845"/>
      <point x="418.444" y="434.33"/>
      <point x="365.87" y="434.33" type="curve" smooth="yes"/>
      <point x="272.35" y="434.33" type="line"/>
      <point x="272.35" y="678.94" type="line"/>
      <point x="420.3" y="678.94" type="line" smooth="yes"/>
      <point x="501.45" y="678.94"/>
      <point x="561.88" y="651.47"/>
      <point x="599.62" y="586.64" type="curve" smooth="yes"/>
      <point x="602.84" y="581.11" type="line" smooth="yes"/>
      <point x="606.074" y="575.563"/>
      <point x="610.246" y="572.74"/>
      <point x="615.105" y="572.74" type="curve" smooth="yes"/>
      <point x="617.85" y="572.74"/>
      <point x="620.813" y="573.641"/>
      <point x="623.95" y="575.46" type="curve" smooth="yes"/>
      <point x="665.82" y="597.93" type="line" smooth="yes"/>
      <point x="671.376" y="601.146"/>
      <point x="674.222" y="605.334"/>
      <point x="674.222" y="610.203" type="curve" smooth="yes"/>
      <point x="674.222" y="612.95"/>
      <point x="673.316" y="615.913"/>
      <point x="671.48" y="619.04" type="curve" smooth="yes"/>
    </contour>
  </outline>
</glyph>
<glyph name="G" format="1">
  <advance width="771.896"/>
  <unicode hex="0047"/>
  <outline>
    <contour>
      <point x="422.42" y="371.95" type="line" smooth="yes"/>
      <point x="412.67" y="371.95"/>
      <point x="407.42" y="366.7"/>
      <point x="407.42" y="356.95" type="curve" smooth="yes"/>
      <point x="407.42" y="326.82" type="line" smooth="yes"/>
      <point x="407.42" y="317.07"/>
      <point x="412.67" y="311.82"/>
      <point x="422.42" y="311.82" type="curve" smooth="yes"/>
      <point x="429.41" y="311.82" type="line"/>
      <point x="480.98" y="309.59"/>
      <point x="535.88" y="309.91"/>
      <point x="535.88" y="196.87" type="curve" smooth="yes"/>
      <point x="535.88" y="144.98" type="line" smooth="yes"/>
      <point x="535.88" y="98.24"/>
      <point x="473.22" y="83.91"/>
      <point x="422.45" y="83.91" type="curve" smooth="yes"/>
      <point x="273.69" y="83.91"/>
      <point x="205.57" y="255.88"/>
      <point x="205.57" y="410.58" type="curve" smooth="yes"/>
      <point x="205.57" y="522.6"/>
      <point x="253.05" y="682.58"/>
      <point x="395.33" y="682.58" type="curve" smooth="yes"/>
      <point x="509.704" y="682.58"/>
      <point x="542.59" y="593.124"/>
      <point x="542.59" y="522.293" type="curve" smooth="yes"/>
      <point x="542.59" y="516.152"/>
      <point x="542.343" y="510.151"/>
      <point x="541.88" y="504.36" type="curve"/>
      <point x="540.12" y="489.12" type="line"/>
      <point x="539.11" y="482.82"/>
      <point x="543.54" y="478.81"/>
      <point x="551.65" y="478.81" type="curve" smooth="yes"/>
      <point x="555.19" y="478.81"/>
      <point x="559.43" y="479.58"/>
      <point x="564.24" y="481.25" type="curve" smooth="yes"/>
      <point x="692.3" y="525.94" type="line"/>
      <point x="703.5" y="528.92"/>
      <point x="709.64" y="535.62"/>
      <point x="709.64" y="545.56" type="curve"/>
      <point x="708.91" y="551.86" type="line"/>
      <point x="676.31" y="699.48"/>
      <point x="536.22" y="761.22"/>
      <point x="403.25" y="761.22" type="curve" smooth="yes"/>
      <point x="115.94" y="761.22"/>
      <point x="35" y="533.5"/>
      <point x="35" y="367.02" type="curve" smooth="yes"/>
      <point x="35" y="151.79"/>
      <point x="178.27" y="-10"/>
      <point x="396.66" y="-10" type="curve" smooth="yes"/>
      <point x="520.41" y="-10"/>
      <point x="607.3" y="35.26"/>
      <point x="668.53" y="112.28" type="curve" smooth="yes"/>
      <point x="680.98" y="127.93"/>
      <point x="696.55" y="154.98"/>
      <point x="702.55" y="170.87" type="curve"/>
      <point x="702.55" y="279.64" type="line" smooth="yes"/>
      <point x="702.55" y="301.82"/>
      <point x="709.61" y="311.82"/>
      <point x="728.91" y="311.82" type="curve" smooth="yes"/>
      <point x="736.9" y="311.82" type="line" smooth="yes"/>
      <point x="746.65" y="311.82"/>
      <point x="751.9" y="317.07"/>
      <point x="751.9" y="326.82" type="curve" smooth="yes"/>
      <point x="751.9" y="356.95" type="line" smooth="yes"/>
      <point x="751.9" y="366.7"/>
      <point x="746.65" y="371.95"/>
      <point x="736.9" y="371.95" type="curve" smooth="yes"/>
    </contour>
    <contour>
      <point x="387.996" y="750" type="move" name="top"/>
    </contour>
    <contour>
      <point x="387.996" y="0" type="move" name="bottom"/>
    </contour>
  </outline>
</glyph>
<glyph name="J" format="1">
  <advance width="524.877"/>
  <unicode hex="004A"/>
  <outline>
    <contour>
      <point x="177.4" y="750" type="line" smooth="yes"/>
      <point x="167.65" y="750"/>
      <point x="162.4" y="744.75"/>
      <point x="162.4" y="735" type="curve" smooth="yes"/>
      <point x="162.4" y="704.88" type="line" smooth="yes"/>
      <point x="162.4" y="695.13"/>
      <point x="167.65" y="689.88"/>
      <point x="177.4" y="689.88" type="curve" smooth="yes"/>
      <point x="184.127" y="689.88" type="line"/>
      <point x="235.043" y="687.426"/>
      <point x="251.61" y="647.561"/>
      <point x="251.61" y="594.92" type="curve" smooth="yes"/>
      <point x="251.61" y="333.98" type="line"/>
      <point x="251.43" y="253.17" type="line"/>
      <point x="251.67" y="127.59" type="line" smooth="yes"/>
      <point x="251.67" y="85.8701"/>
      <point x="237.78" y="53.9701"/>
      <point x="190.65" y="53.9701" type="curve" smooth="yes"/>
      <point x="148.611" y="53.9701"/>
      <point x="135.141" y="99.9742"/>
      <point x="135.141" y="146.133" type="curve" smooth="yes"/>
      <point x="135.141" y="159.135"/>
      <point x="136.21" y="172.149"/>
      <point x="138.01" y="184.15" type="curve"/>
      <point x="138.954" y="196.25"/>
      <point x="132.843" y="202.137"/>
      <point x="126.088" y="202.137" type="curve" smooth="yes"/>
      <point x="124.045" y="202.137"/>
      <point x="121.943" y="201.598"/>
      <point x="119.96" y="200.53" type="curve" smooth="yes"/>
      <point x="20.94" y="147.17" type="line" smooth="yes"/>
      <point x="9.8595" y="141.196"/>
      <point x="4.99853" y="131.484"/>
      <point x="4.99853" y="122.992" type="curve" smooth="yes"/>
      <point x="4.99853" y="96.3387"/>
      <point x="47.3378" y="-10.9999"/>
      <point x="181.04" y="-10.9999" type="curve" smooth="yes"/>
      <point x="376.52" y="-10.9999"/>
      <point x="411.41" y="113.35"/>
      <point x="411.41" y="218.5" type="curve" smooth="yes"/>
      <point x="411.41" y="594.92" type="line" smooth="yes"/>
      <point x="411.41" y="647.561"/>
      <point x="427.977" y="687.426"/>
      <point x="478.893" y="689.88" type="curve"/>
      <point x="484.88" y="689.88" type="line" smooth="yes"/>
      <point x="494.63" y="689.88"/>
      <point x="499.88" y="695.13"/>
      <point x="499.88" y="704.88" type="curve" smooth="yes"/>
      <point x="499.88" y="735" type="line" smooth="yes"/>
      <point x="499.88" y="744.75"/>
      <point x="494.63" y="750"/>
      <point x="484.88" y="750" type="curve" smooth="yes"/>
    </contour>
    <contour>
      <point x="257" y="750" type="move" name="top"/>
    </contour>
  </outline>
</glyph>
<glyph name="K" format="1">
  <advance width="798.161"/>
  <unicode hex="004B"/>
  <outline>
    <contour>
      <point x="769.308" y="60.12" type="line"/>
      <point x="718.455" y="62.6315"/>
      <point x="703.858" y="104.318"/>
      <point x="670" y="155.08" type="curve" smooth="yes"/>
      <point x="462.329" y="466.484" type="line"/>
      <point x="609.32" y="625.17" type="line" smooth="yes"/>
      <point x="657.83" y="677.53"/>
      <point x="680" y="690.65"/>
      <point x="719.7" y="690.65" type="curve" smooth="yes"/>
      <point x="731.64" y="690.65" type="line" smooth="yes"/>
      <point x="739.39" y="690.65"/>
      <point x="744.64" y="695.9"/>
      <point x="744.64" y="705.65" type="curve" smooth="yes"/>
      <point x="744.64" y="735.65" type="line"/>
      <point x="743.99" y="745.38"/>
      <point x="739.39" y="750.65"/>
      <point x="729.64" y="750.65" type="curve" smooth="yes"/>
      <point x="597.63" y="750.7" type="line"/>
      <point x="477.28" y="750.65" type="line" smooth="yes"/>
      <point x="467.53" y="750.65"/>
      <point x="462.28" y="745.4"/>
      <point x="462.28" y="735.65" type="curve" smooth="yes"/>
      <point x="462.28" y="705.65" type="line"/>
      <point x="461.64" y="695.92"/>
      <point x="467.53" y="690.65"/>
      <point x="475.28" y="690.65" type="curve" smooth="yes"/>
      <point x="495.62" y="690.65" type="line" smooth="yes"/>
      <point x="509.64" y="690.65"/>
      <point x="515.659" y="682.917"/>
      <point x="515.659" y="673.188" type="curve" smooth="yes"/>
      <point x="515.659" y="665.581"/>
      <point x="511.98" y="656.755"/>
      <point x="505.57" y="649.45" type="curve" smooth="yes"/>
      <point x="475.007" y="614.618" type="line"/>
      <point x="279.02" y="397.122" type="line"/>
      <point x="279.02" y="593.93" type="line" smooth="yes"/>
      <point x="279.02" y="646.331"/>
      <point x="295.437" y="687.029"/>
      <point x="345.809" y="689.88" type="curve"/>
      <point x="352.7" y="689.88" type="line" smooth="yes"/>
      <point x="362.45" y="689.88"/>
      <point x="367.7" y="695.13"/>
      <point x="367.7" y="704.88" type="curve" smooth="yes"/>
      <point x="367.7" y="735" type="line" smooth="yes"/>
      <point x="367.7" y="744.75"/>
      <point x="362.45" y="750"/>
      <point x="352.7" y="750" type="curve" smooth="yes"/>
      <point x="347.283" y="750" type="line"/>
      <point x="50.9601" y="750.04" type="line"/>
      <point x="45.22" y="750" type="line" smooth="yes"/>
      <point x="35.47" y="750"/>
      <point x="30.22" y="744.75"/>
      <point x="30.22" y="735" type="curve" smooth="yes"/>
      <point x="30.22" y="704.88" type="line" smooth="yes"/>
      <point x="30.22" y="695.13"/>
      <point x="35.47" y="689.88"/>
      <point x="45.22" y="689.88" type="curve" smooth="yes"/>
      <point x="52.4995" y="689.88" type="line"/>
      <point x="102.818" y="687.065"/>
      <point x="119.22" y="647.338"/>
      <point x="119.22" y="594.96" type="curve" smooth="yes"/>
      <point x="119.22" y="155.08" type="line" smooth="yes"/>
      <point x="119.21" y="102.439"/>
      <point x="102.643" y="62.5745"/>
      <point x="51.7271" y="60.12" type="curve"/>
      <point x="45" y="60.12" type="line" smooth="yes"/>
      <point x="35.25" y="60.12"/>
      <point x="30" y="54.87"/>
      <point x="30" y="45.12" type="curve" smooth="yes"/>
      <point x="30" y="15" type="line" smooth="yes"/>
      <point x="30" y="5.25"/>
      <point x="35.25" y="3.04222e-06"/>
      <point x="45" y="3.04222e-06" type="curve" smooth="yes"/>
      <point x="352.48" y="3.04222e-06" type="line" smooth="yes"/>
      <point x="362.23" y="3.04222e-06"/>
      <point x="367.48" y="5.25"/>
      <point x="367.48" y="15" type="curve" smooth="yes"/>
      <point x="367.48" y="45.12" type="line" smooth="yes"/>
      <point x="367.48" y="54.87"/>
      <point x="362.23" y="60.12"/>
      <point x="352.48" y="60.12" type="curve" smooth="yes"/>
      <point x="346.493" y="60.12" type="line"/>
      <point x="295.577" y="62.5745"/>
      <point x="279.01" y="102.439"/>
      <point x="279.01" y="155.08" type="curve" smooth="yes"/>
      <point x="279.01" y="269.318" type="line"/>
      <point x="364.386" y="361.341" type="line"/>
      <point x="510.2" y="155.08" type="line" smooth="yes"/>
      <point x="522.328" y="137.927"/>
      <point x="527.909" y="121.604"/>
      <point x="527.909" y="107.477" type="curve" smooth="yes"/>
      <point x="527.909" y="80.6802"/>
      <point x="507.827" y="61.785"/>
      <point x="474.247" y="60.1199" type="curve"/>
      <point x="467.68" y="60.1199" type="line" smooth="yes"/>
      <point x="457.93" y="60.1199"/>
      <point x="452.68" y="54.8699"/>
      <point x="452.68" y="45.1199" type="curve" smooth="yes"/>
      <point x="452.68" y="14.9999" type="line" smooth="yes"/>
      <point x="452.68" y="5.2499"/>
      <point x="457.93" y="-9.52888e-05"/>
      <point x="467.68" y="-9.52888e-05" type="curve" smooth="yes"/>
      <point x="775.16" y="-9.52888e-05" type="line" smooth="yes"/>
      <point x="784.91" y="-9.52888e-05"/>
      <point x="790.16" y="5.2499"/>
      <point x="790.16" y="14.9999" type="curve" smooth="yes"/>
      <point x="790.16" y="45.1199" type="line" smooth="yes"/>
      <point x="790.16" y="54.8699"/>
      <point x="784.91" y="60.1199"/>
      <point x="775.16" y="60.1199" type="curve" smooth="yes"/>
    </contour>
    <contour>
      <point x="411.224" y="750" type="move" name="top"/>
    </contour>
    <contour>
      <point x="411.224" y="0" type="move" name="bottom"/>
    </contour>
  </outline>
</glyph>
<glyph name="N" format="1">
  <advance width="890.757"/>
  <unicode hex="004E"/>
  <outline>
    <contour>
      <point x="619.14" y="750.24" type="line" smooth="yes"/>
      <point x="609.39" y="750.24"/>
      <point x="604.14" y="744.99"/>
      <point x="604.14" y="735.24" type="curve" smooth="yes"/>
      <point x="604.14" y="705.24" type="line" smooth="yes"/>
      <point x="604.14" y="695.49"/>
      <point x="609.39" y="690.24"/>
      <point x="619.14" y="690.24" type="curve" smooth="yes"/>
      <point x="668.03" y="690.24"/>
      <point x="692.66" y="649.5"/>
      <point x="692.66" y="595.16" type="curve" smooth="yes"/>
      <point x="692.66" y="231.3" type="line"/>
      <point x="246.32" y="741.34" type="line" smooth="yes"/>
      <point x="241.12" y="747.28"/>
      <point x="235.86" y="749.95"/>
      <point x="227.97" y="749.96" type="curve" smooth="yes"/>
      <point x="54.83" y="749.96" type="line" smooth="yes"/>
      <point x="45.08" y="750.03"/>
      <point x="39.83" y="744.78"/>
      <point x="39.83" y="735.03" type="curve" smooth="yes"/>
      <point x="39.83" y="705.03" type="line" smooth="yes"/>
      <point x="39.83" y="695.28"/>
      <point x="45.08" y="690.03"/>
      <point x="54.83" y="690.03" type="curve" smooth="yes"/>
      <point x="79.9893" y="690.03"/>
      <point x="98.1468" y="681.839"/>
      <point x="117.55" y="664.892" type="curve"/>
      <point x="117.55" y="155.08" type="line" smooth="yes"/>
      <point x="117.55" y="100.73"/>
      <point x="93.89" y="60"/>
      <point x="45" y="60" type="curve" smooth="yes"/>
      <point x="35.25" y="60"/>
      <point x="30" y="54.75"/>
      <point x="30" y="45" type="curve" smooth="yes"/>
      <point x="30" y="15" type="line" smooth="yes"/>
      <point x="30" y="5.25"/>
      <point x="35.25" y="-3.37908e-07"/>
      <point x="45" y="-3.37908e-07" type="curve" smooth="yes"/>
      <point x="291.62" y="-3.37908e-07" type="line" smooth="yes"/>
      <point x="301.37" y="-3.37908e-07"/>
      <point x="306.62" y="5.25"/>
      <point x="306.62" y="15" type="curve" smooth="yes"/>
      <point x="306.62" y="45" type="line" smooth="yes"/>
      <point x="306.62" y="54.75"/>
      <point x="301.37" y="60"/>
      <point x="291.62" y="60" type="curve" smooth="yes"/>
      <point x="242.73" y="60"/>
      <point x="218.1" y="100.74"/>
      <point x="218.1" y="155.08" type="curve" smooth="yes"/>
      <point x="218.1" y="553.019" type="line"/>
      <point x="690.84" y="8.59" type="line" smooth="yes"/>
      <point x="696.02" y="2.63"/>
      <point x="701.31" y="1.34056e-06"/>
      <point x="709.2" y="1.34056e-06" type="curve" smooth="yes"/>
      <point x="778.21" y="1.34056e-06" type="line" smooth="yes"/>
      <point x="787.96" y="1.34056e-06"/>
      <point x="793.21" y="5.25"/>
      <point x="793.21" y="15" type="curve" smooth="yes"/>
      <point x="793.21" y="595.16" type="line"/>
      <point x="792.24" y="649.5"/>
      <point x="816.87" y="690.24"/>
      <point x="865.76" y="690.24" type="curve" smooth="yes"/>
      <point x="875.51" y="690.24"/>
      <point x="880.76" y="695.49"/>
      <point x="880.76" y="705.24" type="curve" smooth="yes"/>
      <point x="880.76" y="735.24" type="line" smooth="yes"/>
      <point x="880.76" y="744.99"/>
      <point x="875.51" y="750.24"/>
      <point x="865.76" y="750.24" type="curve" smooth="yes"/>
    </contour>
    <contour>
      <point x="457.55" y="750" type="move" name="top"/>
    </contour>
    <contour>
      <point x="457.55" y="0" type="move" name="bottom"/>
    </contour>
  </outline>
</glyph>
<glyph name="R" format="1">
  <advance width="798.161"/>
  <unicode hex="0052"/>
  <outline>
    <contour>
      <point x="769.516" y="60.12" type="line"/>
      <point x="717.963" y="62.7528"/>
      <point x="694.735" y="108.473"/>
      <point x="670" y="155.08" type="curve" smooth="yes"/>
      <point x="560.989" y="360.506" type="line"/>
      <point x="646.904" y="401.872"/>
      <point x="679.9" y="470.647"/>
      <point x="679.9" y="538.75" type="curve" smooth="yes"/>
      <point x="679.9" y="653.09"/>
      <point x="575.29" y="750.04"/>
      <point x="413.1" y="750.04" type="curve" smooth="yes"/>
      <point x="45.6699" y="750.04" type="line" smooth="yes"/>
      <point x="35.9199" y="750.04"/>
      <point x="30.6699" y="744.79"/>
      <point x="30.6699" y="735.04" type="curve" smooth="yes"/>
      <point x="30.6699" y="705.04" type="line" smooth="yes"/>
      <point x="30.6699" y="695.29"/>
      <point x="35.9199" y="690.04"/>
      <point x="45.6699" y="690.04" type="curve" smooth="yes"/>
      <point x="46.6699" y="690.04" type="line" smooth="yes"/>
      <point x="101.56" y="690.04"/>
      <point x="119.22" y="649.31"/>
      <point x="119.22" y="594.96" type="curve" smooth="yes"/>
      <point x="119.22" y="155.08" type="line" smooth="yes"/>
      <point x="119.21" y="102.439"/>
      <point x="102.643" y="62.5744"/>
      <point x="51.7267" y="60.12" type="curve"/>
      <point x="44.9999" y="60.12" type="line" smooth="yes"/>
      <point x="35.2499" y="60.12"/>
      <point x="29.9999" y="54.87"/>
      <point x="29.9999" y="45.12" type="curve" smooth="yes"/>
      <point x="29.9999" y="15" type="line" smooth="yes"/>
      <point x="29.9999" y="5.25"/>
      <point x="35.2499" y="2.92664e-06"/>
      <point x="44.9999" y="2.92664e-06" type="curve" smooth="yes"/>
      <point x="352.48" y="2.92664e-06" type="line" smooth="yes"/>
      <point x="362.23" y="2.92664e-06"/>
      <point x="367.48" y="5.25"/>
      <point x="367.48" y="15" type="curve" smooth="yes"/>
      <point x="367.48" y="45.12" type="line" smooth="yes"/>
      <point x="367.48" y="54.87"/>
      <point x="362.23" y="60.12"/>
      <point x="352.48" y="60.12" type="curve" smooth="yes"/>
      <point x="346.493" y="60.12" type="line"/>
      <point x="295.577" y="62.5744"/>
      <point x="279.01" y="102.439"/>
      <point x="279.01" y="155.08" type="curve" smooth="yes"/>
      <point x="279.01" y="321.67" type="line"/>
      <point x="353.55" y="321.67" type="line" smooth="yes"/>
      <point x="376.906" y="321.67"/>
      <point x="398.781" y="322.674"/>
      <point x="419.246" y="324.583" type="curve"/>
      <point x="510.2" y="155.08" type="line" smooth="yes"/>
      <point x="518.813" y="139.031"/>
      <point x="523.229" y="123.06"/>
      <point x="523.229" y="108.918" type="curve" smooth="yes"/>
      <point x="523.229" y="82.0929"/>
      <point x="507.337" y="61.8461"/>
      <point x="474.046" y="60.12" type="curve"/>
      <point x="467.68" y="60.12" type="line" smooth="yes"/>
      <point x="457.93" y="60.12"/>
      <point x="452.68" y="54.87"/>
      <point x="452.68" y="45.12" type="curve" smooth="yes"/>
      <point x="452.68" y="15" type="line" smooth="yes"/>
      <point x="452.68" y="5.25"/>
      <point x="457.93" y="4.61636e-06"/>
      <point x="467.68" y="4.61636e-06" type="curve" smooth="yes"/>
      <point x="775.16" y="4.61636e-06" type="line" smooth="yes"/>
      <point x="784.91" y="4.61636e-06"/>
      <point x="790.16" y="5.25"/>
      <point x="790.16" y="15" type="curve" smooth="yes"/>
      <point x="790.16" y="45.12" type="line" smooth="yes"/>
      <point x="790.16" y="54.87"/>
      <point x="784.91" y="60.12"/>
      <point x="775.16" y="60.12" type="curve" smooth="yes"/>
    </contour>
    <contour>
      <point x="279.02" y="392.67" type="line"/>
      <point x="279.02" y="690.04" type="line"/>
      <point x="282.48" y="690.04" type="line"/>
      <point x="369.39" y="689.82" type="line" smooth="yes"/>
      <point x="469.37" y="689.82"/>
      <point x="529.9" y="631.3"/>
      <point x="529.9" y="538.75" type="curve" smooth="yes"/>
      <point x="529.9" y="448.2"/>
      <point x="470.49" y="392.67"/>
      <point x="337.11" y="392.67" type="curve" smooth="yes"/>
    </contour>
    <contour>
      <point x="347.284" y="750.04" type="move" name="top"/>
    </contour>
    <contour>
      <point x="411.224" y="0" type="move" name="bottom"/>
    </contour>
  </outline>
</glyph>
<glyph name="W" format="1">
  <advance width="1207.480"/>
  <unicode hex="0057"/>
  <outline>
    <contour>
      <point x="938.86" y="752.56" type="line" smooth="yes"/>
      <point x="929.11" y="752.56"/>
      <point x="923.86" y="747.31"/>
      <point x="923.86" y="737.56" type="curve" smooth="yes"/>
      <point x="923.86" y="707.56" type="line" smooth="yes"/>
      <point x="923.86" y="697.81"/>
      <point x="929.11" y="692.56"/>
      <point x="938.86" y="692.56" type="curve" smooth="yes"/>
      <point x="980.005" y="692.56"/>
      <point x="1016.47" y="663.04"/>
      <point x="1016.47" y="621.857" type="curve" smooth="yes"/>
      <point x="1016.47" y="614.105"/>
      <point x="1015.18" y="605.94"/>
      <point x="1012.38" y="597.48" type="curve" smooth="yes"/>
      <point x="861.46" y="140.79" type="line"/>
      <point x="695.6" y="603.19" type="line" smooth="yes"/>
      <point x="691.462" y="614.73"/>
      <point x="689.66" y="625.167"/>
      <point x="689.66" y="634.492" type="curve" smooth="yes"/>
      <point x="689.66" y="673.006"/>
      <point x="720.394" y="692.56"/>
      <point x="744.2" y="692.56" type="curve" smooth="yes"/>
      <point x="770.2" y="692.56" type="line" smooth="yes"/>
      <point x="779.95" y="692.56"/>
      <point x="785.2" y="697.81"/>
      <point x="785.2" y="707.56" type="curve" smooth="yes"/>
      <point x="785.2" y="737.56" type="line" smooth="yes"/>
      <point x="785.2" y="747.31"/>
      <point x="779.95" y="752.56"/>
      <point x="770.2" y="752.56" type="curve" smooth="yes"/>
      <point x="463.58" y="752.56" type="line" smooth="yes"/>
      <point x="453.83" y="752.56"/>
      <point x="448.58" y="747.31"/>
      <point x="448.58" y="737.56" type="curve" smooth="yes"/>
      <point x="448.58" y="707.56" type="line" smooth="yes"/>
      <point x="448.58" y="697.81"/>
      <point x="453.83" y="692.56"/>
      <point x="463.58" y="692.56" type="curve" smooth="yes"/>
      <point x="505.47" y="692.56"/>
      <point x="518.2" y="648.79"/>
      <point x="537.1" y="597.48" type="curve" smooth="yes"/>
      <point x="553.81" y="552.118" type="line"/>
      <point x="417.88" y="140.79" type="line"/>
      <point x="254.07" y="597.48" type="line" smooth="yes"/>
      <point x="250.855" y="606.443"/>
      <point x="249.379" y="615.068"/>
      <point x="249.379" y="623.219" type="curve" smooth="yes"/>
      <point x="249.379" y="663.768"/>
      <point x="285.913" y="692.56"/>
      <point x="326.62" y="692.56" type="curve" smooth="yes"/>
      <point x="336.37" y="692.56"/>
      <point x="341.62" y="697.81"/>
      <point x="341.62" y="707.56" type="curve" smooth="yes"/>
      <point x="341.62" y="737.56" type="line" smooth="yes"/>
      <point x="341.62" y="747.31"/>
      <point x="336.37" y="752.56"/>
      <point x="326.62" y="752.56" type="curve" smooth="yes"/>
      <point x="20.0002" y="752.56" type="line" smooth="yes"/>
      <point x="10.2502" y="752.56"/>
      <point x="5.00019" y="747.31"/>
      <point x="5.00019" y="737.56" type="curve" smooth="yes"/>
      <point x="5.00019" y="707.56" type="line" smooth="yes"/>
      <point x="5.00019" y="697.81"/>
      <point x="10.2502" y="692.56"/>
      <point x="20.0002" y="692.56" type="curve" smooth="yes"/>
      <point x="61.8902" y="692.56"/>
      <point x="74.6202" y="648.79"/>
      <point x="93.5202" y="597.48" type="curve" smooth="yes"/>
      <point x="309.19" y="11.99" type="line" smooth="yes"/>
      <point x="312.32" y="3.86999"/>
      <point x="317.63" y="-6.40869e-06"/>
      <point x="326.34" y="-6.40869e-06" type="curve" smooth="yes"/>
      <point x="446.7" y="-6.40869e-06" type="line" smooth="yes"/>
      <point x="455.44" y="-6.40869e-06"/>
      <point x="460.89" y="3.87999"/>
      <point x="463.78" y="12.13" type="curve" smooth="yes"/>
      <point x="604.803" y="413.684" type="line"/>
      <point x="752.77" y="11.99" type="line" smooth="yes"/>
      <point x="755.9" y="3.86999"/>
      <point x="761.21" y="-6.06537e-06"/>
      <point x="769.92" y="-6.06537e-06" type="curve" smooth="yes"/>
      <point x="890.28" y="-6.06537e-06" type="line" smooth="yes"/>
      <point x="899.02" y="-6.06537e-06"/>
      <point x="904.47" y="3.87999"/>
      <point x="907.36" y="12.13" type="curve" smooth="yes"/>
      <point x="1112.93" y="597.48" type="line" smooth="yes"/>
      <point x="1131.35" y="649.95"/>
      <point x="1143.59" y="692.56"/>
      <point x="1187.48" y="692.56" type="curve" smooth="yes"/>
      <point x="1197.23" y="692.56"/>
      <point x="1202.48" y="697.81"/>
      <point x="1202.48" y="707.56" type="curve" smooth="yes"/>
      <point x="1202.48" y="737.56" type="line" smooth="yes"/>
      <point x="1202.48" y="747.31"/>
      <point x="1197.23" y="752.56"/>
      <point x="1187.48" y="752.56" type="curve" smooth="yes"/>
    </contour>
    <contour>
      <point x="598.921" y="750" type="move" name="top"/>
    </contour>
  </outline>
</glyph>
<glyph name="backslash" format="1">
  <advance width="499.942"/>
  <unicode hex="005C"/>
  <outline>
    <contour>
      <point x="458.68" y="-119" type="line" smooth="yes"/>
      <point x="462.61" y="-130"/>
      <point x="457.67" y="-136"/>
      <point x="446.57" y="-136" type="curve" smooth="yes"/>
      <point x="365" y="-136" type="line" smooth="yes"/>
      <point x="356.28" y="-136"/>
      <point x="351.08" y="-133"/>
      <point x="347.87" y="-124" type="curve" smooth="yes"/>
      <point x="28.09" y="765.2" type="line" smooth="yes"/>
      <point x="24.33" y="775.64"/>
      <point x="29.09" y="782.41"/>
      <point x="40.19" y="782.41" type="curve" smooth="yes"/>
      <point x="121.76" y="782.41" type="line" smooth="yes"/>
      <point x="130.48" y="782.41"/>
      <point x="135.94" y="778.57"/>
      <point x="138.89" y="770.37" type="curve" smooth="yes"/>
    </contour>
  </outline>
</glyph>
<glyph name="asciicircum" format="1">
  <advance width="600"/>
  <unicode hex="005E"/>
  <outline>
    <contour>
      <point x="288.37" y="763.91" type="line" smooth="yes"/>
      <point x="291.214" y="769.548"/>
      <point x="294.939" y="772.353"/>
      <point x="298.66" y="772.353" type="curve" smooth="yes"/>
      <point x="302.344" y="772.353"/>
      <point x="306.024" y="769.603"/>
      <point x="308.84" y="764.13" type="curve" smooth="yes"/>
      <point x="576.77" y="233.42" type="line" smooth="yes"/>
      <point x="578.241" y="230.507"/>
      <point x="578.948" y="227.834"/>
      <point x="578.948" y="225.495" type="curve" smooth="yes"/>
      <point x="578.948" y="219.469"/>
      <point x="574.254" y="215.66"/>
      <point x="565.84" y="215.66" type="curve" smooth="yes"/>
      <point x="497.1" y="215.66" type="line" smooth="yes"/>
      <point x="488.69" y="215.66"/>
      <point x="483.22" y="219.02"/>
      <point x="479.43" y="226.53" type="curve" smooth="yes"/>
      <point x="298.61" y="584.7" type="line"/>
      <point x="117.78" y="226.53" type="line" smooth="yes"/>
      <point x="113.99" y="219.02"/>
      <point x="108.52" y="215.66"/>
      <point x="100.11" y="215.66" type="curve" smooth="yes"/>
      <point x="31.37" y="215.66" type="line" smooth="yes"/>
      <point x="22.9556" y="215.66"/>
      <point x="18.2624" y="219.469"/>
      <point x="18.2624" y="225.495" type="curve" smooth="yes"/>
      <point x="18.2624" y="227.834"/>
      <point x="18.9693" y="230.507"/>
      <point x="20.44" y="233.42" type="curve" smooth="yes"/>
    </contour>
  </outline>
</glyph>
<glyph name="grave" format="1">
  <advance width="600"/>
  <unicode hex="0060"/>
  <outline>
    <contour>
      <point x="364.5" y="560.23" type="line" smooth="yes"/>
      <point x="361.178" y="558.628"/>
      <point x="358.185" y="557.808"/>
      <point x="355.092" y="557.808" type="curve" smooth="yes"/>
      <point x="352.896" y="557.808"/>
      <point x="350.65" y="558.221"/>
      <point x="348.2" y="559.06" type="curve" smooth="yes"/>
      <point x="288.47" y="579.5"/>
      <point x="187.39" y="639.54"/>
      <point x="187.39" y="721.46" type="curve" smooth="yes"/>
      <point x="187.39" y="756.342"/>
      <point x="218.977" y="772.36"/>
      <point x="257.178" y="772.36" type="curve" smooth="yes"/>
      <point x="263.418" y="772.36"/>
      <point x="269.835" y="771.933"/>
      <point x="276.32" y="771.09" type="curve" smooth="yes"/>
      <point x="286.36" y="769.78"/>
      <point x="291.42" y="765.19"/>
      <point x="293.98" y="758.41" type="curve" smooth="yes"/>
      <point x="318.9" y="692.93"/>
      <point x="337.53" y="658.74"/>
      <point x="400.89" y="577.73" type="curve"/>
    </contour>
    <contour>
      <point x="327.506" y="500" type="move" name="_top"/>
    </contour>
  </outline>
</glyph>
<glyph name="f" format="1">
  <advance width="402.111"/>
  <unicode hex="0066"/>
  <outline>
    <contour>
      <point x="109.135" y="500" type="line"/>
      <point x="35" y="500" type="line" smooth="yes"/>
      <point x="25.25" y="500"/>
      <point x="20" y="494.75"/>
      <point x="20" y="485" type="curve" smooth="yes"/>
      <point x="20" y="455" type="line" smooth="yes"/>
      <point x="20" y="445.25"/>
      <point x="25.25" y="440"/>
      <point x="35" y="440" type="curve" smooth="yes"/>
      <point x="107.49" y="440"/>
      <point x="107.55" y="379.98"/>
      <point x="107.55" y="326.39" type="curve" smooth="yes"/>
      <point x="107.55" y="155.08" type="line" smooth="yes"/>
      <point x="108.52" y="100.74"/>
      <point x="83.89" y="60"/>
      <point x="35" y="60" type="curve" smooth="yes"/>
      <point x="25.25" y="60"/>
      <point x="20" y="54.75"/>
      <point x="20" y="45" type="curve" smooth="yes"/>
      <point x="20" y="15" type="line" smooth="yes"/>
      <point x="20" y="5.25"/>
      <point x="25.25" y="-2.44141e-06"/>
      <point x="35" y="-2.44141e-06" type="curve" smooth="yes"/>
      <point x="316.62" y="-2.44141e-06" type="line" smooth="yes"/>
      <point x="326.37" y="-2.44141e-06"/>
      <point x="331.62" y="5.25"/>
      <point x="331.62" y="15" type="curve" smooth="yes"/>
      <point x="331.62" y="45" type="line" smooth="yes"/>
      <point x="331.62" y="54.75"/>
      <point x="326.37" y="60"/>
      <point x="316.62" y="60" type="curve" smooth="yes"/>
      <point x="267.73" y="60"/>
      <point x="243.1" y="100.74"/>
      <point x="243.1" y="155.08" type="curve" smooth="yes"/>
      <point x="243.1" y="427" type="line"/>
      <point x="376.62" y="427" type="line" smooth="yes"/>
      <point x="386.37" y="427"/>
      <point x="391.62" y="432.25"/>
      <point x="391.62" y="442" type="curve" smooth="yes"/>
      <point x="391.62" y="485" type="line" smooth="yes"/>
      <point x="391.62" y="494.75"/>
      <point x="386.37" y="500"/>
      <point x="376.62" y="500" type="curve" smooth="yes"/>
      <point x="242.595" y="500" type="line"/>
      <point x="242.595" y="565.53" type="line" smooth="yes"/>
      <point x="243.03" y="641.91"/>
      <point x="250.44" y="693.45"/>
      <point x="274.54" y="723.24" type="curve" smooth="yes"/>
      <point x="286.758" y="738.343"/>
      <point x="302.057" y="745.43"/>
      <point x="316.51" y="745.43" type="curve" smooth="yes"/>
      <point x="341.3" y="745.43"/>
      <point x="363.601" y="724.581"/>
      <point x="363.601" y="687.575" type="curve" smooth="yes"/>
      <point x="363.601" y="669.361"/>
      <point x="358.198" y="647.233"/>
      <point x="345.03" y="621.75" type="curve" smooth="yes"/>
      <point x="340.292" y="612.577"/>
      <point x="341.248" y="601.288"/>
      <point x="349.544" y="601.288" type="curve" smooth="yes"/>
      <point x="350.301" y="601.288"/>
      <point x="351.12" y="601.382"/>
      <point x="352" y="601.58" type="curve" smooth="yes"/>
      <point x="456.88" y="625.18" type="line" smooth="yes"/>
      <point x="471.76" y="628.53"/>
      <point x="477.59" y="633.51"/>
      <point x="481.96" y="644.24" type="curve" smooth="yes"/>
      <point x="488.961" y="661.44"/>
      <point x="492.494" y="678.226"/>
      <point x="492.494" y="694.028" type="curve" smooth="yes"/>
      <point x="492.494" y="754.239"/>
      <point x="441.201" y="800.15"/>
      <point x="335.08" y="800.15" type="curve" smooth="yes"/>
      <point x="159.77" y="800.15"/>
      <point x="109.01" y="626.95"/>
      <point x="109.01" y="508.33" type="curve" smooth="yes"/>
    </contour>
  </outline>
</glyph>
<glyph name="g" format="1">
  <advance width="522.460"/>
  <unicode hex="0067"/>
  <outline>
    <contour>
      <point x="432.65" y="513.78" type="line" smooth="yes"/>
      <point x="424.281" y="511.804"/>
      <point x="421.604" y="506.879"/>
      <point x="421.604" y="498.977" type="curve" smooth="yes"/>
      <point x="421.604" y="498.003"/>
      <point x="421.644" y="496.984"/>
      <point x="421.72" y="495.92" type="curve" smooth="yes"/>
      <point x="423.109" y="476.077"/>
      <point x="413.798" y="470.47"/>
      <point x="404.438" y="470.47" type="curve" smooth="yes"/>
      <point x="400.992" y="470.47"/>
      <point x="397.538" y="471.23"/>
      <point x="394.61" y="472.32" type="curve"/>
      <point x="390.329" y="474.152" type="line"/>
      <point x="354.379" y="497.962"/>
      <point x="307.545" y="512.06"/>
      <point x="251.74" y="512.06" type="curve" smooth="yes"/>
      <point x="115.31" y="512.06"/>
      <point x="32.4999" y="426.41"/>
      <point x="32.2799" y="320.97" type="curve" smooth="yes"/>
      <point x="32.2799" y="267.913"/>
      <point x="53.2531" y="219.884"/>
      <point x="91.4556" y="185.239" type="curve"/>
      <point x="55.0866" y="169.869"/>
      <point x="29.3798" y="136.967"/>
      <point x="29.3798" y="92.3601" type="curve" smooth="yes"/>
      <point x="29.3798" y="54.0599"/>
      <point x="45.4108" y="23.4251"/>
      <point x="80.0378" y="1.3817" type="curve"/>
      <point x="45.6497" y="-18.1671"/>
      <point x="19.9998" y="-48.5717"/>
      <point x="19.9998" y="-93" type="curve" smooth="yes"/>
      <point x="19.9998" y="-177"/>
      <point x="124.92" y="-215"/>
      <point x="246.99" y="-215" type="curve" smooth="yes"/>
      <point x="366.62" y="-215"/>
      <point x="496.44" y="-176"/>
      <point x="496.44" y="-67" type="curve" smooth="yes"/>
      <point x="496.44" y="52.91"/>
      <point x="380.92" y="75.2"/>
      <point x="263.89" y="81.2" type="curve" smooth="yes"/>
      <point x="141.42" y="87.48"/>
      <point x="118.09" y="102.46"/>
      <point x="118.09" y="133.2" type="curve" smooth="yes"/>
      <point x="118.09" y="143.309"/>
      <point x="123.048" y="151.497"/>
      <point x="130.892" y="157.628" type="curve"/>
      <point x="164.014" y="139.973"/>
      <point x="204.698" y="129.8"/>
      <point x="251.74" y="129.8" type="curve" smooth="yes"/>
      <point x="389.21" y="129.8"/>
      <point x="472.24" y="215.44"/>
      <point x="472.24" y="320.97" type="curve" smooth="yes"/>
      <point x="472.24" y="354.491"/>
      <point x="463.863" y="385.995"/>
      <point x="448.027" y="413.383" type="curve"/>
      <point x="492.804" y="413.681"/>
      <point x="524.011" y="451.458"/>
      <point x="519.38" y="516.08" type="curve" smooth="yes"/>
      <point x="518.692" y="525.634"/>
      <point x="513.591" y="530.677"/>
      <point x="506.174" y="530.677" type="curve" smooth="yes"/>
      <point x="504.755" y="530.677"/>
      <point x="503.253" y="530.492"/>
      <point x="501.68" y="530.12" type="curve" smooth="yes"/>
    </contour>
    <contour>
      <point x="328.15" y="453.42"/>
      <point x="342.69" y="378.94"/>
      <point x="342.69" y="320.96" type="curve" smooth="yes"/>
      <point x="342.69" y="262.68"/>
      <point x="328.21" y="188.6"/>
      <point x="251.74" y="188.51" type="curve" smooth="yes"/>
      <point x="176.32" y="188.42"/>
      <point x="154.29" y="263"/>
      <point x="154.3" y="320.98" type="curve" smooth="yes"/>
      <point x="154.3" y="378.95"/>
      <point x="176.36" y="453.42"/>
      <point x="251.74" y="453.42" type="curve" smooth="yes"/>
    </contour>
    <contour>
      <point x="147.53" y="-146"/>
      <point x="119.52" y="-110"/>
      <point x="119.52" y="-79.0001" type="curve" smooth="yes"/>
      <point x="119.52" y="-56.6329"/>
      <point x="129.214" y="-39.0276"/>
      <point x="147.94" y="-25.5346" type="curve"/>
      <point x="174.3" y="-31.8629"/>
      <point x="205.355" y="-36.0537"/>
      <point x="241.4" y="-38.0001" type="curve" smooth="yes"/>
      <point x="341.72" y="-43.0001"/>
      <point x="400.77" y="-52.0001"/>
      <point x="400.77" y="-95.0001" type="curve" smooth="yes"/>
      <point x="400.77" y="-126"/>
      <point x="346.64" y="-146"/>
      <point x="247.74" y="-146" type="curve" smooth="yes"/>
    </contour>
    <contour>
      <point x="261" y="500" type="move" name="top"/>
    </contour>
  </outline>
</glyph>
<glyph name="h" format="1">
  <advance width="680.619"/>
  <unicode hex="0068"/>
  <outline>
    <contour>
      <point x="653.12" y="60" type="line" smooth="yes"/>
      <point x="604.23" y="60"/>
      <point x="579.67" y="100.74"/>
      <point x="579.6" y="155.08" type="curve"/>
      <point x="579.6" y="330.06" type="line"/>
      <point x="579.36" y="425.69"/>
      <point x="552.56" y="513.11"/>
      <point x="409.61" y="513.11" type="curve" smooth="yes"/>
      <point x="317.98" y="513.11"/>
      <point x="262.12" y="449.12"/>
      <point x="244.34" y="414.15" type="curve"/>
      <point x="244.34" y="798.38" type="line" smooth="yes"/>
      <point x="244.34" y="799.88"/>
      <point x="244.25" y="800"/>
      <point x="242.97" y="800" type="curve" smooth="yes"/>
      <point x="240.62" y="799.99" type="line" smooth="yes"/>
      <point x="239.07" y="799.98"/>
      <point x="237.71" y="798.73"/>
      <point x="236.16" y="797.61" type="curve" smooth="yes"/>
      <point x="209.29" y="778.26"/>
      <point x="153.72" y="740.04"/>
      <point x="48.35" y="705.07" type="curve" smooth="yes"/>
      <point x="38.96" y="701.96"/>
      <point x="33.9" y="700.18"/>
      <point x="33.9" y="691.88" type="curve" smooth="yes"/>
      <point x="33.9" y="657.98" type="line"/>
      <point x="33.6" y="651.12"/>
      <point x="35.77" y="646.15"/>
      <point x="45.64" y="645.07" type="curve" smooth="yes"/>
      <point x="100.83" y="639.04"/>
      <point x="104.76" y="583.59"/>
      <point x="104.76" y="530" type="curve" smooth="yes"/>
      <point x="104.76" y="155.08" type="line" smooth="yes"/>
      <point x="105.73" y="100.74"/>
      <point x="81.1" y="60"/>
      <point x="32.21" y="60" type="curve" smooth="yes"/>
      <point x="30" y="60" type="line" smooth="yes"/>
      <point x="20.25" y="60"/>
      <point x="15" y="54.75"/>
      <point x="15" y="45" type="curve" smooth="yes"/>
      <point x="15" y="15" type="line" smooth="yes"/>
      <point x="15" y="5.24999"/>
      <point x="20.25" y="-1.14561e-05"/>
      <point x="30" y="-1.14561e-05" type="curve" smooth="yes"/>
      <point x="320.77" y="-1.14561e-05" type="line" smooth="yes"/>
      <point x="330.52" y="-1.14561e-05"/>
      <point x="335.77" y="5.24999"/>
      <point x="335.77" y="15" type="curve" smooth="yes"/>
      <point x="335.77" y="45" type="line" smooth="yes"/>
      <point x="335.77" y="54.75"/>
      <point x="330.52" y="60"/>
      <point x="320.77" y="60" type="curve" smooth="yes"/>
      <point x="318.83" y="60" type="line" smooth="yes"/>
      <point x="269.94" y="60"/>
      <point x="245.31" y="100.74"/>
      <point x="245.31" y="155.08" type="curve" smooth="yes"/>
      <point x="245.31" y="349.47" type="line"/>
      <point x="262.56" y="391.65"/>
      <point x="317.36" y="424.68"/>
      <point x="366.94" y="424.68" type="curve" smooth="yes"/>
      <point x="443.67" y="424.68"/>
      <point x="439.05" y="370.1"/>
      <point x="439.05" y="305.64" type="curve" smooth="yes"/>
      <point x="439.05" y="155.08" type="line" smooth="yes"/>
      <point x="440.02" y="100.74"/>
      <point x="424.37" y="60"/>
      <point x="386.5" y="60" type="curve" smooth="yes"/>
      <point x="384.29" y="60" type="line" smooth="yes"/>
      <point x="374.54" y="60"/>
      <point x="369.29" y="54.75"/>
      <point x="369.29" y="45" type="curve" smooth="yes"/>
      <point x="369.29" y="15" type="line" smooth="yes"/>
      <point x="369.29" y="5.24999"/>
      <point x="374.54" y="-1.32871e-05"/>
      <point x="384.29" y="-1.32871e-05" type="curve" smooth="yes"/>
      <point x="655.62" y="-1.32871e-05" type="line" smooth="yes"/>
      <point x="665.37" y="-1.32871e-05"/>
      <point x="670.62" y="5.24999"/>
      <point x="670.62" y="15" type="curve" smooth="yes"/>
      <point x="670.62" y="45" type="line" smooth="yes"/>
      <point x="670.62" y="54.75"/>
      <point x="665.37" y="60"/>
      <point x="655.62" y="60" type="curve" smooth="yes"/>
    </contour>
    <contour>
      <point x="339.756" y="250" type="move" name="center"/>
    </contour>
    <contour>
      <point x="339.756" y="500" type="move" name="top"/>
    </contour>
  </outline>
</glyph>
<glyph name="i" format="1">
  <advance width="349.769"/>
  <unicode hex="0069"/>
  <outline>
    <contour>
      <point x="191.59" y="589.69"/>
      <point x="206.1" y="596.92"/>
      <point x="223.86" y="614.69" type="curve" smooth="yes"/>
      <point x="241.63" y="632.46"/>
      <point x="248.86" y="646.96"/>
      <point x="248.86" y="664.82" type="curve" smooth="yes"/>
      <point x="248.86" y="682.68"/>
      <point x="241.63" y="697.18"/>
      <point x="223.86" y="714.95" type="curve" smooth="yes"/>
      <point x="206.1" y="732.72"/>
      <point x="191.59" y="739.95"/>
      <point x="173.73" y="739.95" type="curve" smooth="yes"/>
      <point x="155.87" y="739.95"/>
      <point x="141.37" y="732.72"/>
      <point x="123.6" y="714.95" type="curve" smooth="yes"/>
      <point x="105.83" y="697.18"/>
      <point x="98.6" y="682.68"/>
      <point x="98.6" y="664.82" type="curve" smooth="yes"/>
      <point x="98.6" y="646.96"/>
      <point x="105.83" y="632.46"/>
      <point x="123.6" y="614.69" type="curve" smooth="yes"/>
      <point x="141.37" y="596.92"/>
      <point x="155.87" y="589.69"/>
      <point x="173.73" y="589.69" type="curve" smooth="yes"/>
    </contour>
    <contour>
      <point x="317.33" y="60" type="line" smooth="yes"/>
      <point x="268.44" y="60"/>
      <point x="243.81" y="100.74"/>
      <point x="243.81" y="155.08" type="curve" smooth="yes"/>
      <point x="243.81" y="529.71" type="line"/>
      <point x="242.84" y="531.21"/>
      <point x="242.75" y="531.33"/>
      <point x="241.47" y="531.33" type="curve" smooth="yes"/>
      <point x="239.12" y="531.32" type="line" smooth="yes"/>
      <point x="237.57" y="531.31"/>
      <point x="235.98" y="530.32"/>
      <point x="234.66" y="528.94" type="curve" smooth="yes"/>
      <point x="207.79" y="500.59"/>
      <point x="156.22" y="462.21"/>
      <point x="50.85" y="427.25" type="curve" smooth="yes"/>
      <point x="41.46" y="424.13"/>
      <point x="36.4" y="422.36"/>
      <point x="36.4" y="414.06" type="curve" smooth="yes"/>
      <point x="36.4" y="380.16" type="line"/>
      <point x="36.1" y="373.3"/>
      <point x="38.27" y="368.33"/>
      <point x="48.14" y="367.25" type="curve" smooth="yes"/>
      <point x="103.33" y="361.22"/>
      <point x="107.26" y="305.77"/>
      <point x="107.26" y="261.18" type="curve" smooth="yes"/>
      <point x="107.26" y="155.08" type="line" smooth="yes"/>
      <point x="108.23" y="100.74"/>
      <point x="83.6" y="60.0001"/>
      <point x="34.71" y="60.0001" type="curve" smooth="yes"/>
      <point x="33" y="60.0001" type="line" smooth="yes"/>
      <point x="23.25" y="60.0001"/>
      <point x="18" y="54.7501"/>
      <point x="18" y="45.0001" type="curve" smooth="yes"/>
      <point x="18" y="15.0001" type="line" smooth="yes"/>
      <point x="18" y="5.2501"/>
      <point x="25.25" y="9.83095e-05"/>
      <point x="35" y="9.83095e-05" type="curve" smooth="yes"/>
      <point x="317.77" y="9.83095e-05" type="line" smooth="yes"/>
      <point x="327.52" y="9.83095e-05"/>
      <point x="334.77" y="5.2501"/>
      <point x="334.77" y="15.0001" type="curve" smooth="yes"/>
      <point x="334.77" y="45.0001" type="line" smooth="yes"/>
      <point x="334.77" y="54.7501"/>
      <point x="329.52" y="60.0001"/>
      <point x="319.77" y="60.0001" type="curve" smooth="yes"/>
    </contour>
    <contour>
      <point x="173.764" y="500" type="move" name="top"/>
    </contour>
  </outline>
</glyph>
<glyph name="k" format="1">
  <advance width="631.469"/>
  <unicode hex="006B"/>
  <outline>
    <contour>
      <point x="607.53" y="60" type="line" smooth="yes"/>
      <point x="594.33" y="60"/>
      <point x="583.54" y="68.15"/>
      <point x="560.8" y="91.07" type="curve" smooth="yes"/>
      <point x="347.296" y="306.386" type="line"/>
      <point x="424.26" y="374.51" type="line" smooth="yes"/>
      <point x="477.16" y="421.34"/>
      <point x="497.64" y="440"/>
      <point x="537.34" y="440" type="curve" smooth="yes"/>
      <point x="549.28" y="440" type="line" smooth="yes"/>
      <point x="557.03" y="440"/>
      <point x="562.28" y="445.25"/>
      <point x="562.28" y="455" type="curve" smooth="yes"/>
      <point x="562.28" y="485" type="line"/>
      <point x="561.63" y="494.73"/>
      <point x="557.03" y="500"/>
      <point x="547.28" y="500" type="curve" smooth="yes"/>
      <point x="324.51" y="500" type="line" smooth="yes"/>
      <point x="314.76" y="500"/>
      <point x="309.51" y="494.75"/>
      <point x="309.51" y="485" type="curve" smooth="yes"/>
      <point x="309.51" y="455" type="line"/>
      <point x="308.87" y="445.27"/>
      <point x="314.76" y="440"/>
      <point x="322.51" y="440" type="curve" smooth="yes"/>
      <point x="353.27" y="440" type="line" smooth="yes"/>
      <point x="367.486" y="440"/>
      <point x="372.705" y="434.102"/>
      <point x="372.705" y="427.346" type="curve" smooth="yes"/>
      <point x="372.705" y="422.23"/>
      <point x="369.713" y="416.623"/>
      <point x="365.37" y="412.71" type="curve" smooth="yes"/>
      <point x="242.878" y="302.331" type="line"/>
      <point x="242.878" y="798.39" type="line"/>
      <point x="242.13" y="799.89"/>
      <point x="242.04" y="800.01"/>
      <point x="240.76" y="800.01" type="curve" smooth="yes"/>
      <point x="238.41" y="800" type="line" smooth="yes"/>
      <point x="236.86" y="799.99"/>
      <point x="235.5" y="798.74"/>
      <point x="233.95" y="797.62" type="curve" smooth="yes"/>
      <point x="207.08" y="778.27"/>
      <point x="151.51" y="740.04"/>
      <point x="46.1401" y="705.07" type="curve" smooth="yes"/>
      <point x="36.7501" y="701.96"/>
      <point x="31.6901" y="700.18"/>
      <point x="31.6901" y="691.88" type="curve" smooth="yes"/>
      <point x="31.6901" y="657.98" type="line"/>
      <point x="31.3901" y="651.12"/>
      <point x="33.5601" y="646.15"/>
      <point x="43.4301" y="645.07" type="curve" smooth="yes"/>
      <point x="98.6201" y="639.04"/>
      <point x="102.55" y="583.59"/>
      <point x="102.55" y="530" type="curve" smooth="yes"/>
      <point x="102.55" y="155.08" type="line" smooth="yes"/>
      <point x="103.52" y="100.74"/>
      <point x="78.8901" y="60.0001"/>
      <point x="30.0001" y="60.0001" type="curve" smooth="yes"/>
      <point x="20.2501" y="60.0001"/>
      <point x="15.0001" y="54.7501"/>
      <point x="15.0001" y="45.0001" type="curve" smooth="yes"/>
      <point x="15.0001" y="15.0001" type="line" smooth="yes"/>
      <point x="15.0001" y="5.2501"/>
      <point x="20.2501" y="9.82332e-05"/>
      <point x="30.0001" y="9.82332e-05" type="curve" smooth="yes"/>
      <point x="296.62" y="9.82332e-05" type="line" smooth="yes"/>
      <point x="306.37" y="9.82332e-05"/>
      <point x="311.62" y="5.2501"/>
      <point x="311.62" y="15.0001" type="curve" smooth="yes"/>
      <point x="311.62" y="45.0001" type="line" smooth="yes"/>
      <point x="311.62" y="54.7501"/>
      <point x="306.37" y="60.0001"/>
      <point x="296.62" y="60.0001" type="curve" smooth="yes"/>
      <point x="247.73" y="60.0001"/>
      <point x="243.1" y="76.8901"/>
      <point x="243.1" y="155.08" type="curve" smooth="yes"/>
      <point x="243.1" y="214.078" type="line"/>
      <point x="263.852" y="232.526" type="line"/>
      <point x="396.46" y="89.65" type="line" smooth="yes"/>
      <point x="401.551" y="84.1666"/>
      <point x="403.654" y="79.4291"/>
      <point x="403.654" y="75.4498" type="curve" smooth="yes"/>
      <point x="403.654" y="65.2196"/>
      <point x="389.759" y="60"/>
      <point x="377.03" y="60" type="curve" smooth="yes"/>
      <point x="361.7" y="60" type="line" smooth="yes"/>
      <point x="354.342" y="60"/>
      <point x="348.651" y="55.2492"/>
      <point x="348.651" y="46.4408" type="curve" smooth="yes"/>
      <point x="348.651" y="45.972"/>
      <point x="348.667" y="45.4917"/>
      <point x="348.7" y="45" type="curve"/>
      <point x="348.7" y="15" type="line" smooth="yes"/>
      <point x="348.7" y="5.25"/>
      <point x="353.95" y="9.22605e-07"/>
      <point x="363.7" y="9.22605e-07" type="curve" smooth="yes"/>
      <point x="609.47" y="9.22605e-07" type="line" smooth="yes"/>
      <point x="619.22" y="9.22605e-07"/>
      <point x="623.82" y="5.27"/>
      <point x="624.47" y="15" type="curve"/>
      <point x="624.47" y="45" type="line" smooth="yes"/>
      <point x="624.47" y="54.75"/>
      <point x="619.22" y="60"/>
      <point x="611.47" y="60" type="curve" smooth="yes"/>
    </contour>
    <contour>
      <point x="318.55" y="0" type="move" name="bottom"/>
    </contour>
  </outline>
</glyph>
<glyph name="l" format="1">
  <advance width="346.620"/>
  <unicode hex="006C"/>
  <outline>
    <contour>
      <point x="243.1" y="798.38" type="line"/>
      <point x="242.14" y="799.88"/>
      <point x="242.05" y="800"/>
      <point x="240.77" y="800" type="curve" smooth="yes"/>
      <point x="238.42" y="799.99" type="line" smooth="yes"/>
      <point x="236.87" y="799.98"/>
      <point x="235.51" y="798.73"/>
      <point x="233.96" y="797.61" type="curve" smooth="yes"/>
      <point x="207.09" y="778.26"/>
      <point x="151.51" y="740.04"/>
      <point x="46.14" y="705.07" type="curve" smooth="yes"/>
      <point x="36.75" y="701.96"/>
      <point x="31.69" y="700.18"/>
      <point x="31.69" y="691.88" type="curve" smooth="yes"/>
      <point x="31.69" y="657.98" type="line"/>
      <point x="31.39" y="651.12"/>
      <point x="33.56" y="646.15"/>
      <point x="43.43" y="645.07" type="curve" smooth="yes"/>
      <point x="98.62" y="639.04"/>
      <point x="102.55" y="583.59"/>
      <point x="102.55" y="530" type="curve" smooth="yes"/>
      <point x="102.55" y="155.08" type="line" smooth="yes"/>
      <point x="103.52" y="100.74"/>
      <point x="78.89" y="60"/>
      <point x="30" y="60" type="curve" smooth="yes"/>
      <point x="20.25" y="60"/>
      <point x="15" y="54.75"/>
      <point x="15" y="45" type="curve" smooth="yes"/>
      <point x="15" y="15" type="line" smooth="yes"/>
      <point x="15" y="5.24999"/>
      <point x="20.25" y="-5.81034e-06"/>
      <point x="30" y="-5.81034e-06" type="curve" smooth="yes"/>
      <point x="316.62" y="-5.81034e-06" type="line" smooth="yes"/>
      <point x="326.37" y="-5.81034e-06"/>
      <point x="331.62" y="5.24999"/>
      <point x="331.62" y="15" type="curve" smooth="yes"/>
      <point x="331.62" y="45" type="line" smooth="yes"/>
      <point x="331.62" y="54.75"/>
      <point x="326.37" y="60"/>
      <point x="316.62" y="60" type="curve" smooth="yes"/>
      <point x="267.73" y="60"/>
      <point x="243.1" y="100.74"/>
      <point x="243.1" y="155.08" type="curve" smooth="yes"/>
    </contour>
    <contour>
      <point x="172.55" y="500" type="move" name="top"/>
    </contour>
    <contour>
      <point x="172.55" y="0" type="move" name="bottom"/>
    </contour>
    <contour>
      <point x="322.607" y="500" type="move" name="topright"/>
    </contour>
  </outline>
</glyph>
<glyph name="o" format="1">
  <advance width="573.766"/>
  <unicode hex="006F"/>
  <outline>
    <contour>
      <point x="85.3603" y="448.737"/>
      <point x="30.2116" y="354.925"/>
      <point x="30.2116" y="255.569" type="curve" smooth="yes"/>
      <point x="30.2116" y="219.093"/>
      <point x="37.6444" y="181.87"/>
      <point x="53.3" y="146.19" type="curve" smooth="yes"/>
      <point x="97.3702" y="47.2108"/>
      <point x="193.232" y="-12.0635"/>
      <point x="292.58" y="-12.0635" type="curve" smooth="yes"/>
      <point x="326.598" y="-12.0635"/>
      <point x="361.024" y="-5.11421"/>
      <point x="393.92" y="9.57002" type="curve" smooth="yes"/>
      <point x="488.175" y="51.5374"/>
      <point x="543.765" y="145.236"/>
      <point x="543.765" y="244.505" type="curve" smooth="yes"/>
      <point x="543.765" y="281.056"/>
      <point x="536.228" y="318.363"/>
      <point x="520.31" y="354.12" type="curve" smooth="yes"/>
      <point x="476.234" y="453.113"/>
      <point x="380.346" y="512.301"/>
      <point x="280.983" y="512.301" type="curve" smooth="yes"/>
      <point x="246.98" y="512.301"/>
      <point x="212.57" y="505.37"/>
      <point x="179.69" y="490.73" type="curve" smooth="yes"/>
    </contour>
    <contour>
      <point x="223.267" y="429.434"/>
      <point x="236.629" y="432.21"/>
      <point x="249.627" y="432.21" type="curve" smooth="yes"/>
      <point x="311.234" y="432.21"/>
      <point x="364.678" y="369.871"/>
      <point x="396.28" y="298.88" type="curve" smooth="yes"/>
      <point x="413.312" y="260.624"/>
      <point x="424.235" y="219.335"/>
      <point x="424.235" y="182.226" type="curve" smooth="yes"/>
      <point x="424.235" y="135.952"/>
      <point x="407.249" y="96.1793"/>
      <point x="363.94" y="76.9" type="curve" smooth="yes"/>
      <point x="350.319" y="70.8061"/>
      <point x="336.933" y="68.0141"/>
      <point x="323.912" y="68.0141" type="curve" smooth="yes"/>
      <point x="262.34" y="68.0141"/>
      <point x="208.92" y="130.445"/>
      <point x="177.33" y="201.4" type="curve" smooth="yes"/>
      <point x="160.298" y="239.656"/>
      <point x="149.375" y="280.945"/>
      <point x="149.375" y="318.054" type="curve" smooth="yes"/>
      <point x="149.375" y="364.328"/>
      <point x="166.361" y="404.101"/>
      <point x="209.67" y="423.38" type="curve" smooth="yes"/>
    </contour>
    <contour>
      <point x="286.512" y="500" type="move" name="top"/>
    </contour>
  </outline>
</glyph>
<glyph name="p" format="1">
  <advance width="631.164"/>
  <unicode hex="0070"/>
  <outline>
    <contour>
      <point x="238.03" y="511.13" type="line" smooth="yes"/>
      <point x="238.28" y="513.12"/>
      <point x="237.94" y="514.13"/>
      <point x="236.66" y="514.13" type="curve" smooth="yes"/>
      <point x="234.31" y="514.13" type="line" smooth="yes"/>
      <point x="231.39" y="514.13"/>
      <point x="227.61" y="513.13"/>
      <point x="225.85" y="512.13" type="curve"/>
      <point x="181.028" y="492.581"/>
      <point x="140.496" y="473.79"/>
      <point x="42.3531" y="473.79" type="curve" smooth="yes"/>
      <point x="32.2647" y="473.79"/>
      <point x="27.59" y="469.004"/>
      <point x="27.59" y="460.6" type="curve" smooth="yes"/>
      <point x="27.59" y="426.7" type="line"/>
      <point x="27.29" y="419.84"/>
      <point x="29.46" y="414.87"/>
      <point x="39.33" y="413.79" type="curve" smooth="yes"/>
      <point x="94.52" y="407.76"/>
      <point x="98.48" y="352.31"/>
      <point x="98.45" y="298.71" type="curve" smooth="yes"/>
      <point x="98.45" y="-26" type="line"/>
      <point x="98.26" y="-45" type="line" smooth="yes"/>
      <point x="99.23" y="-99"/>
      <point x="74.6" y="-140"/>
      <point x="25.71" y="-140" type="curve" smooth="yes"/>
      <point x="15.25" y="-140"/>
      <point x="10" y="-145"/>
      <point x="10" y="-155" type="curve" smooth="yes"/>
      <point x="10" y="-185" type="line" smooth="yes"/>
      <point x="10" y="-195"/>
      <point x="15.25" y="-200"/>
      <point x="25" y="-200" type="curve" smooth="yes"/>
      <point x="311.33" y="-200" type="line" smooth="yes"/>
      <point x="321.08" y="-200"/>
      <point x="326.33" y="-195"/>
      <point x="326.33" y="-185" type="curve" smooth="yes"/>
      <point x="326.33" y="-155" type="line" smooth="yes"/>
      <point x="326.33" y="-145"/>
      <point x="321.08" y="-140"/>
      <point x="311.33" y="-140" type="curve" smooth="yes"/>
      <point x="262.44" y="-140"/>
      <point x="237.81" y="-99"/>
      <point x="237.81" y="-45" type="curve" smooth="yes"/>
      <point x="237.81" y="34.7568" type="line"/>
      <point x="273.066" y="4.1988"/>
      <point x="317.186" y="-12"/>
      <point x="367.66" y="-12" type="curve" smooth="yes"/>
      <point x="488.54" y="-12"/>
      <point x="601.16" y="65.09"/>
      <point x="601.16" y="250.31" type="curve" smooth="yes"/>
      <point x="601.16" y="443.76"/>
      <point x="469.75" y="514.13"/>
      <point x="379.57" y="514.13" type="curve" smooth="yes"/>
      <point x="276.74" y="514.13"/>
      <point x="237.69" y="448.76"/>
      <point x="226.82" y="422" type="curve"/>
    </contour>
    <contour>
      <point x="237.85" y="360" type="line"/>
      <point x="237.93" y="360"/>
      <point x="260.1" y="425.88"/>
      <point x="334.27" y="425.88" type="curve" smooth="yes"/>
      <point x="416.19" y="425.88"/>
      <point x="472.52" y="346.12"/>
      <point x="472.52" y="217.97" type="curve" smooth="yes"/>
      <point x="472.52" y="135.21"/>
      <point x="446.26" y="53.02"/>
      <point x="349.53" y="53.02" type="curve" smooth="yes"/>
      <point x="283.04" y="53.02"/>
      <point x="245.26" y="115.47"/>
      <point x="237.85" y="177.6" type="curve"/>
    </contour>
  </outline>
</glyph>
<glyph name="x" format="1">
  <advance width="603.158"/>
  <unicode hex="0078"/>
  <outline>
    <contour>
      <point x="577.72" y="59.76" type="line" smooth="yes"/>
      <point x="552.61" y="59.76"/>
      <point x="524.83" y="80.32"/>
      <point x="489.88" y="122.81" type="curve" smooth="yes"/>
      <point x="372.721" y="265.258" type="line"/>
      <point x="460.46" y="377.87" type="line" smooth="yes"/>
      <point x="494.65" y="421.75"/>
      <point x="508.25" y="440.37"/>
      <point x="549" y="440.37" type="curve" smooth="yes"/>
      <point x="563.27" y="440.37" type="line" smooth="yes"/>
      <point x="573.02" y="440.37"/>
      <point x="578.27" y="445.62"/>
      <point x="578.27" y="455.37" type="curve" smooth="yes"/>
      <point x="578.27" y="485.37" type="line" smooth="yes"/>
      <point x="578.27" y="495.12"/>
      <point x="573.02" y="500.37"/>
      <point x="563.27" y="500.37" type="curve" smooth="yes"/>
      <point x="379.93" y="500.37" type="line" smooth="yes"/>
      <point x="370.18" y="500.37"/>
      <point x="364.93" y="495.12"/>
      <point x="364.93" y="485.37" type="curve" smooth="yes"/>
      <point x="364.93" y="455.37" type="line" smooth="yes"/>
      <point x="364.93" y="445.62"/>
      <point x="370.18" y="440.37"/>
      <point x="379.93" y="440.37" type="curve" smooth="yes"/>
      <point x="389.65" y="440.37" type="line" smooth="yes"/>
      <point x="406.567" y="440.37"/>
      <point x="413.945" y="436.417"/>
      <point x="413.945" y="428.182" type="curve" smooth="yes"/>
      <point x="413.945" y="417.982"/>
      <point x="402.625" y="401.213"/>
      <point x="384.09" y="377.25" type="curve" smooth="yes"/>
      <point x="333.944" y="312.405" type="line"/>
      <point x="266.85" y="393.98" type="line" smooth="yes"/>
      <point x="255.388" y="407.915"/>
      <point x="249.489" y="418.266"/>
      <point x="249.489" y="425.61" type="curve" smooth="yes"/>
      <point x="249.489" y="435.995"/>
      <point x="261.283" y="440.37"/>
      <point x="285.82" y="440.37" type="curve" smooth="yes"/>
      <point x="287.82" y="440.37" type="line" smooth="yes"/>
      <point x="297.383" y="440.476"/>
      <point x="302.53" y="445.717"/>
      <point x="302.53" y="455.37" type="curve" smooth="yes"/>
      <point x="302.53" y="485.37" type="line" smooth="yes"/>
      <point x="302.53" y="495.12"/>
      <point x="297.28" y="500.37"/>
      <point x="287.53" y="500.37" type="curve" smooth="yes"/>
      <point x="36.7699" y="500.37" type="line" smooth="yes"/>
      <point x="27.0199" y="500.37"/>
      <point x="21.7699" y="495.12"/>
      <point x="21.7699" y="485.37" type="curve" smooth="yes"/>
      <point x="21.7699" y="455.37" type="line" smooth="yes"/>
      <point x="21.7699" y="445.62"/>
      <point x="27.0199" y="440.37"/>
      <point x="36.7699" y="440.37" type="curve" smooth="yes"/>
      <point x="39.1999" y="440.37" type="line" smooth="yes"/>
      <point x="64.3099" y="440.37"/>
      <point x="92.3699" y="419.18"/>
      <point x="127.04" y="377.32" type="curve" smooth="yes"/>
      <point x="223.872" y="260.405" type="line"/>
      <point x="115.8" y="122.34" type="line" smooth="yes"/>
      <point x="81.5199" y="78.54"/>
      <point x="68.0199" y="59.84"/>
      <point x="27.2699" y="59.84" type="curve" smooth="yes"/>
      <point x="15.2699" y="59.84" type="line"/>
      <point x="15.2771" y="58.3593" type="line"/>
      <point x="10.5086" y="56.1675"/>
      <point x="7.99989" y="51.5789"/>
      <point x="7.99989" y="44.8399" type="curve" smooth="yes"/>
      <point x="7.99989" y="14.8399" type="line" smooth="yes"/>
      <point x="7.99989" y="7.9717"/>
      <point x="10.6053" y="3.4162"/>
      <point x="15.5535" y="1.3231" type="curve"/>
      <point x="15.5599" y="-9.9328e-05" type="line"/>
      <point x="206.33" y="-9.9328e-05" type="line" smooth="yes"/>
      <point x="216.08" y="-9.9328e-05"/>
      <point x="221.33" y="5.0899"/>
      <point x="221.33" y="14.8399" type="curve" smooth="yes"/>
      <point x="221.33" y="44.8399" type="line" smooth="yes"/>
      <point x="221.33" y="54.5899"/>
      <point x="216.08" y="59.8399"/>
      <point x="206.33" y="59.8399" type="curve" smooth="yes"/>
      <point x="186.62" y="59.8399" type="line" smooth="yes"/>
      <point x="169.703" y="59.8399"/>
      <point x="162.325" y="63.7929"/>
      <point x="162.325" y="72.0287" type="curve" smooth="yes"/>
      <point x="162.325" y="82.2297"/>
      <point x="173.645" y="99.0012"/>
      <point x="192.18" y="122.97" type="curve" smooth="yes"/>
      <point x="262.449" y="213.827" type="line"/>
      <point x="348.449" y="109.99" type="line" smooth="yes"/>
      <point x="358.666" y="97.65"/>
      <point x="362.61" y="88.237"/>
      <point x="362.61" y="81.0928" type="curve" smooth="yes"/>
      <point x="362.61" y="63.7125"/>
      <point x="339.267" y="59.7599"/>
      <point x="326.099" y="59.7599" type="curve" smooth="yes"/>
      <point x="324.099" y="59.7599" type="line" smooth="yes"/>
      <point x="314.536" y="59.6537"/>
      <point x="309.389" y="54.4125"/>
      <point x="309.389" y="44.7599" type="curve" smooth="yes"/>
      <point x="309.389" y="14.7599" type="line" smooth="yes"/>
      <point x="309.389" y="5.0099"/>
      <point x="314.639" y="-0.000101"/>
      <point x="324.389" y="-0.000101" type="curve" smooth="yes"/>
      <point x="580.159" y="-0.000101" type="line" smooth="yes"/>
      <point x="589.909" y="-0.000101"/>
      <point x="595.159" y="5.0099"/>
      <point x="595.159" y="14.7599" type="curve" smooth="yes"/>
      <point x="595.159" y="44.7599" type="line" smooth="yes"/>
      <point x="595.159" y="54.5099"/>
      <point x="589.909" y="59.7599"/>
      <point x="580.159" y="59.7599" type="curve" smooth="yes"/>
    </contour>
  </outline>
</glyph>
<glyph name="braceleft" format="1">
  <advance width="452.753"/>
  <unicode hex="007B"/>
  <outline>
    <contour>
      <point x="80.01" y="322.54" type="line" smooth="yes"/>
      <point x="80" y="332.23"/>
      <point x="85.21" y="337.32"/>
      <point x="94.95" y="337.67" type="curve" smooth="yes"/>
      <point x="157.63" y="339.97"/>
      <point x="216.01" y="358.16"/>
      <point x="216.01" y="428.7" type="curve" smooth="yes"/>
      <point x="216.01" y="479.41"/>
      <point x="168.68" y="534.37"/>
      <point x="173.01" y="625.82" type="curve" smooth="yes"/>
      <point x="177.64" y="723.76"/>
      <point x="272.51" y="756.33"/>
      <point x="322.2" y="769.05" type="curve" smooth="yes"/>
      <point x="329.82" y="771.01"/>
      <point x="335.69" y="769.58"/>
      <point x="341.88" y="764.53" type="curve" smooth="yes"/>
      <point x="351.91" y="756.34" type="line" smooth="yes"/>
      <point x="355.848" y="753.125"/>
      <point x="357.755" y="749.76"/>
      <point x="357.755" y="746.6" type="curve" smooth="yes"/>
      <point x="357.755" y="742.289"/>
      <point x="354.206" y="738.359"/>
      <point x="347.42" y="735.71" type="curve" smooth="yes"/>
      <point x="286.48" y="712.02"/>
      <point x="266.2" y="685.26"/>
      <point x="266.2" y="663.91" type="curve" smooth="yes"/>
      <point x="266.2" y="603.45"/>
      <point x="346.51" y="532.07"/>
      <point x="346.51" y="458.4" type="curve" smooth="yes"/>
      <point x="346.51" y="358.18"/>
      <point x="276.61" y="326.24"/>
      <point x="191.35" y="305.68" type="curve"/>
      <point x="276.61" y="285.12"/>
      <point x="346.51" y="253.18"/>
      <point x="346.51" y="152.97" type="curve" smooth="yes"/>
      <point x="346.51" y="79.3"/>
      <point x="266.2" y="7.92001"/>
      <point x="266.2" y="-53" type="curve" smooth="yes"/>
      <point x="266.2" y="-74"/>
      <point x="286.48" y="-101"/>
      <point x="347.41" y="-124" type="curve"/>
      <point x="354.202" y="-126.885"/>
      <point x="357.75" y="-130.769"/>
      <point x="357.75" y="-135.076" type="curve" smooth="yes"/>
      <point x="357.75" y="-138.233"/>
      <point x="355.844" y="-141.616"/>
      <point x="351.91" y="-145" type="curve"/>
      <point x="341.88" y="-153" type="line" smooth="yes"/>
      <point x="337.289" y="-156.708"/>
      <point x="332.874" y="-158.766"/>
      <point x="327.791" y="-158.766" type="curve" smooth="yes"/>
      <point x="326.02" y="-158.766"/>
      <point x="324.169" y="-158.517"/>
      <point x="322.2" y="-158" type="curve" smooth="yes"/>
      <point x="271" y="-144"/>
      <point x="172.77" y="-110"/>
      <point x="172.77" y="-3.99999" type="curve" smooth="yes"/>
      <point x="172.77" y="81.45"/>
      <point x="216.01" y="134"/>
      <point x="216.01" y="182.67" type="curve" smooth="yes"/>
      <point x="216.01" y="253.21"/>
      <point x="157.63" y="271.41"/>
      <point x="94.96" y="273.7" type="curve" smooth="yes"/>
      <point x="85.22" y="274.05"/>
      <point x="80.01" y="279.14"/>
      <point x="80.01" y="288.82" type="curve"/>
    </contour>
  </outline>
</glyph>
<glyph name="asciitilde" format="1">
  <advance width="705.284"/>
  <unicode hex="007E"/>
  <outline>
    <contour>
      <point x="579.16" y="343.54" type="line" smooth="yes"/>
      <point x="568.262" y="343.54"/>
      <point x="564.579" y="337"/>
      <point x="564.579" y="325.128" type="curve" smooth="yes"/>
      <point x="564.579" y="305.118"/>
      <point x="559.392" y="278.04"/>
      <point x="523.03" y="278.04" type="curve" smooth="yes"/>
      <point x="427.78" y="278.04"/>
      <point x="361.69" y="396.52"/>
      <point x="198.54" y="396.52" type="curve" smooth="yes"/>
      <point x="38.015" y="396.52"/>
      <point x="31.71" y="273.688"/>
      <point x="31.71" y="213.696" type="curve" smooth="yes"/>
      <point x="31.71" y="204.161"/>
      <point x="36.9984" y="199.02"/>
      <point x="46.72" y="199.02" type="curve" smooth="yes"/>
      <point x="126.41" y="199.02" type="line" smooth="yes"/>
      <point x="137.116" y="199.02"/>
      <point x="141.081" y="205.359"/>
      <point x="141.081" y="216.8" type="curve" smooth="yes"/>
      <point x="141.081" y="242.898"/>
      <point x="147.343" y="286.52"/>
      <point x="198.54" y="286.52" type="curve" smooth="yes"/>
      <point x="311.54" y="286.52"/>
      <point x="383.62" y="168.04"/>
      <point x="534.07" y="168.04" type="curve" smooth="yes"/>
      <point x="658.38" y="168.04"/>
      <point x="678.18" y="268.93"/>
      <point x="674.97" y="329.45" type="curve" smooth="yes"/>
      <point x="674.48" y="338.75"/>
      <point x="668.86" y="343.54"/>
      <point x="659.4" y="343.54" type="curve" smooth="yes"/>
    </contour>
  </outline>
</glyph>
<glyph name="exclamdown" format="1">
  <advance width="374.414"/>
  <unicode hex="00A1"/>
  <outline>
    <contour>
      <point x="99.48" y="412.68" type="line" smooth="yes"/>
      <point x="86.84" y="425.32"/>
      <point x="80.52" y="438.445"/>
      <point x="80.52" y="451.57" type="curve" smooth="yes"/>
      <point x="80.52" y="464.695"/>
      <point x="86.84" y="477.82"/>
      <point x="99.48" y="490.46" type="curve" smooth="yes"/>
      <point x="138.58" y="529.55" type="line" smooth="yes"/>
      <point x="151.22" y="542.05"/>
      <point x="164.345" y="548.3"/>
      <point x="177.47" y="548.3" type="curve" smooth="yes"/>
      <point x="190.595" y="548.3"/>
      <point x="203.72" y="542.05"/>
      <point x="216.36" y="529.55" type="curve" smooth="yes"/>
      <point x="255.46" y="490.46" type="line" smooth="yes"/>
      <point x="268.095" y="477.82"/>
      <point x="274.413" y="464.695"/>
      <point x="274.413" y="451.57" type="curve" smooth="yes"/>
      <point x="274.413" y="438.445"/>
      <point x="268.095" y="425.32"/>
      <point x="255.46" y="412.68" type="curve" smooth="yes"/>
      <point x="216.36" y="373.58" type="line" smooth="yes"/>
      <point x="203.685" y="360.905"/>
      <point x="190.522" y="354.585"/>
      <point x="177.36" y="354.585" type="curve" smooth="yes"/>
      <point x="164.272" y="354.585"/>
      <point x="151.185" y="360.835"/>
      <point x="138.58" y="373.3" type="curve" smooth="yes"/>
    </contour>
    <contour>
      <point x="99.48" y="-187.22" type="line" smooth="yes"/>
      <point x="87.089" y="-174.829"/>
      <point x="80.512" y="-161.967"/>
      <point x="80.512" y="-149.105" type="curve" smooth="yes"/>
      <point x="80.512" y="-96.883"/>
      <point x="117.481" y="41.6877"/>
      <point x="128.12" y="179.01" type="curve" smooth="yes"/>
      <point x="132.76" y="238.92"/>
      <point x="132.96" y="247.64"/>
      <point x="133.13" y="256.01" type="curve" smooth="yes"/>
      <point x="133.29" y="264.16"/>
      <point x="138.16" y="268.4"/>
      <point x="146.3" y="268.4" type="curve" smooth="yes"/>
      <point x="208.82" y="268.4" type="line" smooth="yes"/>
      <point x="216.96" y="268.4"/>
      <point x="221.83" y="264.16"/>
      <point x="221.99" y="256.01" type="curve" smooth="yes"/>
      <point x="222.16" y="247.63"/>
      <point x="222.34" y="238.91"/>
      <point x="227" y="178.99" type="curve" smooth="yes"/>
      <point x="237.518" y="43.6324"/>
      <point x="274.422" y="-97.034"/>
      <point x="274.422" y="-149.262" type="curve" smooth="yes"/>
      <point x="274.422" y="-162.072"/>
      <point x="267.791" y="-174.879"/>
      <point x="255.46" y="-187.22" type="curve" smooth="yes"/>
      <point x="216.36" y="-226.32" type="line" smooth="yes"/>
      <point x="203.72" y="-238.96"/>
      <point x="190.59" y="-245.28"/>
      <point x="177.47" y="-245.28" type="curve" smooth="yes"/>
      <point x="164.34" y="-245.28"/>
      <point x="151.22" y="-238.96"/>
      <point x="138.58" y="-226.32" type="curve" smooth="yes"/>
    </contour>
  </outline>
</glyph>
<glyph name="cent" format="1">
  <advance width="498.211"/>
  <unicode hex="00A2"/>
  <outline>
    <contour>
      <point x="472.04" y="356.22" type="line" smooth="yes"/>
      <point x="479.696" y="358.257"/>
      <point x="483.887" y="362.831"/>
      <point x="483.887" y="369.629" type="curve" smooth="yes"/>
      <point x="483.887" y="370.973"/>
      <point x="483.724" y="372.404"/>
      <point x="483.39" y="373.92" type="curve" smooth="yes"/>
      <point x="470.039" y="434.419"/>
      <point x="427.205" y="497.273"/>
      <point x="315.67" y="509.625" type="curve"/>
      <point x="315.67" y="688.95" type="line" smooth="yes"/>
      <point x="315.67" y="698.7"/>
      <point x="310.42" y="703.95"/>
      <point x="300.67" y="703.95" type="curve" smooth="yes"/>
      <point x="232.85" y="703.95" type="line" smooth="yes"/>
      <point x="223.1" y="703.95"/>
      <point x="217.85" y="698.7"/>
      <point x="217.85" y="688.95" type="curve" smooth="yes"/>
      <point x="217.85" y="503.46" type="line"/>
      <point x="126.212" y="480.578"/>
      <point x="42.0153" y="407.99"/>
      <point x="30.9399" y="273.76" type="curve" smooth="yes"/>
      <point x="30.3098" y="266.122"/>
      <point x="29.9993" y="258.488"/>
      <point x="29.9993" y="250.881" type="curve" smooth="yes"/>
      <point x="29.9993" y="133.356"/>
      <point x="104.083" y="22.0684"/>
      <point x="217.85" y="-3.8375" type="curve"/>
      <point x="217.85" y="-180" type="line" smooth="yes"/>
      <point x="217.85" y="-189"/>
      <point x="223.1" y="-195"/>
      <point x="232.85" y="-195" type="curve" smooth="yes"/>
      <point x="300.67" y="-195" type="line" smooth="yes"/>
      <point x="310.42" y="-195"/>
      <point x="315.67" y="-189"/>
      <point x="315.67" y="-180" type="curve" smooth="yes"/>
      <point x="315.67" y="-5.3294" type="line"/>
      <point x="398.576" y="8.4902"/>
      <point x="449.106" y="52.8617"/>
      <point x="478.03" y="114.28" type="curve" smooth="yes"/>
      <point x="481.91" y="122.6"/>
      <point x="479.81" y="129.31"/>
      <point x="472.35" y="134.55" type="curve" smooth="yes"/>
      <point x="446" y="153.09" type="line" smooth="yes"/>
      <point x="442.811" y="155.333"/>
      <point x="439.793" y="156.434"/>
      <point x="436.963" y="156.434" type="curve" smooth="yes"/>
      <point x="432.554" y="156.434"/>
      <point x="428.603" y="153.76"/>
      <point x="425.18" y="148.57" type="curve" smooth="yes"/>
      <point x="395.5" y="104.23"/>
      <point x="352.27" y="81.23"/>
      <point x="313.91" y="77.23" type="curve" smooth="yes"/>
      <point x="307.384" y="76.5442"/>
      <point x="301.101" y="76.2106"/>
      <point x="295.052" y="76.2106" type="curve" smooth="yes"/>
      <point x="194.218" y="76.2106"/>
      <point x="158.791" y="168.924"/>
      <point x="158.791" y="268.109" type="curve" smooth="yes"/>
      <point x="158.791" y="280.614"/>
      <point x="159.354" y="293.222"/>
      <point x="160.42" y="305.76" type="curve" smooth="yes"/>
      <point x="166.268" y="374.463"/>
      <point x="196.786" y="432.17"/>
      <point x="260.29" y="432.17" type="curve" smooth="yes"/>
      <point x="319.066" y="432.17"/>
      <point x="345.975" y="398.514"/>
      <point x="341.99" y="341.52" type="curve"/>
      <point x="340.79" y="331.11" type="line"/>
      <point x="340.096" y="326.777"/>
      <point x="343.044" y="324.435"/>
      <point x="348.672" y="324.435" type="curve" smooth="yes"/>
      <point x="351.072" y="324.435"/>
      <point x="353.96" y="324.861"/>
      <point x="357.26" y="325.74" type="curve" smooth="yes"/>
    </contour>
  </outline>
</glyph>
<glyph name="sterling" format="1">
  <advance width="697.169"/>
  <unicode hex="00A3"/>
  <outline>
    <contour>
      <point x="636.9" y="232.55" type="line" smooth="yes"/>
      <point x="633.76" y="234.36"/>
      <point x="630.8" y="235.26"/>
      <point x="628.05" y="235.26" type="curve" smooth="yes"/>
      <point x="623.19" y="235.26"/>
      <point x="619.02" y="232.44"/>
      <point x="615.79" y="226.89" type="curve" smooth="yes"/>
      <point x="612.57" y="221.36" type="line" smooth="yes"/>
      <point x="525.23" y="77.89"/>
      <point x="422.07" y="71"/>
      <point x="229.2" y="71" type="curve"/>
      <point x="274.57" y="92.06"/>
      <point x="348.6" y="155.32"/>
      <point x="348.6" y="247.83" type="curve"/>
      <point x="347.77" y="271.46" type="line"/>
      <point x="548.51" y="271.46" type="line" smooth="yes"/>
      <point x="558.26" y="271.46"/>
      <point x="563.51" y="276.71"/>
      <point x="563.51" y="286.46" type="curve" smooth="yes"/>
      <point x="563.51" y="343.1" type="line" smooth="yes"/>
      <point x="563.51" y="352.85"/>
      <point x="558.26" y="358.1"/>
      <point x="548.51" y="358.1" type="curve" smooth="yes"/>
      <point x="328.499" y="358.1" type="line"/>
      <point x="299.162" y="435.212"/>
      <point x="248.07" y="485.805"/>
      <point x="248.07" y="574.24" type="curve" smooth="yes"/>
      <point x="248.07" y="645.5"/>
      <point x="303.19" y="669.61"/>
      <point x="342.34" y="669.61" type="curve" smooth="yes"/>
      <point x="421.15" y="669.61"/>
      <point x="492.18" y="627.24"/>
      <point x="577.29" y="521.11" type="curve" smooth="yes"/>
      <point x="582.96" y="514.05"/>
      <point x="588.42" y="510.16"/>
      <point x="594.97" y="510.16" type="curve" smooth="yes"/>
      <point x="598.35" y="510.16"/>
      <point x="602.02" y="511.2"/>
      <point x="606.16" y="513.38" type="curve" smooth="yes"/>
      <point x="640.21" y="531.31" type="line" smooth="yes"/>
      <point x="648.44" y="535.65"/>
      <point x="651.5" y="540.28"/>
      <point x="651.5" y="546.17" type="curve" smooth="yes"/>
      <point x="651.5" y="550.16"/>
      <point x="650.09" y="554.74"/>
      <point x="647.94" y="560.19" type="curve" smooth="yes"/>
      <point x="577.38" y="739.23" type="line" smooth="yes"/>
      <point x="572.92" y="750.55"/>
      <point x="565.23" y="755.8"/>
      <point x="553.07" y="755.82" type="curve" smooth="yes"/>
      <point x="516.37" y="755.82" type="line" smooth="yes"/>
      <point x="504.33" y="755.91"/>
      <point x="498.55" y="750.54"/>
      <point x="498.55" y="741.1" type="curve" smooth="yes"/>
      <point x="498.55" y="738.3"/>
      <point x="499.06" y="735.15"/>
      <point x="500.06" y="731.68" type="curve" smooth="yes"/>
      <point x="502.2" y="724.262"/>
      <point x="503.605" y="717.06"/>
      <point x="503.605" y="711.619" type="curve" smooth="yes"/>
      <point x="503.605" y="705.873"/>
      <point x="502.039" y="702.09"/>
      <point x="498.12" y="702.09" type="curve" smooth="yes"/>
      <point x="496.47" y="702.09"/>
      <point x="494.41" y="702.76"/>
      <point x="491.86" y="704.24" type="curve" smooth="yes"/>
      <point x="467.37" y="718.47"/>
      <point x="415.81" y="752.72"/>
      <point x="329.57" y="752.72" type="curve" smooth="yes"/>
      <point x="224.35" y="752.72"/>
      <point x="93.51" y="717.23"/>
      <point x="93.51" y="570.19" type="curve" smooth="yes"/>
      <point x="93.51" y="468.436"/>
      <point x="145.669" y="418.182"/>
      <point x="181.139" y="358.1" type="curve"/>
      <point x="103.72" y="358.1" type="line" smooth="yes"/>
      <point x="93.9699" y="358.1"/>
      <point x="88.7199" y="352.85"/>
      <point x="88.7199" y="343.1" type="curve" smooth="yes"/>
      <point x="88.7199" y="286.46" type="line" smooth="yes"/>
      <point x="88.7199" y="276.71"/>
      <point x="93.9699" y="271.46"/>
      <point x="103.72" y="271.46" type="curve" smooth="yes"/>
      <point x="212.037" y="271.46" type="line"/>
      <point x="212.835" y="264.287"/>
      <point x="213.26" y="256.822"/>
      <point x="213.26" y="249.02" type="curve" smooth="yes"/>
      <point x="213.26" y="153.55"/>
      <point x="121.72" y="60.0001"/>
      <point x="34.45" y="60.0001" type="curve" smooth="yes"/>
      <point x="33.45" y="60.0001" type="line" smooth="yes"/>
      <point x="23.7" y="60.0001"/>
      <point x="18.45" y="54.7501"/>
      <point x="18.45" y="45.0001" type="curve" smooth="yes"/>
      <point x="18.45" y="15.0001" type="line" smooth="yes"/>
      <point x="18.45" y="5.2501"/>
      <point x="23.7" y="0.000104824"/>
      <point x="33.45" y="0.000104824" type="curve" smooth="yes"/>
      <point x="534.9" y="0.000104824" type="line" smooth="yes"/>
      <point x="542.32" y="0.000104824"/>
      <point x="548.24" y="0.000104824"/>
      <point x="554.05" y="-4.9999" type="curve" smooth="yes"/>
      <point x="559.62" y="-9.9999" type="line"/>
      <point x="562.55" y="-12.9999"/>
      <point x="565.7" y="-13.9999"/>
      <point x="568.71" y="-13.9999" type="curve" smooth="yes"/>
      <point x="573.64" y="-13.9999"/>
      <point x="578.19" y="-10.9999"/>
      <point x="580.73" y="-4.9999" type="curve"/>
      <point x="674.43" y="192.97" type="line"/>
      <point x="676.26" y="196.09"/>
      <point x="677.17" y="199.06"/>
      <point x="677.17" y="201.8" type="curve" smooth="yes"/>
      <point x="677.17" y="206.67"/>
      <point x="674.33" y="210.86"/>
      <point x="668.77" y="214.08" type="curve" smooth="yes"/>
    </contour>
  </outline>
</glyph>
<glyph name="brokenbar" format="1">
  <advance width="600"/>
  <unicode hex="00A6"/>
  <outline>
    <contour>
      <point x="250.85" y="429.75" type="line" smooth="yes"/>
      <point x="250.85" y="420"/>
      <point x="256.1" y="414.75"/>
      <point x="265.85" y="414.75" type="curve" smooth="yes"/>
      <point x="333.67" y="414.75" type="line" smooth="yes"/>
      <point x="343.42" y="414.75"/>
      <point x="348.67" y="420"/>
      <point x="348.67" y="429.75" type="curve" smooth="yes"/>
      <point x="348.67" y="758.95" type="line" smooth="yes"/>
      <point x="348.67" y="768.7"/>
      <point x="343.42" y="773.95"/>
      <point x="333.67" y="773.95" type="curve" smooth="yes"/>
      <point x="265.85" y="773.95" type="line" smooth="yes"/>
      <point x="256.1" y="773.95"/>
      <point x="250.85" y="768.7"/>
      <point x="250.85" y="758.95" type="curve" smooth="yes"/>
    </contour>
    <contour>
      <point x="250.85" y="-132" type="line" smooth="yes"/>
      <point x="250.85" y="-142"/>
      <point x="256.1" y="-147"/>
      <point x="265.85" y="-147" type="curve" smooth="yes"/>
      <point x="333.67" y="-147" type="line" smooth="yes"/>
      <point x="343.42" y="-147"/>
      <point x="348.67" y="-142"/>
      <point x="348.67" y="-132" type="curve" smooth="yes"/>
      <point x="348.67" y="197.21" type="line" smooth="yes"/>
      <point x="348.67" y="206.96"/>
      <point x="343.42" y="212.21"/>
      <point x="333.67" y="212.21" type="curve" smooth="yes"/>
      <point x="265.85" y="212.21" type="line" smooth="yes"/>
      <point x="256.1" y="212.21"/>
      <point x="250.85" y="206.96"/>
      <point x="250.85" y="197.21" type="curve" smooth="yes"/>
    </contour>
  </outline>
</glyph>
<glyph name="guillemotleft" format="1">
  <advance width="677.919"/>
  <unicode hex="00AB"/>
  <outline>
    <contour>
      <point x="93" y="257.28" type="line" smooth="yes"/>
      <point x="89.64" y="260.74"/>
      <point x="87.96" y="264.31"/>
      <point x="87.96" y="267.88" type="curve" smooth="yes"/>
      <point x="87.96" y="271.45"/>
      <point x="89.64" y="275.02"/>
      <point x="93" y="278.48" type="curve" smooth="yes"/>
      <point x="286.82" y="478.24" type="line" smooth="yes"/>
      <point x="290.269" y="481.791"/>
      <point x="293.881" y="483.569"/>
      <point x="297.518" y="483.569" type="curve" smooth="yes"/>
      <point x="301.04" y="483.569"/>
      <point x="304.586" y="481.901"/>
      <point x="308.03" y="478.56" type="curve" smooth="yes"/>
      <point x="335.91" y="451.51" type="line" smooth="yes"/>
      <point x="339.54" y="447.987"/>
      <point x="341.356" y="444.286"/>
      <point x="341.356" y="440.473" type="curve" smooth="yes"/>
      <point x="341.356" y="437.174"/>
      <point x="339.998" y="433.793"/>
      <point x="337.28" y="430.37" type="curve" smooth="yes"/>
      <point x="208.11" y="267.88" type="line"/>
      <point x="336.32" y="103.44" type="line" smooth="yes"/>
      <point x="338.978" y="100.03"/>
      <point x="340.307" y="96.6751"/>
      <point x="340.307" y="93.415" type="curve" smooth="yes"/>
      <point x="340.307" y="89.5616"/>
      <point x="338.451" y="85.841"/>
      <point x="334.74" y="82.32" type="curve" smooth="yes"/>
      <point x="308.08" y="57.02" type="line" smooth="yes"/>
      <point x="304.636" y="53.7522"/>
      <point x="301.106" y="52.1189"/>
      <point x="297.607" y="52.1189" type="curve" smooth="yes"/>
      <point x="293.953" y="52.1189"/>
      <point x="290.333" y="53.8997"/>
      <point x="286.88" y="57.46" type="curve" smooth="yes"/>
    </contour>
    <contour>
      <point x="342.56" y="257.28" type="line" smooth="yes"/>
      <point x="339.2" y="260.74"/>
      <point x="337.52" y="264.31"/>
      <point x="337.52" y="267.88" type="curve" smooth="yes"/>
      <point x="337.52" y="271.45"/>
      <point x="339.2" y="275.02"/>
      <point x="342.56" y="278.48" type="curve" smooth="yes"/>
      <point x="536.38" y="478.24" type="line" smooth="yes"/>
      <point x="539.829" y="481.791"/>
      <point x="543.441" y="483.569"/>
      <point x="547.078" y="483.569" type="curve" smooth="yes"/>
      <point x="550.6" y="483.569"/>
      <point x="554.146" y="481.901"/>
      <point x="557.59" y="478.56" type="curve" smooth="yes"/>
      <point x="585.47" y="451.51" type="line" smooth="yes"/>
      <point x="589.1" y="447.987"/>
      <point x="590.916" y="444.286"/>
      <point x="590.916" y="440.473" type="curve" smooth="yes"/>
      <point x="590.916" y="437.174"/>
      <point x="589.558" y="433.793"/>
      <point x="586.84" y="430.37" type="curve" smooth="yes"/>
      <point x="457.67" y="267.88" type="line"/>
      <point x="585.88" y="103.44" type="line" smooth="yes"/>
      <point x="588.538" y="100.03"/>
      <point x="589.867" y="96.6751"/>
      <point x="589.867" y="93.415" type="curve" smooth="yes"/>
      <point x="589.867" y="89.5616"/>
      <point x="588.011" y="85.841"/>
      <point x="584.3" y="82.32" type="curve" smooth="yes"/>
      <point x="557.64" y="57.02" type="line" smooth="yes"/>
      <point x="554.196" y="53.7522"/>
      <point x="550.666" y="52.1189"/>
      <point x="547.167" y="52.1189" type="curve" smooth="yes"/>
      <point x="543.513" y="52.1189"/>
      <point x="539.893" y="53.8997"/>
      <point x="536.44" y="57.46" type="curve" smooth="yes"/>
    </contour>
  </outline>
</glyph>
<glyph name="logicalnot" format="1">
  <advance width="600"/>
  <unicode hex="00AC"/>
  <outline>
    <contour>
      <point x="472.43" y="322.35" type="line"/>
      <point x="52.61" y="322.34" type="line" smooth="yes"/>
      <point x="42.86" y="322.34"/>
      <point x="37.61" y="317.09"/>
      <point x="37.61" y="307.34" type="curve" smooth="yes"/>
      <point x="37.61" y="220.7" type="line" smooth="yes"/>
      <point x="37.61" y="210.95"/>
      <point x="42.86" y="205.7"/>
      <point x="52.61" y="205.7" type="curve" smooth="yes"/>
      <point x="457.43" y="205.7" type="line"/>
      <point x="457.43" y="16.63" type="line" smooth="yes"/>
      <point x="457.43" y="6.88"/>
      <point x="462.68" y="1.63"/>
      <point x="472.43" y="1.63" type="curve" smooth="yes"/>
      <point x="559.07" y="1.63" type="line" smooth="yes"/>
      <point x="568.82" y="1.63"/>
      <point x="574.07" y="6.88"/>
      <point x="574.07" y="16.63" type="curve" smooth="yes"/>
      <point x="574.07" y="307.35" type="line" smooth="yes"/>
      <point x="574.07" y="317.1"/>
      <point x="568.82" y="322.35"/>
      <point x="559.07" y="322.35" type="curve" smooth="yes"/>
    </contour>
  </outline>
</glyph>
<glyph name="plusminus" format="1">
  <advance width="600"/>
  <unicode hex="00B1"/>
  <outline>
    <contour>
      <point x="241.68" y="315.7" type="line"/>
      <point x="241.68" y="196.63" type="line" smooth="yes"/>
      <point x="241.68" y="186.88"/>
      <point x="246.93" y="181.63"/>
      <point x="256.68" y="181.63" type="curve" smooth="yes"/>
      <point x="343.32" y="181.63" type="line" smooth="yes"/>
      <point x="353.07" y="181.63"/>
      <point x="358.32" y="186.88"/>
      <point x="358.32" y="196.63" type="curve" smooth="yes"/>
      <point x="358.32" y="315.7" type="line"/>
      <point x="547.39" y="315.7" type="line" smooth="yes"/>
      <point x="557.14" y="315.7"/>
      <point x="562.39" y="320.95"/>
      <point x="562.39" y="330.7" type="curve" smooth="yes"/>
      <point x="562.39" y="417.34" type="line" smooth="yes"/>
      <point x="562.39" y="427.09"/>
      <point x="557.14" y="432.34"/>
      <point x="547.39" y="432.34" type="curve" smooth="yes"/>
      <point x="358.32" y="432.34" type="line"/>
      <point x="358.32" y="551.42" type="line" smooth="yes"/>
      <point x="358.32" y="561.17"/>
      <point x="353.07" y="566.42"/>
      <point x="343.32" y="566.42" type="curve" smooth="yes"/>
      <point x="256.68" y="566.42" type="line" smooth="yes"/>
      <point x="246.93" y="566.42"/>
      <point x="241.68" y="561.17"/>
      <point x="241.68" y="551.42" type="curve" smooth="yes"/>
      <point x="241.68" y="432.34" type="line"/>
      <point x="52.61" y="432.34" type="line" smooth="yes"/>
      <point x="42.86" y="432.34"/>
      <point x="37.61" y="427.09"/>
      <point x="37.61" y="417.34" type="curve" smooth="yes"/>
      <point x="37.61" y="330.7" type="line" smooth="yes"/>
      <point x="37.61" y="320.95"/>
      <point x="42.86" y="315.7"/>
      <point x="52.61" y="315.7" type="curve" smooth="yes"/>
    </contour>
    <contour>
      <point x="47.61" y="116.64" type="line" smooth="yes"/>
      <point x="37.86" y="116.64"/>
      <point x="32.61" y="111.39"/>
      <point x="32.61" y="101.64" type="curve" smooth="yes"/>
      <point x="32.61" y="15" type="line" smooth="yes"/>
      <point x="32.61" y="5.25"/>
      <point x="37.86" y="-1.42109e-14"/>
      <point x="47.61" y="-1.42109e-14" type="curve" smooth="yes"/>
      <point x="552.39" y="-1.42109e-14" type="line" smooth="yes"/>
      <point x="562.14" y="-1.42109e-14"/>
      <point x="567.39" y="5.25"/>
      <point x="567.39" y="15" type="curve" smooth="yes"/>
      <point x="567.39" y="101.64" type="line" smooth="yes"/>
      <point x="567.39" y="111.39"/>
      <point x="562.14" y="116.64"/>
      <point x="552.39" y="116.64" type="curve" smooth="yes"/>
    </contour>
  </outline>
</glyph>
<glyph name="acute" format="1">
  <advance width="600"/>
  <unicode hex="00B4"/>
  <outline>
    <contour>
      <point x="223.77" y="560.23" type="line" smooth="yes"/>
      <point x="227.098" y="558.628"/>
      <point x="230.093" y="557.808"/>
      <point x="233.188" y="557.808" type="curve" smooth="yes"/>
      <point x="235.384" y="557.808"/>
      <point x="237.63" y="558.221"/>
      <point x="240.08" y="559.06" type="curve" smooth="yes"/>
      <point x="299.81" y="579.5"/>
      <point x="400.89" y="639.54"/>
      <point x="400.89" y="721.46" type="curve" smooth="yes"/>
      <point x="400.89" y="756.342"/>
      <point x="369.303" y="772.36"/>
      <point x="331.102" y="772.36" type="curve" smooth="yes"/>
      <point x="324.862" y="772.36"/>
      <point x="318.445" y="771.933"/>
      <point x="311.96" y="771.09" type="curve" smooth="yes"/>
      <point x="301.91" y="769.78"/>
      <point x="296.86" y="765.19"/>
      <point x="294.3" y="758.41" type="curve" smooth="yes"/>
      <point x="269.37" y="692.93"/>
      <point x="250.75" y="658.74"/>
      <point x="187.39" y="577.73" type="curve"/>
    </contour>
    <contour>
      <point x="262.712" y="500" type="move" name="_top"/>
    </contour>
  </outline>
</glyph>
<glyph name="cedilla" format="1">
  <advance width="600"/>
  <unicode hex="00B8"/>
  <outline>
    <contour>
      <point x="147.83" y="-92" type="line" smooth="yes"/>
      <point x="145.927" y="-95.3444"/>
      <point x="145.031" y="-98.3533"/>
      <point x="145.031" y="-100.877" type="curve" smooth="yes"/>
      <point x="145.031" y="-105.899"/>
      <point x="148.58" y="-109"/>
      <point x="154.81" y="-109" type="curve" smooth="yes"/>
      <point x="172.33" y="-109"/>
      <point x="191.71" y="-103"/>
      <point x="211.51" y="-103" type="curve" smooth="yes"/>
      <point x="257.48" y="-103"/>
      <point x="288.75" y="-119"/>
      <point x="288.75" y="-153" type="curve" smooth="yes"/>
      <point x="288.75" y="-177"/>
      <point x="267.62" y="-185"/>
      <point x="240.63" y="-185" type="curve" smooth="yes"/>
      <point x="213.14" y="-185"/>
      <point x="179.56" y="-177"/>
      <point x="156.08" y="-169" type="curve"/>
      <point x="146.12" y="-166"/>
      <point x="139.77" y="-169"/>
      <point x="139.77" y="-178" type="curve" smooth="yes"/>
      <point x="139.77" y="-198"/>
      <point x="140.69" y="-227"/>
      <point x="160.04" y="-235" type="curve" smooth="yes"/>
      <point x="196.11" y="-250"/>
      <point x="229.85" y="-256"/>
      <point x="259.79" y="-256" type="curve" smooth="yes"/>
      <point x="337.75" y="-256"/>
      <point x="389.88" y="-212"/>
      <point x="389.88" y="-153" type="curve" smooth="yes"/>
      <point x="389.88" y="-82"/>
      <point x="330.26" y="-52"/>
      <point x="276.63" y="-52" type="curve" smooth="yes"/>
      <point x="260.54" y="-52"/>
      <point x="244.88" y="-55"/>
      <point x="231.3" y="-60" type="curve"/>
      <point x="298.6" y="21.48" type="line" smooth="yes"/>
      <point x="301.5" y="24.99"/>
      <point x="302.88" y="28.31"/>
      <point x="302.88" y="31.15" type="curve" smooth="yes"/>
      <point x="302.88" y="36.32"/>
      <point x="298.27" y="39.85"/>
      <point x="289.95" y="39.86" type="curve" smooth="yes"/>
      <point x="238.14" y="39.86" type="line" smooth="yes"/>
      <point x="229.9" y="39.88"/>
      <point x="224.43" y="36.77"/>
      <point x="220.22" y="29.69" type="curve" smooth="yes"/>
    </contour>
    <contour>
      <point x="235.385" y="0" type="move" name="_bottom"/>
    </contour>
  </outline>
</glyph>
<glyph name="onesuperior" format="1">
  <advance width="330.369"/>
  <unicode hex="00B9"/>
  <outline>
    <contour>
      <point x="226.93" y="667.75" type="line"/>
      <point x="226.93" y="732.62"/>
      <point x="240.52" y="759.34"/>
      <point x="282.74" y="762.42" type="curve" smooth="yes"/>
      <point x="298.83" y="763.86" type="line"/>
      <point x="306.33" y="763.86"/>
      <point x="310.37" y="767.9"/>
      <point x="310.37" y="775.4" type="curve" smooth="yes"/>
      <point x="310.37" y="798.57" type="line" smooth="yes"/>
      <point x="310.37" y="806.07"/>
      <point x="306.33" y="810.11"/>
      <point x="298.83" y="810.11" type="curve"/>
      <point x="209.73" y="794.72"/>
      <point x="130.64" y="787.03"/>
      <point x="41.54" y="787.03" type="curve" smooth="yes"/>
      <point x="34.04" y="787.03"/>
      <point x="30" y="782.99"/>
      <point x="30" y="775.49" type="curve" smooth="yes"/>
      <point x="30" y="752.32" type="line" smooth="yes"/>
      <point x="30" y="744.82"/>
      <point x="34.04" y="740.78"/>
      <point x="41.54" y="740.78" type="curve" smooth="yes"/>
      <point x="104.07" y="740.78"/>
      <point x="114.01" y="709.55"/>
      <point x="114.01" y="667.75" type="curve" smooth="yes"/>
      <point x="114.01" y="511.92" type="line" smooth="yes"/>
      <point x="114.01" y="471.408"/>
      <point x="101.26" y="440.735"/>
      <point x="62.0497" y="438.87" type="curve"/>
      <point x="41.54" y="438.87" type="line" smooth="yes"/>
      <point x="34.04" y="438.87"/>
      <point x="30" y="434.83"/>
      <point x="30" y="427.33" type="curve" smooth="yes"/>
      <point x="30" y="404.16" type="line" smooth="yes"/>
      <point x="30" y="396.66"/>
      <point x="34.04" y="392.62"/>
      <point x="41.54" y="392.62" type="curve" smooth="yes"/>
      <point x="298.83" y="392.62" type="line" smooth="yes"/>
      <point x="306.33" y="392.62"/>
      <point x="310.37" y="396.66"/>
      <point x="310.37" y="404.16" type="curve" smooth="yes"/>
      <point x="310.37" y="427.33" type="line" smooth="yes"/>
      <point x="310.37" y="434.83"/>
      <point x="306.33" y="438.87"/>
      <point x="298.83" y="438.87" type="curve" smooth="yes"/>
      <point x="278.891" y="438.87" type="line"/>
      <point x="239.69" y="440.735"/>
      <point x="226.93" y="471.408"/>
      <point x="226.93" y="511.92" type="curve"/>
    </contour>
  </outline>
</glyph>
<glyph name="ordmasculine" format="1">
  <advance width="458.138"/>
  <unicode hex="00BA"/>
  <outline>
    <contour>
      <point x="75.7286" y="703.329"/>
      <point x="29.7715" y="625.149"/>
      <point x="29.7715" y="542.353" type="curve" smooth="yes"/>
      <point x="29.7715" y="511.958"/>
      <point x="35.9649" y="480.941"/>
      <point x="49.01" y="451.21" type="curve" smooth="yes"/>
      <point x="85.7345" y="368.725"/>
      <point x="165.619" y="319.329"/>
      <point x="248.408" y="319.329" type="curve" smooth="yes"/>
      <point x="276.757" y="319.329"/>
      <point x="305.446" y="325.121"/>
      <point x="332.86" y="337.36" type="curve" smooth="yes"/>
      <point x="411.4" y="372.333"/>
      <point x="457.729" y="450.414"/>
      <point x="457.729" y="533.135" type="curve" smooth="yes"/>
      <point x="457.729" y="563.594"/>
      <point x="451.448" y="594.683"/>
      <point x="438.18" y="624.48" type="curve" smooth="yes"/>
      <point x="401.449" y="706.979"/>
      <point x="321.543" y="756.306"/>
      <point x="238.744" y="756.306" type="curve" smooth="yes"/>
      <point x="210.41" y="756.306"/>
      <point x="181.737" y="750.53"/>
      <point x="154.34" y="738.33" type="curve" smooth="yes"/>
    </contour>
    <contour>
      <point x="190.65" y="687.246"/>
      <point x="201.785" y="689.558"/>
      <point x="212.616" y="689.558" type="curve" smooth="yes"/>
      <point x="263.953" y="689.558"/>
      <point x="308.488" y="637.608"/>
      <point x="334.83" y="578.45" type="curve" smooth="yes"/>
      <point x="349.021" y="546.574"/>
      <point x="358.123" y="512.169"/>
      <point x="358.123" y="481.246" type="curve" smooth="yes"/>
      <point x="358.123" y="442.681"/>
      <point x="343.967" y="409.533"/>
      <point x="307.87" y="393.46" type="curve" smooth="yes"/>
      <point x="296.523" y="388.385"/>
      <point x="285.371" y="386.06"/>
      <point x="274.523" y="386.06" type="curve" smooth="yes"/>
      <point x="223.213" y="386.06"/>
      <point x="178.694" y="438.083"/>
      <point x="152.37" y="497.22" type="curve" smooth="yes"/>
      <point x="138.174" y="529.096"/>
      <point x="129.072" y="563.501"/>
      <point x="129.072" y="594.423" type="curve" smooth="yes"/>
      <point x="129.072" y="632.987"/>
      <point x="143.229" y="666.133"/>
      <point x="179.32" y="682.2" type="curve" smooth="yes"/>
    </contour>
  </outline>
</glyph>
<glyph name="onequarter" format="1">
  <advance width="776.363"/>
  <unicode hex="00BC"/>
  <outline>
    <contour>
      <point x="300.2" y="392.62" type="line" smooth="yes"/>
      <point x="307.7" y="392.62"/>
      <point x="311.74" y="396.66"/>
      <point x="311.74" y="404.16" type="curve" smooth="yes"/>
      <point x="311.74" y="427.33" type="line" smooth="yes"/>
      <point x="311.74" y="434.83"/>
      <point x="307.7" y="438.87"/>
      <point x="300.2" y="438.87" type="curve" smooth="yes"/>
      <point x="280.27" y="438.87" type="line"/>
      <point x="241.06" y="440.735"/>
      <point x="228.31" y="471.408"/>
      <point x="228.31" y="511.92" type="curve" smooth="yes"/>
      <point x="228.31" y="667.75" type="line" smooth="yes"/>
      <point x="228.31" y="732.62"/>
      <point x="241.89" y="759.34"/>
      <point x="284.11" y="762.42" type="curve" smooth="yes"/>
      <point x="300.21" y="763.86" type="line"/>
      <point x="307.71" y="763.86"/>
      <point x="311.75" y="767.9"/>
      <point x="311.75" y="775.4" type="curve" smooth="yes"/>
      <point x="311.75" y="798.57" type="line" smooth="yes"/>
      <point x="311.75" y="806.07"/>
      <point x="307.71" y="810.11"/>
      <point x="300.21" y="810.11" type="curve"/>
      <point x="221.11" y="794.72"/>
      <point x="132.01" y="787.03"/>
      <point x="42.92" y="787.03" type="curve" smooth="yes"/>
      <point x="35.42" y="787.03"/>
      <point x="31.38" y="782.99"/>
      <point x="31.38" y="775.49" type="curve" smooth="yes"/>
      <point x="31.38" y="752.32" type="line" smooth="yes"/>
      <point x="31.38" y="744.82"/>
      <point x="35.42" y="740.78"/>
      <point x="42.92" y="740.78" type="curve" smooth="yes"/>
      <point x="105.45" y="740.78"/>
      <point x="115.38" y="709.55"/>
      <point x="115.38" y="667.75" type="curve" smooth="yes"/>
      <point x="115.38" y="566.76" type="line"/>
      <point x="115.39" y="511.92" type="line" smooth="yes"/>
      <point x="115.39" y="471.408"/>
      <point x="102.63" y="440.735"/>
      <point x="63.4288" y="438.87" type="curve"/>
      <point x="42.92" y="438.87" type="line" smooth="yes"/>
      <point x="35.42" y="438.87"/>
      <point x="31.38" y="434.83"/>
      <point x="31.38" y="427.33" type="curve" smooth="yes"/>
      <point x="31.38" y="404.16" type="line" smooth="yes"/>
      <point x="31.38" y="396.66"/>
      <point x="35.42" y="392.62"/>
      <point x="42.92" y="392.62" type="curve" smooth="yes"/>
    </contour>
    <contour>
      <point x="615.4" y="735.49" type="line" smooth="yes"/>
      <point x="607.42" y="735.49"/>
      <point x="601.99" y="732.49"/>
      <point x="597.13" y="726.49" type="curve" smooth="yes"/>
      <point x="43.92" y="7.32" type="line" smooth="yes"/>
      <point x="41.2648" y="3.77518"/>
      <point x="40.0019" y="0.504087"/>
      <point x="40.0019" y="-2.26309" type="curve" smooth="yes"/>
      <point x="40.0019" y="-7.55196"/>
      <point x="44.6155" y="-11"/>
      <point x="52.94" y="-11" type="curve" smooth="yes"/>
      <point x="94.19" y="-11" type="line" smooth="yes"/>
      <point x="102.17" y="-11"/>
      <point x="107.59" y="-8"/>
      <point x="112.46" y="-2" type="curve" smooth="yes"/>
      <point x="665.66" y="717.18" type="line" smooth="yes"/>
      <point x="668.315" y="720.721"/>
      <point x="669.578" y="723.99"/>
      <point x="669.578" y="726.756" type="curve" smooth="yes"/>
      <point x="669.578" y="732.042"/>
      <point x="664.965" y="735.49"/>
      <point x="656.64" y="735.49" type="curve" smooth="yes"/>
    </contour>
    <contour>
      <point x="658.99" y="54.57" type="line"/>
      <point x="658.99" y="162.21" type="line" smooth="yes"/>
      <point x="658.99" y="169.124"/>
      <point x="655.603" y="172.65"/>
      <point x="649.695" y="172.65" type="curve" smooth="yes"/>
      <point x="648.622" y="172.65"/>
      <point x="647.465" y="172.534"/>
      <point x="646.23" y="172.3" type="curve" smooth="yes"/>
      <point x="578.19" y="159.46" type="line" smooth="yes"/>
      <point x="571.36" y="158.17"/>
      <point x="568.13" y="153.69"/>
      <point x="568.13" y="146.75" type="curve" smooth="yes"/>
      <point x="568.13" y="54.57" type="line"/>
      <point x="430.85" y="54.57" type="line"/>
      <point x="484.055" y="117.109"/>
      <point x="625.898" y="267.96"/>
      <point x="625.898" y="361.688" type="curve" smooth="yes"/>
      <point x="625.898" y="370.592"/>
      <point x="624.618" y="378.981"/>
      <point x="621.86" y="386.73" type="curve" smooth="yes"/>
      <point x="618.88" y="395.14"/>
      <point x="614.3" y="399.05"/>
      <point x="602.91" y="401.83" type="curve" smooth="yes"/>
      <point x="507.63" y="425.06" type="line" smooth="yes"/>
      <point x="502.357" y="426.341"/>
      <point x="499.961" y="422.728"/>
      <point x="499.961" y="417.88" type="curve" smooth="yes"/>
      <point x="499.961" y="415.309"/>
      <point x="500.635" y="412.39"/>
      <point x="501.91" y="409.67" type="curve" smooth="yes"/>
      <point x="513.947" y="383.981"/>
      <point x="519.167" y="359.957"/>
      <point x="519.167" y="337.014" type="curve" smooth="yes"/>
      <point x="519.167" y="240.405"/>
      <point x="426.61" y="162.962"/>
      <point x="360.67" y="61.07" type="curve" smooth="yes"/>
      <point x="357.64" y="56.3"/>
      <point x="356.48" y="52.4"/>
      <point x="356.48" y="46.78" type="curve" smooth="yes"/>
      <point x="356.48" y="2.93" type="line" smooth="yes"/>
      <point x="356.48" y="-5"/>
      <point x="360.52" y="-9"/>
      <point x="368.02" y="-9" type="curve" smooth="yes"/>
      <point x="568.13" y="-9" type="line"/>
      <point x="568.13" y="-142" type="line" smooth="yes"/>
      <point x="568.13" y="-149"/>
      <point x="572.17" y="-153"/>
      <point x="579.67" y="-153" type="curve" smooth="yes"/>
      <point x="647.46" y="-153" type="line" smooth="yes"/>
      <point x="654.96" y="-153"/>
      <point x="658.99" y="-149"/>
      <point x="658.99" y="-142" type="curve" smooth="yes"/>
      <point x="658.99" y="-9" type="line"/>
      <point x="744.83" y="-9" type="line" smooth="yes"/>
      <point x="752.33" y="-9"/>
      <point x="756.36" y="-5"/>
      <point x="756.36" y="3" type="curve" smooth="yes"/>
      <point x="756.36" y="43.1" type="line" smooth="yes"/>
      <point x="756.36" y="50.6"/>
      <point x="752.33" y="54.64"/>
      <point x="744.83" y="54.64" type="curve" smooth="yes"/>
    </contour>
  </outline>
</glyph>
<glyph name="questiondown" format="1">
  <advance width="528.651"/>
  <unicode hex="00BF"/>
  <outline>
    <contour>
      <point x="353.4" y="413.03" type="line" smooth="yes"/>
      <point x="366.04" y="425.67"/>
      <point x="372.36" y="438.798"/>
      <point x="372.36" y="451.925" type="curve" smooth="yes"/>
      <point x="372.36" y="465.053"/>
      <point x="366.04" y="478.18"/>
      <point x="353.4" y="490.82" type="curve" smooth="yes"/>
      <point x="314.31" y="529.91" type="line" smooth="yes"/>
      <point x="301.67" y="542.41"/>
      <point x="288.545" y="548.66"/>
      <point x="275.42" y="548.66" type="curve" smooth="yes"/>
      <point x="262.295" y="548.66"/>
      <point x="249.17" y="542.41"/>
      <point x="236.53" y="529.91" type="curve" smooth="yes"/>
      <point x="197.43" y="490.82" type="line" smooth="yes"/>
      <point x="184.79" y="478.18"/>
      <point x="178.47" y="465.053"/>
      <point x="178.47" y="451.925" type="curve" smooth="yes"/>
      <point x="178.47" y="438.798"/>
      <point x="184.79" y="425.67"/>
      <point x="197.43" y="413.03" type="curve" smooth="yes"/>
      <point x="236.53" y="373.94" type="line" smooth="yes"/>
      <point x="249.205" y="361.265"/>
      <point x="262.368" y="354.945"/>
      <point x="275.53" y="354.945" type="curve" smooth="yes"/>
      <point x="288.618" y="354.945"/>
      <point x="301.705" y="361.195"/>
      <point x="314.31" y="373.66" type="curve" smooth="yes"/>
    </contour>
    <contour>
      <point x="288.15" y="-71.95" type="line" smooth="yes"/>
      <point x="281.42" y="-70.43"/>
      <point x="278.33" y="-75.01"/>
      <point x="278.33" y="-81.12" type="curve" smooth="yes"/>
      <point x="278.33" y="-84.57"/>
      <point x="279.32" y="-88.51"/>
      <point x="281.18" y="-92.12" type="curve" smooth="yes"/>
      <point x="294.35" y="-117.6"/>
      <point x="299.75" y="-139.73"/>
      <point x="299.75" y="-157.95" type="curve" smooth="yes"/>
      <point x="299.75" y="-194.95"/>
      <point x="267.46" y="-215.8"/>
      <point x="242.67" y="-215.8" type="curve" smooth="yes"/>
      <point x="209.18" y="-215.8"/>
      <point x="167.43" y="-198.79"/>
      <point x="167.43" y="-119.68" type="curve" smooth="yes"/>
      <point x="167.43" y="13.61"/>
      <point x="332.95" y="10.71"/>
      <point x="324.77" y="179.36" type="curve" smooth="yes"/>
      <point x="321.85" y="239.39"/>
      <point x="319.93" y="248"/>
      <point x="319.76" y="256.37" type="curve" smooth="yes"/>
      <point x="319.6" y="264.51"/>
      <point x="314.73" y="268.75"/>
      <point x="306.59" y="268.75" type="curve" smooth="yes"/>
      <point x="244.07" y="268.75" type="line" smooth="yes"/>
      <point x="235.93" y="268.75"/>
      <point x="231.06" y="264.51"/>
      <point x="230.9" y="256.37" type="curve" smooth="yes"/>
      <point x="230.73" y="247.99"/>
      <point x="229.89" y="239.44"/>
      <point x="229.89" y="179.34" type="curve" smooth="yes"/>
      <point x="229.89" y="17.26"/>
      <point x="24.08" y="56.36"/>
      <point x="24.08" y="-117.86" type="curve" smooth="yes"/>
      <point x="24.08" y="-200.69"/>
      <point x="91.2" y="-270.52"/>
      <point x="246.68" y="-270.52" type="curve" smooth="yes"/>
      <point x="352.8" y="-270.52"/>
      <point x="428.65" y="-224.6"/>
      <point x="428.65" y="-164.39" type="curve" smooth="yes"/>
      <point x="428.65" y="-148.59"/>
      <point x="425.12" y="-131.81"/>
      <point x="418.12" y="-114.61" type="curve" smooth="yes"/>
      <point x="413.75" y="-103.88"/>
      <point x="407.91" y="-98.9"/>
      <point x="393.03" y="-95.55" type="curve" smooth="yes"/>
    </contour>
  </outline>
</glyph>
<glyph name="Agrave" format="1">
  <advance width="785.900"/>
  <unicode hex="00C0"/>
  <outline>
    <contour>
      <point x="466.31" y="826.48" type="line"/>
      <point x="402.95" y="907.49"/>
      <point x="384.32" y="941.68"/>
      <point x="359.4" y="1007.16" type="curve" smooth="yes"/>
      <point x="356.84" y="1013.94"/>
      <point x="351.78" y="1018.53"/>
      <point x="341.73" y="1019.84" type="curve" smooth="yes"/>
      <point x="335.247" y="1020.68"/>
      <point x="328.831" y="1021.11"/>
      <point x="322.591" y="1021.11" type="curve" smooth="yes"/>
      <point x="284.394" y="1021.11"/>
      <point x="252.8" y="1005.09"/>
      <point x="252.8" y="970.21" type="curve" smooth="yes"/>
      <point x="252.8" y="888.29"/>
      <point x="353.88" y="828.25"/>
      <point x="413.62" y="807.81" type="curve" smooth="yes"/>
      <point x="419.51" y="805.79"/>
      <point x="424.23" y="806.24"/>
      <point x="429.92" y="808.98" type="curve" smooth="yes"/>
    </contour>
    <contour>
      <point x="465.71" y="737.57" type="line" smooth="yes"/>
      <point x="462.57" y="745.68"/>
      <point x="457.27" y="749.56"/>
      <point x="448.56" y="749.56" type="curve" smooth="yes"/>
      <point x="328.2" y="749.56" type="line" smooth="yes"/>
      <point x="319.46" y="749.56"/>
      <point x="314.15" y="745.63"/>
      <point x="311.12" y="737.43" type="curve" smooth="yes"/>
      <point x="95.55" y="155.08" type="line" smooth="yes"/>
      <point x="76.25" y="102.93"/>
      <point x="64.89" y="60"/>
      <point x="21" y="60" type="curve" smooth="yes"/>
      <point x="11.25" y="60"/>
      <point x="6.00001" y="54.75"/>
      <point x="6.00001" y="45" type="curve" smooth="yes"/>
      <point x="6.00001" y="15" type="line" smooth="yes"/>
      <point x="6.00001" y="5.25"/>
      <point x="11.25" y="8.65459e-07"/>
      <point x="21" y="8.65459e-07" type="curve" smooth="yes"/>
      <point x="269.62" y="8.65459e-07" type="line" smooth="yes"/>
      <point x="279.37" y="8.65459e-07"/>
      <point x="284.62" y="5.25"/>
      <point x="284.62" y="15" type="curve" smooth="yes"/>
      <point x="284.62" y="45" type="line" smooth="yes"/>
      <point x="284.62" y="54.75"/>
      <point x="279.37" y="60"/>
      <point x="269.62" y="60" type="curve" smooth="yes"/>
      <point x="228.689" y="60"/>
      <point x="191.655" y="89.4662"/>
      <point x="191.655" y="130.184" type="curve" smooth="yes"/>
      <point x="191.655" y="138.102"/>
      <point x="193.056" y="146.445"/>
      <point x="196.1" y="155.08" type="curve" smooth="yes"/>
      <point x="225.883" y="239.56" type="line"/>
      <point x="499.714" y="239.56" type="line"/>
      <point x="530.83" y="155.08" type="line" smooth="yes"/>
      <point x="534.155" y="146.053"/>
      <point x="535.678" y="137.359"/>
      <point x="535.678" y="129.145" type="curve" smooth="yes"/>
      <point x="535.678" y="88.7883"/>
      <point x="498.902" y="60"/>
      <point x="458.28" y="60" type="curve" smooth="yes"/>
      <point x="448.53" y="60"/>
      <point x="443.28" y="54.75"/>
      <point x="443.28" y="45" type="curve" smooth="yes"/>
      <point x="443.28" y="15" type="line" smooth="yes"/>
      <point x="443.28" y="5.25"/>
      <point x="448.53" y="8.65459e-07"/>
      <point x="458.28" y="8.65459e-07" type="curve" smooth="yes"/>
      <point x="764.9" y="8.65459e-07" type="line" smooth="yes"/>
      <point x="774.65" y="8.65459e-07"/>
      <point x="779.9" y="5.25"/>
      <point x="779.9" y="15" type="curve" smooth="yes"/>
      <point x="779.9" y="45" type="line" smooth="yes"/>
      <point x="779.9" y="54.75"/>
      <point x="774.65" y="60"/>
      <point x="764.9" y="60" type="curve" smooth="yes"/>
      <point x="723.01" y="60"/>
      <point x="711.14" y="104.09"/>
      <point x="691.38" y="155.08" type="curve" smooth="yes"/>
    </contour>
    <contour>
      <point x="256.554" y="326.56" type="line"/>
      <point x="359.8" y="619.42" type="line"/>
      <point x="467.669" y="326.56" type="line"/>
    </contour>
  </outline>
</glyph>
<glyph name="Adieresis" format="1">
  <advance width="785.900"/>
  <unicode hex="00C4"/>
  <outline>
    <contour>
      <point x="295.87" y="838.44"/>
      <point x="310.38" y="845.67"/>
      <point x="328.14" y="863.44" type="curve" smooth="yes"/>
      <point x="345.91" y="881.21"/>
      <point x="353.14" y="895.71"/>
      <point x="353.14" y="913.57" type="curve" smooth="yes"/>
      <point x="353.14" y="931.43"/>
      <point x="345.91" y="945.93"/>
      <point x="328.14" y="963.7" type="curve" smooth="yes"/>
      <point x="310.38" y="981.47"/>
      <point x="295.87" y="988.7"/>
      <point x="278.01" y="988.7" type="curve" smooth="yes"/>
      <point x="260.15" y="988.7"/>
      <point x="245.65" y="981.47"/>
      <point x="227.88" y="963.7" type="curve" smooth="yes"/>
      <point x="210.11" y="945.93"/>
      <point x="202.88" y="931.43"/>
      <point x="202.88" y="913.57" type="curve" smooth="yes"/>
      <point x="202.88" y="895.71"/>
      <point x="210.11" y="881.21"/>
      <point x="227.88" y="863.44" type="curve" smooth="yes"/>
      <point x="245.65" y="845.67"/>
      <point x="260.15" y="838.44"/>
      <point x="278.01" y="838.44" type="curve" smooth="yes"/>
    </contour>
    <contour>
      <point x="528.59" y="838.44"/>
      <point x="543.09" y="845.67"/>
      <point x="560.86" y="863.44" type="curve" smooth="yes"/>
      <point x="578.63" y="881.21"/>
      <point x="585.86" y="895.71"/>
      <point x="585.86" y="913.57" type="curve" smooth="yes"/>
      <point x="585.86" y="931.43"/>
      <point x="578.63" y="945.93"/>
      <point x="560.86" y="963.7" type="curve" smooth="yes"/>
      <point x="543.09" y="981.47"/>
      <point x="528.59" y="988.7"/>
      <point x="510.73" y="988.7" type="curve" smooth="yes"/>
      <point x="492.87" y="988.7"/>
      <point x="478.36" y="981.47"/>
      <point x="460.6" y="963.7" type="curve" smooth="yes"/>
      <point x="442.83" y="945.93"/>
      <point x="435.6" y="931.43"/>
      <point x="435.6" y="913.57" type="curve" smooth="yes"/>
      <point x="435.6" y="895.71"/>
      <point x="442.83" y="881.21"/>
      <point x="460.6" y="863.44" type="curve" smooth="yes"/>
      <point x="478.36" y="845.67"/>
      <point x="492.87" y="838.44"/>
      <point x="510.73" y="838.44" type="curve" smooth="yes"/>
    </contour>
    <contour>
      <point x="465.71" y="737.57" type="line" smooth="yes"/>
      <point x="462.57" y="745.68"/>
      <point x="457.27" y="749.56"/>
      <point x="448.56" y="749.56" type="curve" smooth="yes"/>
      <point x="328.2" y="749.56" type="line" smooth="yes"/>
      <point x="319.46" y="749.56"/>
      <point x="314.15" y="745.63"/>
      <point x="311.12" y="737.43" type="curve" smooth="yes"/>
      <point x="95.55" y="155.08" type="line" smooth="yes"/>
      <point x="76.25" y="102.93"/>
      <point x="64.89" y="60"/>
      <point x="21" y="60" type="curve" smooth="yes"/>
      <point x="11.25" y="60"/>
      <point x="6" y="54.75"/>
      <point x="6" y="45" type="curve" smooth="yes"/>
      <point x="6" y="15" type="line" smooth="yes"/>
      <point x="6" y="5.25"/>
      <point x="11.25" y="-1.93596e-06"/>
      <point x="21" y="-1.93596e-06" type="curve" smooth="yes"/>
      <point x="269.62" y="-1.93596e-06" type="line" smooth="yes"/>
      <point x="279.37" y="-1.93596e-06"/>
      <point x="284.62" y="5.25"/>
      <point x="284.62" y="15" type="curve" smooth="yes"/>
      <point x="284.62" y="45" type="line" smooth="yes"/>
      <point x="284.62" y="54.75"/>
      <point x="279.37" y="60"/>
      <point x="269.62" y="60" type="curve" smooth="yes"/>
      <point x="228.689" y="60"/>
      <point x="191.655" y="89.4662"/>
      <point x="191.655" y="130.184" type="curve" smooth="yes"/>
      <point x="191.655" y="138.102"/>
      <point x="193.056" y="146.445"/>
      <point x="196.1" y="155.08" type="curve" smooth="yes"/>
      <point x="225.883" y="239.56" type="line"/>
      <point x="499.714" y="239.56" type="line"/>
      <point x="530.83" y="155.08" type="line" smooth="yes"/>
      <point x="534.155" y="146.053"/>
      <point x="535.678" y="137.359"/>
      <point x="535.678" y="129.145" type="curve" smooth="yes"/>
      <point x="535.678" y="88.7883"/>
      <point x="498.902" y="60"/>
      <point x="458.28" y="60" type="curve" smooth="yes"/>
      <point x="448.53" y="60"/>
      <point x="443.28" y="54.75"/>
      <point x="443.28" y="45" type="curve" smooth="yes"/>
      <point x="443.28" y="15" type="line" smooth="yes"/>
      <point x="443.28" y="5.25"/>
      <point x="448.53" y="-1.93596e-06"/>
      <point x="458.28" y="-1.93596e-06" type="curve" smooth="yes"/>
      <point x="764.9" y="-1.93596e-06" type="line" smooth="yes"/>
      <point x="774.65" y="-1.93596e-06"/>
      <point x="779.9" y="5.25"/>
      <point x="779.9" y="15" type="curve" smooth="yes"/>
      <point x="779.9" y="45" type="line" smooth="yes"/>
      <point x="779.9" y="54.75"/>
      <point x="774.65" y="60"/>
      <point x="764.9" y="60" type="curve" smooth="yes"/>
      <point x="723.01" y="60"/>
      <point x="711.14" y="104.09"/>
      <point x="691.38" y="155.08" type="curve" smooth="yes"/>
    </contour>
    <contour>
      <point x="256.554" y="326.56" type="line"/>
      <point x="359.8" y="619.42" type="line"/>
      <point x="467.669" y="326.56" type="line"/>
    </contour>
  </outline>
</glyph>
<glyph name="Igrave" format="1">
  <advance width="407.477"/>
  <unicode hex="00CC"/>
  <outline>
    <contour>
      <point x="277.39" y="827.73" type="line"/>
      <point x="214.03" y="908.74"/>
      <point x="195.4" y="942.93"/>
      <point x="170.47" y="1008.41" type="curve" smooth="yes"/>
      <point x="167.92" y="1015.19"/>
      <point x="162.86" y="1019.78"/>
      <point x="152.81" y="1021.09" type="curve" smooth="yes"/>
      <point x="146.327" y="1021.93"/>
      <point x="139.911" y="1022.36"/>
      <point x="133.671" y="1022.36" type="curve" smooth="yes"/>
      <point x="95.4744" y="1022.36"/>
      <point x="63.88" y="1006.34"/>
      <point x="63.88" y="971.46" type="curve" smooth="yes"/>
      <point x="63.88" y="889.54"/>
      <point x="164.96" y="829.5"/>
      <point x="224.69" y="809.06" type="curve" smooth="yes"/>
      <point x="230.59" y="807.04"/>
      <point x="235.31" y="807.49"/>
      <point x="241" y="810.23" type="curve" smooth="yes"/>
    </contour>
    <contour>
      <point x="284.01" y="594.92" type="line" smooth="yes"/>
      <point x="284.01" y="647.561"/>
      <point x="300.577" y="687.426"/>
      <point x="351.493" y="689.88" type="curve"/>
      <point x="357.48" y="689.88" type="line" smooth="yes"/>
      <point x="367.23" y="689.88"/>
      <point x="372.48" y="695.13"/>
      <point x="372.48" y="704.88" type="curve" smooth="yes"/>
      <point x="372.48" y="735" type="line" smooth="yes"/>
      <point x="372.48" y="744.75"/>
      <point x="367.23" y="750"/>
      <point x="357.48" y="750" type="curve" smooth="yes"/>
      <point x="50" y="750" type="line" smooth="yes"/>
      <point x="40.25" y="750"/>
      <point x="35" y="744.75"/>
      <point x="35" y="735" type="curve" smooth="yes"/>
      <point x="35" y="704.88" type="line" smooth="yes"/>
      <point x="35" y="695.13"/>
      <point x="40.25" y="689.88"/>
      <point x="50" y="689.88" type="curve" smooth="yes"/>
      <point x="56.7271" y="689.88" type="line"/>
      <point x="107.643" y="687.426"/>
      <point x="124.21" y="647.561"/>
      <point x="124.21" y="594.92" type="curve" smooth="yes"/>
      <point x="124.21" y="155.08" type="line" smooth="yes"/>
      <point x="124.21" y="102.439"/>
      <point x="107.643" y="62.5745"/>
      <point x="56.7271" y="60.12" type="curve"/>
      <point x="50" y="60.12" type="line" smooth="yes"/>
      <point x="40.25" y="60.12"/>
      <point x="35" y="54.87"/>
      <point x="35" y="45.12" type="curve" smooth="yes"/>
      <point x="35" y="15" type="line" smooth="yes"/>
      <point x="35" y="5.25"/>
      <point x="40.25" y="2.04802e-06"/>
      <point x="50" y="2.04802e-06" type="curve" smooth="yes"/>
      <point x="357.48" y="2.04802e-06" type="line" smooth="yes"/>
      <point x="367.23" y="2.04802e-06"/>
      <point x="372.48" y="5.25"/>
      <point x="372.48" y="15" type="curve" smooth="yes"/>
      <point x="372.48" y="45.12" type="line" smooth="yes"/>
      <point x="372.48" y="54.87"/>
      <point x="367.23" y="60.12"/>
      <point x="357.48" y="60.12" type="curve" smooth="yes"/>
      <point x="351.493" y="60.12" type="line"/>
      <point x="300.577" y="62.5745"/>
      <point x="284.01" y="102.439"/>
      <point x="284.01" y="155.08" type="curve" smooth="yes"/>
    </contour>
  </outline>
</glyph>
<glyph name="Icircumflex" format="1">
  <advance width="407.477"/>
  <unicode hex="00CE"/>
  <outline>
    <contour>
      <point x="396.05" y="904.21"/>
      <point x="391.46" y="909.27"/>
      <point x="384.68" y="911.83" type="curve" smooth="yes"/>
      <point x="319.2" y="936.76"/>
      <point x="285.01" y="955.38"/>
      <point x="204" y="1018.74" type="curve"/>
      <point x="122.99" y="955.38"/>
      <point x="88.8" y="936.76"/>
      <point x="23.32" y="911.83" type="curve" smooth="yes"/>
      <point x="16.54" y="909.27"/>
      <point x="11.95" y="904.21"/>
      <point x="10.64" y="894.17" type="curve" smooth="yes"/>
      <point x="9.79747" y="887.685"/>
      <point x="9.37001" y="881.268"/>
      <point x="9.37001" y="875.028" type="curve" smooth="yes"/>
      <point x="9.37001" y="836.827"/>
      <point x="25.3882" y="805.24"/>
      <point x="60.27" y="805.24" type="curve" smooth="yes"/>
      <point x="124.449" y="805.24"/>
      <point x="175.198" y="867.279"/>
      <point x="203.998" y="922.872" type="curve"/>
      <point x="232.796" y="867.279"/>
      <point x="283.551" y="805.24"/>
      <point x="347.73" y="805.24" type="curve" smooth="yes"/>
      <point x="382.612" y="805.24"/>
      <point x="398.63" y="836.827"/>
      <point x="398.63" y="875.028" type="curve" smooth="yes"/>
      <point x="398.63" y="881.268"/>
      <point x="398.203" y="887.685"/>
      <point x="397.36" y="894.17" type="curve" smooth="yes"/>
    </contour>
    <contour>
      <point x="50" y="750" type="line" smooth="yes"/>
      <point x="40.25" y="750"/>
      <point x="35" y="744.75"/>
      <point x="35" y="735" type="curve" smooth="yes"/>
      <point x="35" y="704.88" type="line" smooth="yes"/>
      <point x="35" y="695.13"/>
      <point x="40.25" y="689.88"/>
      <point x="50" y="689.88" type="curve" smooth="yes"/>
      <point x="56.7271" y="689.88" type="line"/>
      <point x="107.643" y="687.426"/>
      <point x="124.21" y="647.561"/>
      <point x="124.21" y="594.92" type="curve" smooth="yes"/>
      <point x="124.21" y="155.08" type="line" smooth="yes"/>
      <point x="124.21" y="102.439"/>
      <point x="107.643" y="62.5745"/>
      <point x="56.7271" y="60.12" type="curve"/>
      <point x="50" y="60.12" type="line" smooth="yes"/>
      <point x="40.25" y="60.12"/>
      <point x="35" y="54.87"/>
      <point x="35" y="45.12" type="curve" smooth="yes"/>
      <point x="35" y="15" type="line" smooth="yes"/>
      <point x="35" y="5.25"/>
      <point x="40.25" y="-1.50681e-06"/>
      <point x="50" y="-1.50681e-06" type="curve" smooth="yes"/>
      <point x="357.48" y="-1.50681e-06" type="line" smooth="yes"/>
      <point x="367.23" y="-1.50681e-06"/>
      <point x="372.48" y="5.25"/>
      <point x="372.48" y="15" type="curve" smooth="yes"/>
      <point x="372.48" y="45.12" type="line" smooth="yes"/>
      <point x="372.48" y="54.87"/>
      <point x="367.23" y="60.12"/>
      <point x="357.48" y="60.12" type="curve" smooth="yes"/>
      <point x="351.493" y="60.12" type="line"/>
      <point x="300.577" y="62.5745"/>
      <point x="284.01" y="102.439"/>
      <point x="284.01" y="155.08" type="curve" smooth="yes"/>
      <point x="284.01" y="594.92" type="line" smooth="yes"/>
      <point x="284.01" y="647.561"/>
      <point x="300.577" y="687.426"/>
      <point x="351.493" y="689.88" type="curve"/>
      <point x="357.48" y="689.88" type="line" smooth="yes"/>
      <point x="367.23" y="689.88"/>
      <point x="372.48" y="695.13"/>
      <point x="372.48" y="704.88" type="curve" smooth="yes"/>
      <point x="372.48" y="735" type="line" smooth="yes"/>
      <point x="372.48" y="744.75"/>
      <point x="367.23" y="750"/>
      <point x="357.48" y="750" type="curve" smooth="yes"/>
    </contour>
  </outline>
</glyph>
<glyph name="Otilde" format="1">
  <advance width="821.710"/>
  <unicode hex="00D5"/>
  <outline>
    <contour>
      <point x="445.93" y="944.55"/>
      <point x="422.58" y="987.84"/>
      <point x="353.64" y="987.84" type="curve" smooth="yes"/>
      <point x="303.18" y="987.84"/>
      <point x="255.68" y="947.63"/>
      <point x="255.68" y="882.48" type="curve" smooth="yes"/>
      <point x="255.68" y="842.5"/>
      <point x="288.31" y="805.95"/>
      <point x="306.07" y="805.95" type="curve" smooth="yes"/>
      <point x="327.66" y="805.95"/>
      <point x="350.99" y="823.61"/>
      <point x="361.85" y="836.55" type="curve"/>
      <point x="350.77" y="850.71"/>
      <point x="346.8" y="864.7"/>
      <point x="346.8" y="879.03" type="curve" smooth="yes"/>
      <point x="346.8" y="888.75"/>
      <point x="351.33" y="901.94"/>
      <point x="365.34" y="901.84" type="curve" smooth="yes"/>
      <point x="376.34" y="901.77"/>
      <point x="383.63" y="894.47"/>
      <point x="397.44" y="874.43" type="curve" smooth="yes"/>
      <point x="415.64" y="849.68"/>
      <point x="438.39" y="806.9"/>
      <point x="507.55" y="806.9" type="curve" smooth="yes"/>
      <point x="558.01" y="806.9"/>
      <point x="605.5" y="847.12"/>
      <point x="605.5" y="912.27" type="curve" smooth="yes"/>
      <point x="605.5" y="952.24"/>
      <point x="572.88" y="988.79"/>
      <point x="555.12" y="988.79" type="curve" smooth="yes"/>
      <point x="533.52" y="988.79"/>
      <point x="510.2" y="971.13"/>
      <point x="499.34" y="958.2" type="curve"/>
      <point x="510.41" y="944.04"/>
      <point x="514.39" y="930.04"/>
      <point x="514.39" y="916.04" type="curve" smooth="yes"/>
      <point x="514.39" y="905.33"/>
      <point x="509.86" y="893.13"/>
      <point x="495.84" y="893.23" type="curve" smooth="yes"/>
      <point x="484.85" y="893.31"/>
      <point x="477.56" y="900.6"/>
      <point x="463.75" y="920.65" type="curve"/>
    </contour>
    <contour>
      <point x="153.729" y="717.263"/>
      <point x="35.1239" y="557.264"/>
      <point x="35.1239" y="379.343" type="curve" smooth="yes"/>
      <point x="35.1239" y="351.986"/>
      <point x="37.9281" y="324.204"/>
      <point x="43.76" y="296.38" type="curve" smooth="yes"/>
      <point x="82.5892" y="113.667"/>
      <point x="240.713" y="-12.6473"/>
      <point x="415.501" y="-12.6473" type="curve" smooth="yes"/>
      <point x="440.533" y="-12.6473"/>
      <point x="465.906" y="-10.0567"/>
      <point x="491.32" y="-4.67" type="curve" smooth="yes"/>
      <point x="666.964" y="33.0596"/>
      <point x="786.714" y="191.72"/>
      <point x="786.714" y="369.281" type="curve" smooth="yes"/>
      <point x="786.714" y="396.672"/>
      <point x="783.864" y="424.514"/>
      <point x="777.93" y="452.43" type="curve" smooth="yes"/>
      <point x="739.066" y="635.265"/>
      <point x="579.96" y="762.568"/>
      <point x="404.922" y="762.568" type="curve" smooth="yes"/>
      <point x="379.988" y="762.568"/>
      <point x="354.73" y="759.984"/>
      <point x="329.45" y="754.61" type="curve" smooth="yes"/>
    </contour>
    <contour>
      <point x="363.988" y="672.671"/>
      <point x="379.6" y="674.314"/>
      <point x="394.466" y="674.314" type="curve" smooth="yes"/>
      <point x="526.816" y="674.314"/>
      <point x="599.937" y="544.039"/>
      <point x="626.26" y="420.19" type="curve" smooth="yes"/>
      <point x="633.322" y="386.963"/>
      <point x="637.501" y="352.073"/>
      <point x="637.501" y="317.772" type="curve" smooth="yes"/>
      <point x="637.501" y="209.86"/>
      <point x="596.14" y="107.776"/>
      <point x="473.07" y="81.62" type="curve" smooth="yes"/>
      <point x="456.417" y="78.0542"/>
      <point x="440.567" y="76.3713"/>
      <point x="425.497" y="76.3713" type="curve" smooth="yes"/>
      <point x="293.75" y="76.3713"/>
      <point x="221.704" y="205"/>
      <point x="195.42" y="328.62" type="curve" smooth="yes"/>
      <point x="188.294" y="362.153"/>
      <point x="184.048" y="397.522"/>
      <point x="184.048" y="432.339" type="curve" smooth="yes"/>
      <point x="184.048" y="540.387"/>
      <point x="224.946" y="643.12"/>
      <point x="347.61" y="669.19" type="curve" smooth="yes"/>
    </contour>
  </outline>
</glyph>
<glyph name="Ugrave" format="1">
  <advance width="808.224"/>
  <unicode hex="00D9"/>
  <outline>
    <contour>
      <point x="508.71" y="827.73" type="line"/>
      <point x="445.35" y="908.74"/>
      <point x="426.72" y="942.93"/>
      <point x="401.79" y="1008.41" type="curve" smooth="yes"/>
      <point x="399.23" y="1015.19"/>
      <point x="394.18" y="1019.78"/>
      <point x="384.13" y="1021.09" type="curve" smooth="yes"/>
      <point x="377.645" y="1021.93"/>
      <point x="371.228" y="1022.36"/>
      <point x="364.988" y="1022.36" type="curve" smooth="yes"/>
      <point x="326.787" y="1022.36"/>
      <point x="295.2" y="1006.34"/>
      <point x="295.2" y="971.46" type="curve" smooth="yes"/>
      <point x="295.2" y="889.54"/>
      <point x="396.28" y="829.5"/>
      <point x="456.01" y="809.06" type="curve" smooth="yes"/>
      <point x="461.91" y="807.04"/>
      <point x="466.63" y="807.49"/>
      <point x="472.32" y="810.23" type="curve" smooth="yes"/>
    </contour>
    <contour>
      <point x="535" y="750" type="line" smooth="yes"/>
      <point x="525.25" y="750"/>
      <point x="520" y="744.75"/>
      <point x="520" y="735" type="curve" smooth="yes"/>
      <point x="520" y="704.88" type="line" smooth="yes"/>
      <point x="520" y="695.13"/>
      <point x="525.25" y="689.88"/>
      <point x="535" y="689.88" type="curve" smooth="yes"/>
      <point x="540.977" y="689.88" type="line"/>
      <point x="591.893" y="687.426"/>
      <point x="608.46" y="647.561"/>
      <point x="608.46" y="594.92" type="curve" smooth="yes"/>
      <point x="608.46" y="284.5" type="line" smooth="yes"/>
      <point x="608.47" y="163.816"/>
      <point x="567.267" y="75.1696"/>
      <point x="451.689" y="75.1696" type="curve" smooth="yes"/>
      <point x="295.631" y="75.1696"/>
      <point x="274.01" y="172.829"/>
      <point x="274.01" y="284.5" type="curve" smooth="yes"/>
      <point x="274.01" y="594.92" type="line" smooth="yes"/>
      <point x="274.02" y="647.561"/>
      <point x="290.578" y="687.426"/>
      <point x="341.493" y="689.88" type="curve"/>
      <point x="347.48" y="689.88" type="line" smooth="yes"/>
      <point x="357.23" y="689.88"/>
      <point x="362.48" y="695.13"/>
      <point x="362.48" y="704.88" type="curve" smooth="yes"/>
      <point x="362.48" y="735" type="line" smooth="yes"/>
      <point x="362.48" y="744.75"/>
      <point x="357.23" y="750"/>
      <point x="347.48" y="750" type="curve" smooth="yes"/>
      <point x="40" y="750" type="line" smooth="yes"/>
      <point x="30.25" y="750"/>
      <point x="25" y="744.75"/>
      <point x="25" y="735" type="curve" smooth="yes"/>
      <point x="25" y="704.88" type="line" smooth="yes"/>
      <point x="25" y="695.13"/>
      <point x="30.25" y="689.88"/>
      <point x="40" y="689.88" type="curve" smooth="yes"/>
      <point x="46.7271" y="689.88" type="line"/>
      <point x="97.6429" y="687.426"/>
      <point x="114.21" y="647.561"/>
      <point x="114.21" y="594.92" type="curve" smooth="yes"/>
      <point x="114.21" y="264.76" type="line" smooth="yes"/>
      <point x="114.21" y="91.02"/>
      <point x="224.53" y="-13"/>
      <point x="422.83" y="-13" type="curve" smooth="yes"/>
      <point x="621.07" y="-13"/>
      <point x="709.01" y="91.02"/>
      <point x="709.01" y="274.76" type="curve" smooth="yes"/>
      <point x="709.01" y="594.92" type="line" smooth="yes"/>
      <point x="709.01" y="647.561"/>
      <point x="725.577" y="687.426"/>
      <point x="776.493" y="689.88" type="curve"/>
      <point x="783.22" y="689.88" type="line" smooth="yes"/>
      <point x="792.97" y="689.88"/>
      <point x="798.22" y="695.13"/>
      <point x="798.22" y="704.88" type="curve" smooth="yes"/>
      <point x="798.22" y="735" type="line" smooth="yes"/>
      <point x="798.22" y="744.75"/>
      <point x="792.97" y="750"/>
      <point x="783.22" y="750" type="curve" smooth="yes"/>
    </contour>
  </outline>
</glyph>
<glyph name="Udieresis" format="1">
  <advance width="808.224"/>
  <unicode hex="00DC"/>
  <outline>
    <contour>
      <point x="338.27" y="839.69"/>
      <point x="352.77" y="846.92"/>
      <point x="370.54" y="864.69" type="curve" smooth="yes"/>
      <point x="388.31" y="882.46"/>
      <point x="395.54" y="896.96"/>
      <point x="395.54" y="914.82" type="curve" smooth="yes"/>
      <point x="395.54" y="932.68"/>
      <point x="388.31" y="947.18"/>
      <point x="370.54" y="964.95" type="curve" smooth="yes"/>
      <point x="352.77" y="982.72"/>
      <point x="338.27" y="989.95"/>
      <point x="320.41" y="989.95" type="curve" smooth="yes"/>
      <point x="302.55" y="989.95"/>
      <point x="288.05" y="982.72"/>
      <point x="270.28" y="964.95" type="curve" smooth="yes"/>
      <point x="252.51" y="947.18"/>
      <point x="245.28" y="932.68"/>
      <point x="245.28" y="914.82" type="curve" smooth="yes"/>
      <point x="245.28" y="896.96"/>
      <point x="252.51" y="882.46"/>
      <point x="270.28" y="864.69" type="curve" smooth="yes"/>
      <point x="288.05" y="846.92"/>
      <point x="302.55" y="839.69"/>
      <point x="320.41" y="839.69" type="curve" smooth="yes"/>
    </contour>
    <contour>
      <point x="570.99" y="839.69"/>
      <point x="585.49" y="846.92"/>
      <point x="603.26" y="864.69" type="curve" smooth="yes"/>
      <point x="621.02" y="882.46"/>
      <point x="628.26" y="896.96"/>
      <point x="628.26" y="914.82" type="curve" smooth="yes"/>
      <point x="628.26" y="932.68"/>
      <point x="621.02" y="947.18"/>
      <point x="603.26" y="964.95" type="curve" smooth="yes"/>
      <point x="585.49" y="982.72"/>
      <point x="570.99" y="989.95"/>
      <point x="553.12" y="989.95" type="curve" smooth="yes"/>
      <point x="535.26" y="989.95"/>
      <point x="520.76" y="982.72"/>
      <point x="502.99" y="964.95" type="curve" smooth="yes"/>
      <point x="485.22" y="947.18"/>
      <point x="477.99" y="932.68"/>
      <point x="477.99" y="914.82" type="curve" smooth="yes"/>
      <point x="477.99" y="896.96"/>
      <point x="485.22" y="882.46"/>
      <point x="502.99" y="864.69" type="curve" smooth="yes"/>
      <point x="520.76" y="846.92"/>
      <point x="535.26" y="839.69"/>
      <point x="553.12" y="839.69" type="curve" smooth="yes"/>
    </contour>
    <contour>
      <point x="535" y="750" type="line" smooth="yes"/>
      <point x="525.25" y="750"/>
      <point x="520" y="744.75"/>
      <point x="520" y="735" type="curve" smooth="yes"/>
      <point x="520" y="704.88" type="line" smooth="yes"/>
      <point x="520" y="695.13"/>
      <point x="525.25" y="689.88"/>
      <point x="535" y="689.88" type="curve" smooth="yes"/>
      <point x="540.977" y="689.88" type="line"/>
      <point x="591.893" y="687.426"/>
      <point x="608.46" y="647.561"/>
      <point x="608.46" y="594.92" type="curve" smooth="yes"/>
      <point x="608.46" y="284.5" type="line" smooth="yes"/>
      <point x="608.47" y="163.816"/>
      <point x="567.267" y="75.1696"/>
      <point x="451.689" y="75.1696" type="curve" smooth="yes"/>
      <point x="295.631" y="75.1696"/>
      <point x="274.01" y="172.829"/>
      <point x="274.01" y="284.5" type="curve" smooth="yes"/>
      <point x="274.01" y="594.92" type="line" smooth="yes"/>
      <point x="274.02" y="647.561"/>
      <point x="290.578" y="687.425"/>
      <point x="341.493" y="689.88" type="curve"/>
      <point x="347.48" y="689.88" type="line" smooth="yes"/>
      <point x="357.23" y="689.88"/>
      <point x="362.48" y="695.13"/>
      <point x="362.48" y="704.88" type="curve" smooth="yes"/>
      <point x="362.48" y="735" type="line" smooth="yes"/>
      <point x="362.48" y="744.75"/>
      <point x="357.23" y="750"/>
      <point x="347.48" y="750" type="curve" smooth="yes"/>
      <point x="40" y="750" type="line" smooth="yes"/>
      <point x="30.25" y="750"/>
      <point x="25" y="744.75"/>
      <point x="25" y="735" type="curve" smooth="yes"/>
      <point x="25" y="704.88" type="line" smooth="yes"/>
      <point x="25" y="695.13"/>
      <point x="30.25" y="689.88"/>
      <point x="40" y="689.88" type="curve" smooth="yes"/>
      <point x="46.7271" y="689.88" type="line"/>
      <point x="97.6429" y="687.425"/>
      <point x="114.21" y="647.561"/>
      <point x="114.21" y="594.92" type="curve" smooth="yes"/>
      <point x="114.21" y="264.76" type="line" smooth="yes"/>
      <point x="114.21" y="91.02"/>
      <point x="224.53" y="-13"/>
      <point x="422.83" y="-13" type="curve" smooth="yes"/>
      <point x="621.07" y="-13"/>
      <point x="709.01" y="91.02"/>
      <point x="709.01" y="274.76" type="curve" smooth="yes"/>
      <point x="709.01" y="594.92" type="line" smooth="yes"/>
      <point x="709.01" y="647.561"/>
      <point x="725.577" y="687.425"/>
      <point x="776.493" y="689.88" type="curve"/>
      <point x="783.22" y="689.88" type="line" smooth="yes"/>
      <point x="792.97" y="689.88"/>
      <point x="798.22" y="695.13"/>
      <point x="798.22" y="704.88" type="curve" smooth="yes"/>
      <point x="798.22" y="735" type="line" smooth="yes"/>
      <point x="798.22" y="744.75"/>
      <point x="792.97" y="750"/>
      <point x="783.22" y="750" type="curve" smooth="yes"/>
    </contour>
  </outline>
</glyph>
<glyph name="Yacute" format="1">
  <advance width="793.900"/>
  <unicode hex="00DD"/>
  <outline>
    <contour>
      <point x="412.52" y="810.23" type="line" smooth="yes"/>
      <point x="415.848" y="808.628"/>
      <point x="418.843" y="807.808"/>
      <point x="421.938" y="807.808" type="curve" smooth="yes"/>
      <point x="424.134" y="807.808"/>
      <point x="426.38" y="808.221"/>
      <point x="428.83" y="809.06" type="curve" smooth="yes"/>
      <point x="488.56" y="829.5"/>
      <point x="589.64" y="889.54"/>
      <point x="589.64" y="971.46" type="curve" smooth="yes"/>
      <point x="589.64" y="1006.34"/>
      <point x="558.053" y="1022.36"/>
      <point x="519.852" y="1022.36" type="curve" smooth="yes"/>
      <point x="513.612" y="1022.36"/>
      <point x="507.195" y="1021.93"/>
      <point x="500.71" y="1021.09" type="curve" smooth="yes"/>
      <point x="490.66" y="1019.78"/>
      <point x="485.61" y="1015.19"/>
      <point x="483.05" y="1008.41" type="curve" smooth="yes"/>
      <point x="458.12" y="942.93"/>
      <point x="439.49" y="908.74"/>
      <point x="376.13" y="827.73" type="curve"/>
    </contour>
    <contour>
      <point x="520.28" y="752.56" type="line" smooth="yes"/>
      <point x="510.53" y="752.56"/>
      <point x="505.28" y="747.31"/>
      <point x="505.28" y="737.56" type="curve" smooth="yes"/>
      <point x="505.28" y="707.56" type="line" smooth="yes"/>
      <point x="505.28" y="697.81"/>
      <point x="510.53" y="692.56"/>
      <point x="520.28" y="692.56" type="curve" smooth="yes"/>
      <point x="549.736" y="692.56"/>
      <point x="566.092" y="682.49"/>
      <point x="566.092" y="659.757" type="curve" smooth="yes"/>
      <point x="566.092" y="644.758"/>
      <point x="558.973" y="624.248"/>
      <point x="543.8" y="597.48" type="curve" smooth="yes"/>
      <point x="435.57" y="406.54" type="line"/>
      <point x="319.07" y="597.48" type="line" smooth="yes"/>
      <point x="307.156" y="617.004"/>
      <point x="302.13" y="633.011"/>
      <point x="302.13" y="645.95" type="curve" smooth="yes"/>
      <point x="302.13" y="679.679"/>
      <point x="336.285" y="692.56"/>
      <point x="371.62" y="692.56" type="curve" smooth="yes"/>
      <point x="381.37" y="692.56"/>
      <point x="386.62" y="697.81"/>
      <point x="386.62" y="707.56" type="curve" smooth="yes"/>
      <point x="386.62" y="737.56" type="line" smooth="yes"/>
      <point x="386.62" y="747.31"/>
      <point x="381.37" y="752.56"/>
      <point x="371.62" y="752.56" type="curve" smooth="yes"/>
      <point x="25" y="752.56" type="line" smooth="yes"/>
      <point x="15.25" y="752.56"/>
      <point x="10" y="747.31"/>
      <point x="10" y="737.56" type="curve" smooth="yes"/>
      <point x="10" y="707.56" type="line" smooth="yes"/>
      <point x="10" y="697.81"/>
      <point x="15.25" y="692.56"/>
      <point x="25" y="692.56" type="curve" smooth="yes"/>
      <point x="66.89" y="692.56"/>
      <point x="94.29" y="663.69"/>
      <point x="138.52" y="597.48" type="curve" smooth="yes"/>
      <point x="319.07" y="327.18" type="line" smooth="yes"/>
      <point x="323.15" y="321.08"/>
      <point x="324.72" y="315.89"/>
      <point x="324.72" y="308.55" type="curve" smooth="yes"/>
      <point x="324.72" y="155.08" type="line" smooth="yes"/>
      <point x="324.72" y="102.439"/>
      <point x="308.153" y="62.5745"/>
      <point x="257.237" y="60.12" type="curve"/>
      <point x="251.26" y="60.12" type="line" smooth="yes"/>
      <point x="241.51" y="60.12"/>
      <point x="236.26" y="54.87"/>
      <point x="236.26" y="45.12" type="curve" smooth="yes"/>
      <point x="236.26" y="15" type="line" smooth="yes"/>
      <point x="236.26" y="5.25"/>
      <point x="241.51" y="-1.68562e-06"/>
      <point x="251.26" y="-1.68562e-06" type="curve" smooth="yes"/>
      <point x="558.74" y="-1.68562e-06" type="line" smooth="yes"/>
      <point x="568.49" y="-1.68562e-06"/>
      <point x="573.74" y="5.25"/>
      <point x="573.74" y="15" type="curve" smooth="yes"/>
      <point x="573.74" y="45.12" type="line" smooth="yes"/>
      <point x="573.74" y="54.87"/>
      <point x="568.49" y="60.12"/>
      <point x="558.74" y="60.12" type="curve" smooth="yes"/>
      <point x="551.74" y="60.12" type="line"/>
      <point x="501.088" y="62.5745"/>
      <point x="484.521" y="102.439"/>
      <point x="484.521" y="155.08" type="curve" smooth="yes"/>
      <point x="484.521" y="314.22" type="line" smooth="yes"/>
      <point x="484.521" y="321.46"/>
      <point x="485.911" y="326.59"/>
      <point x="489.561" y="332.83" type="curve" smooth="yes"/>
      <point x="644.351" y="597.48" type="line" smooth="yes"/>
      <point x="682.951" y="663.48"/>
      <point x="725.011" y="692.56"/>
      <point x="768.901" y="692.56" type="curve" smooth="yes"/>
      <point x="778.651" y="692.56"/>
      <point x="783.901" y="697.81"/>
      <point x="783.901" y="707.56" type="curve" smooth="yes"/>
      <point x="783.901" y="737.56" type="line" smooth="yes"/>
      <point x="783.901" y="747.31"/>
      <point x="778.651" y="752.56"/>
      <point x="768.901" y="752.56" type="curve" smooth="yes"/>
    </contour>
  </outline>
</glyph>
<glyph name="acircumflex" format="1">
  <advance width="618.600"/>
  <unicode hex="00E2"/>
  <outline>
    <contour>
      <point x="200.648" y="555.24"/>
      <point x="251.397" y="617.279"/>
      <point x="280.197" y="672.871" type="curve"/>
      <point x="308.993" y="617.279"/>
      <point x="359.744" y="555.24"/>
      <point x="423.93" y="555.24" type="curve" smooth="yes"/>
      <point x="458.812" y="555.24"/>
      <point x="474.83" y="586.827"/>
      <point x="474.83" y="625.028" type="curve" smooth="yes"/>
      <point x="474.83" y="631.268"/>
      <point x="474.402" y="637.685"/>
      <point x="473.56" y="644.17" type="curve" smooth="yes"/>
      <point x="472.25" y="654.21"/>
      <point x="467.66" y="659.27"/>
      <point x="460.88" y="661.83" type="curve" smooth="yes"/>
      <point x="395.4" y="686.76"/>
      <point x="361.21" y="705.38"/>
      <point x="280.2" y="768.74" type="curve"/>
      <point x="199.18" y="705.38"/>
      <point x="165" y="686.76"/>
      <point x="99.5199" y="661.83" type="curve" smooth="yes"/>
      <point x="92.7399" y="659.27"/>
      <point x="88.1499" y="654.21"/>
      <point x="86.8399" y="644.17" type="curve" smooth="yes"/>
      <point x="85.9974" y="637.685"/>
      <point x="85.5699" y="631.268"/>
      <point x="85.5699" y="625.028" type="curve" smooth="yes"/>
      <point x="85.5699" y="586.827"/>
      <point x="101.588" y="555.24"/>
      <point x="136.47" y="555.24" type="curve" smooth="yes"/>
    </contour>
    <contour>
      <point x="532.9" y="511.32" type="line"/>
      <point x="532.9" y="512.82"/>
      <point x="532.81" y="512.94"/>
      <point x="531.53" y="512.94" type="curve" smooth="yes"/>
      <point x="529.18" y="512.93" type="line" smooth="yes"/>
      <point x="527.63" y="512.92"/>
      <point x="526.27" y="511.66"/>
      <point x="524.72" y="510.55" type="curve" smooth="yes"/>
      <point x="504.372" y="495.896"/>
      <point x="481.505" y="477.676"/>
      <point x="425.842" y="454.507" type="curve"/>
      <point x="383.966" y="492.386"/>
      <point x="328.714" y="512.57"/>
      <point x="263.5" y="512.57" type="curve" smooth="yes"/>
      <point x="142.62" y="512.57"/>
      <point x="30" y="436.04"/>
      <point x="30" y="250.82" type="curve" smooth="yes"/>
      <point x="30" y="57.3701"/>
      <point x="161.41" y="-12.9999"/>
      <point x="251.59" y="-12.9999" type="curve" smooth="yes"/>
      <point x="354.42" y="-12.9999"/>
      <point x="393.48" y="52.3701"/>
      <point x="404.35" y="79.1301" type="curve"/>
      <point x="392.76" y="-9.9999" type="line" smooth="yes"/>
      <point x="392.57" y="-11.9999"/>
      <point x="392.85" y="-12.9999"/>
      <point x="394.13" y="-12.9999" type="curve" smooth="yes"/>
      <point x="396.48" y="-12.9999" type="line" smooth="yes"/>
      <point x="399.4" y="-12.9999"/>
      <point x="403.19" y="-11.9999"/>
      <point x="404.94" y="-10.9999" type="curve"/>
      <point x="449.762" y="8.86862"/>
      <point x="490.662" y="27.3402"/>
      <point x="588.802" y="27.3402" type="curve" smooth="yes"/>
      <point x="598.895" y="27.3402"/>
      <point x="603.57" y="32.1264"/>
      <point x="603.57" y="40.5301" type="curve" smooth="yes"/>
      <point x="603.57" y="74.4301" type="line"/>
      <point x="603.87" y="81.2901"/>
      <point x="601.7" y="86.2601"/>
      <point x="591.83" y="87.3401" type="curve" smooth="yes"/>
      <point x="542.607" y="92.7181"/>
      <point x="534.135" y="137.407"/>
      <point x="532.9" y="185.027" type="curve" smooth="yes"/>
    </contour>
    <contour>
      <point x="393.24" y="141.12" type="line"/>
      <point x="393.24" y="141.12"/>
      <point x="371.06" y="75.2501"/>
      <point x="296.89" y="75.2501" type="curve" smooth="yes"/>
      <point x="214.97" y="75.2501"/>
      <point x="158.64" y="155.01"/>
      <point x="158.64" y="283.16" type="curve" smooth="yes"/>
      <point x="158.64" y="365.92"/>
      <point x="184.9" y="446.11"/>
      <point x="281.64" y="446.11" type="curve" smooth="yes"/>
      <point x="360.49" y="446.11"/>
      <point x="385.5" y="382.25"/>
      <point x="393.24" y="341.98" type="curve"/>
    </contour>
  </outline>
</glyph>
<glyph name="aring" format="1">
  <advance width="618.600"/>
  <unicode hex="00E5"/>
  <outline>
    <contour>
      <point x="532.9" y="511.32" type="line"/>
      <point x="532.9" y="512.82"/>
      <point x="532.81" y="512.94"/>
      <point x="531.53" y="512.94" type="curve" smooth="yes"/>
      <point x="529.18" y="512.93" type="line" smooth="yes"/>
      <point x="527.63" y="512.92"/>
      <point x="526.27" y="511.66"/>
      <point x="524.72" y="510.55" type="curve" smooth="yes"/>
      <point x="504.372" y="495.896"/>
      <point x="481.505" y="477.676"/>
      <point x="425.842" y="454.507" type="curve"/>
      <point x="402.967" y="475.198"/>
      <point x="376.1" y="490.61"/>
      <point x="345.799" y="500.336" type="curve"/>
      <point x="388.812" y="521.856"/>
      <point x="419.11" y="563.74"/>
      <point x="419.11" y="610" type="curve" smooth="yes"/>
      <point x="419.11" y="677.04"/>
      <point x="355.48" y="734.89"/>
      <point x="281.73" y="734.89" type="curve" smooth="yes"/>
      <point x="207.98" y="734.89"/>
      <point x="144.35" y="677.04"/>
      <point x="144.35" y="610" type="curve" smooth="yes"/>
      <point x="144.35" y="567.856"/>
      <point x="169.497" y="529.343"/>
      <point x="206.496" y="506.551" type="curve"/>
      <point x="109.441" y="485.274"/>
      <point x="30" y="406.381"/>
      <point x="30" y="250.82" type="curve" smooth="yes"/>
      <point x="30" y="57.3701"/>
      <point x="161.41" y="-12.9999"/>
      <point x="251.59" y="-12.9999" type="curve" smooth="yes"/>
      <point x="354.42" y="-12.9999"/>
      <point x="393.48" y="52.3701"/>
      <point x="404.35" y="79.1301" type="curve"/>
      <point x="392.76" y="-9.99989" type="line" smooth="yes"/>
      <point x="392.57" y="-11.9999"/>
      <point x="392.85" y="-12.9999"/>
      <point x="394.13" y="-12.9999" type="curve" smooth="yes"/>
      <point x="396.48" y="-12.9999" type="line" smooth="yes"/>
      <point x="399.4" y="-12.9999"/>
      <point x="403.19" y="-11.9999"/>
      <point x="404.94" y="-10.9999" type="curve"/>
      <point x="449.762" y="8.86863"/>
      <point x="490.662" y="27.3402"/>
      <point x="588.802" y="27.3402" type="curve" smooth="yes"/>
      <point x="598.895" y="27.3402"/>
      <point x="603.57" y="32.1264"/>
      <point x="603.57" y="40.5301" type="curve" smooth="yes"/>
      <point x="603.57" y="74.4301" type="line"/>
      <point x="603.87" y="81.2901"/>
      <point x="601.7" y="86.2601"/>
      <point x="591.83" y="87.3401" type="curve" smooth="yes"/>
      <point x="542.607" y="92.7181"/>
      <point x="534.135" y="137.407"/>
      <point x="532.9" y="185.027" type="curve" smooth="yes"/>
    </contour>
    <contour>
      <point x="315.36" y="664.89"/>
      <point x="342.11" y="640.57"/>
      <point x="342.11" y="610" type="curve" smooth="yes"/>
      <point x="342.11" y="579.43"/>
      <point x="315.36" y="555.11"/>
      <point x="281.73" y="555.11" type="curve" smooth="yes"/>
      <point x="248.1" y="555.11"/>
      <point x="221.35" y="579.43"/>
      <point x="221.35" y="610" type="curve" smooth="yes"/>
      <point x="221.35" y="640.57"/>
      <point x="248.1" y="664.89"/>
      <point x="281.73" y="664.89" type="curve" smooth="yes"/>
    </contour>
    <contour>
      <point x="393.24" y="141.12" type="line"/>
      <point x="393.24" y="141.12"/>
      <point x="371.06" y="75.2501"/>
      <point x="296.89" y="75.2501" type="curve" smooth="yes"/>
      <point x="214.97" y="75.2501"/>
      <point x="158.64" y="155.01"/>
      <point x="158.64" y="283.16" type="curve" smooth="yes"/>
      <point x="158.64" y="365.92"/>
      <point x="184.9" y="446.11"/>
      <point x="281.64" y="446.11" type="curve" smooth="yes"/>
      <point x="360.49" y="446.11"/>
      <point x="385.5" y="382.25"/>
      <point x="393.24" y="341.98" type="curve"/>
    </contour>
  </outline>
</glyph>
